<svg width="18" height="18" viewBox="0 0 18 18" fill="none" xmlns="http://www.w3.org/2000/svg">
<g id="calendar 1" clip-path="url(#clip0_270_503)">
<g id="Group">
<path id="Vector" d="M0 9.52734H3.72656V13.2188H0V9.52734Z" fill="#F91C1C"/>
<path id="Vector_2" d="M4.78125 12.4731L7.72696 9.52734H4.78125V12.4731Z" fill="#F91C1C"/>
<path id="Vector_3" d="M8.47305 13.2187V10.2729L5.52734 13.2187H8.47305Z" fill="#F91C1C"/>
<path id="Vector_4" d="M4.78125 4.74609H8.47266V8.47266H4.78125V4.74609Z" fill="#F91C1C"/>
<path id="Vector_5" d="M14.2734 4.74609H18V8.47266H14.2734V4.74609Z" fill="#F91C1C"/>
<path id="Vector_6" d="M4.78125 14.2734H8.47266V18H4.78125V14.2734Z" fill="#F91C1C"/>
<path id="Vector_7" d="M9.52734 4.74609H13.2188V8.47266H9.52734V4.74609Z" fill="#F91C1C"/>
<path id="Vector_8" d="M0 14.2734H3.72656V18H0V14.2734Z" fill="#F91C1C"/>
<path id="Vector_9" d="M0 4.74609H3.72656V8.47266H0V4.74609Z" fill="#F91C1C"/>
<path id="Vector_10" d="M14.2734 14.2734H18V18H14.2734V14.2734Z" fill="#F91C1C"/>
<path id="Vector_11" d="M14.2734 9.52734H18V13.2188H14.2734V9.52734Z" fill="#F91C1C"/>
<path id="Vector_12" d="M9.52734 14.2734H13.2188V18H9.52734V14.2734Z" fill="#F91C1C"/>
<path id="Vector_13" d="M9.52734 9.52734H13.2188V13.2188H9.52734V9.52734Z" fill="#F91C1C"/>
<path id="Vector_14" d="M3.72656 0H5.83594V1.58203H3.72656V0Z" fill="#F91C1C"/>
<path id="Vector_15" d="M12.1641 0H14.2734V1.58203H12.1641V0Z" fill="#F91C1C"/>
<path id="Vector_16" d="M15.3281 2.63672H11.1094V1.05469H6.89062V2.63672H2.67188V1.05469H0V3.69141H18V1.05469H15.3281V2.63672Z" fill="#F91C1C"/>
</g>
</g>
<defs>
<clipPath id="clip0_270_503">
<rect width="18" height="18" fill="white"/>
</clipPath>
</defs>
</svg>
