<svg width="24" height="24" viewBox="0 0 24 24" fill="none" xmlns="http://www.w3.org/2000/svg">
<g id="download 1">
<g id="Layer 19">
<path id="Vector" d="M11.6024 18.0487C11.7078 18.1541 11.8508 18.2133 11.9999 18.2133C12.1489 18.2133 12.2919 18.1541 12.3974 18.0487L15.6261 14.82C15.7255 14.7134 15.7796 14.5723 15.777 14.4266C15.7744 14.2809 15.7154 14.1418 15.6123 14.0388C15.5093 13.9357 15.3702 13.8767 15.2245 13.8741C15.0788 13.8715 14.9378 13.9256 14.8311 14.025L12.5811 16.2937V10.875C12.5811 10.7258 12.5219 10.5827 12.4164 10.4773C12.3109 10.3718 12.1678 10.3125 12.0186 10.3125C11.8694 10.3125 11.7264 10.3718 11.6209 10.4773C11.5154 10.5827 11.4561 10.7258 11.4561 10.875V16.2937L9.16863 14.025C9.06199 13.9256 8.92096 13.8715 8.77523 13.8741C8.62951 13.8767 8.49047 13.9357 8.38741 14.0388C8.28435 14.1418 8.22532 14.2809 8.22274 14.4266C8.22017 14.5723 8.27426 14.7134 8.37362 14.82L11.6024 18.0487Z" fill="#8E949B"/>
<path id="Vector_2" d="M22.9313 7.18504C22.878 7.12267 22.8119 7.07259 22.7375 7.03828C22.663 7.00396 22.582 6.98622 22.5 6.98629H20.73V5.56129C20.73 5.4121 20.6707 5.26903 20.5652 5.16354C20.4598 5.05805 20.3167 4.99879 20.1675 4.99879H9.375L7.18125 2.77129C7.12976 2.71786 7.06802 2.67537 6.99971 2.64637C6.93141 2.61737 6.85795 2.60247 6.78375 2.60254H1.5C1.35082 2.60254 1.20774 2.6618 1.10225 2.76729C0.996763 2.87278 0.9375 3.01585 0.9375 3.16504V20.835C0.94038 20.9833 1.00057 21.1247 1.10544 21.2296C1.21031 21.3345 1.35172 21.3947 1.5 21.3975H20.1675C20.3001 21.3975 20.4283 21.3503 20.5293 21.2645C20.6302 21.1786 20.6974 21.0596 20.7188 20.9288L23.055 7.64629C23.0682 7.56503 23.064 7.48188 23.0427 7.40237C23.0214 7.32285 22.9834 7.24877 22.9313 7.18504ZM19.695 20.2725H2.17125L4.305 8.11129H21.8288L19.695 20.2725Z" fill="#8E949B"/>
</g>
</g>
</svg>
