<svg width="32" height="32" viewBox="0 0 32 32" fill="none" xmlns="http://www.w3.org/2000/svg">
<g id="Filter">
<g id="Filter_2">
<path id="Vector" d="M31.0625 21.5896H28.9193C28.4638 18.4701 25.771 16.0667 22.5271 16.0667C19.2832 16.0667 16.5904 18.4701 16.1349 21.5896H0.9375C0.41975 21.5896 0 22.0093 0 22.5271C0 23.0448 0.41975 23.4646 0.9375 23.4646H16.1349C16.5904 26.5842 19.2832 28.9875 22.5271 28.9875C25.771 28.9875 28.4638 26.5842 28.9193 23.4646H31.0625C31.5802 23.4646 32 23.0448 32 22.5271C32 22.0093 31.5802 21.5896 31.0625 21.5896ZM22.5271 27.1125C19.9987 27.1125 17.9417 25.0555 17.9417 22.5271C17.9417 19.9987 19.9987 17.9417 22.5271 17.9417C25.0555 17.9417 27.1125 19.9987 27.1125 22.5271C27.1125 25.0555 25.0555 27.1125 22.5271 27.1125Z" fill="#8E949B"/>
<path id="Vector_2" d="M0.9375 10.4104H3.08075C3.53625 13.53 6.229 15.9333 9.47294 15.9333C12.7168 15.9333 15.4096 13.53 15.8651 10.4104H31.0625C31.5802 10.4104 32 9.9907 32 9.47295C32 8.9552 31.5802 8.53545 31.0625 8.53545H15.8651C15.4096 5.41589 12.7168 3.01251 9.47294 3.01251C6.229 3.01251 3.53625 5.41589 3.08075 8.53545H0.9375C0.41975 8.53545 0 8.9552 0 9.47295C0 9.9907 0.41975 10.4104 0.9375 10.4104ZM9.47294 4.88751C12.0013 4.88751 14.0583 6.94451 14.0583 9.47295C14.0583 12.0013 12.0013 14.0583 9.47294 14.0583C6.9445 14.0583 4.8875 12.0013 4.8875 9.47295C4.8875 6.94451 6.9445 4.88751 9.47294 4.88751Z" fill="#8E949B"/>
</g>
</g>
</svg>
