<svg width="14" height="14" viewBox="0 0 14 14" fill="none" xmlns="http://www.w3.org/2000/svg">
<g id="mark 3" clip-path="url(#clip0_270_7005)">
<path id="Vector" d="M7 0C3.13404 0 0 3.13404 0 7C0 8.38222 0.40222 9.66966 1.09368 10.7549L0 14L3.24506 12.9063C4.33034 13.5978 5.61778 14 7 14C10.866 14 14 10.866 14 7C14 3.13404 10.866 0 7 0ZM7.47054 10.5116H6.35054V9.39162H7.47054V10.5116ZM7.9996 7.55916C7.78708 7.72156 7.4662 7.96726 7.4662 8.07996V8.645H6.3462V8.07996C6.3462 7.41398 6.86294 7.01862 7.31878 6.66974C7.81032 6.29356 8.1088 6.0368 8.1088 5.64228C8.1088 5.22074 7.70602 4.60838 7.07504 4.60838C6.42152 4.60838 5.89106 5.32476 5.89106 5.79236H4.77106C4.77106 4.72696 5.77738 3.48838 7.07504 3.48838C8.34428 3.48838 9.2288 4.6235 9.2288 5.64228C9.2288 6.6185 8.5183 7.16212 7.9996 7.55916Z" fill="#F91C1C"/>
</g>
<defs>
<clipPath id="clip0_270_7005">
<rect width="14" height="14" fill="white"/>
</clipPath>
</defs>
</svg>
