<svg width="78" height="79" viewBox="0 0 78 79" fill="none" xmlns="http://www.w3.org/2000/svg">
<g clip-path="url(#clip0_270_1875)">
<path d="M45.216 45.9215V45.9016C45.216 45.8818 45.1963 45.8422 45.1963 45.8224C45.1963 45.7827 45.1963 45.7431 45.1766 45.7233V45.7035C45.1569 45.6836 45.1569 45.6638 45.1372 45.644C45.1175 45.6044 45.0978 45.5845 45.0781 45.5647L45.0583 45.5449C45.0386 45.5251 44.9992 45.5053 44.9795 45.4854C44.9598 45.4656 44.9401 45.4458 44.9204 45.4458L22.8543 35.1001H22.8346C22.7952 35.0803 22.7557 35.0803 22.7163 35.0605C22.6966 35.0605 22.6572 35.0406 22.6375 35.0406C22.5981 35.0406 22.5784 35.0605 22.539 35.0605C22.4996 35.0605 22.4602 35.0803 22.4208 35.0803H22.4011L0.334933 45.3863H0.315231C0.295529 45.4062 0.275827 45.4062 0.256125 45.426C0.236423 45.4458 0.197019 45.4656 0.177318 45.4854L0.157616 45.5053C0.137914 45.5251 0.118212 45.5647 0.0985097 45.5845C0.0985097 45.5845 0.0985097 45.5845 0.0985097 45.6044C0.0788078 45.6242 0.0591058 45.644 0.0591058 45.6638C0.0591058 45.6638 0.0591058 45.6836 0.0394039 45.6836C0.0197019 45.7233 0.0197019 45.7431 0.0197019 45.7827C0.0197019 45.8224 0 45.8422 0 45.8818C0 45.8818 0 45.8818 0 45.9016V68.0993C0 68.1192 0.0197019 68.1588 0.0197019 68.1786C0.0197019 68.2183 0.0197019 68.2579 0.0394039 68.2975C0.0591058 68.3372 0.0788078 68.357 0.0985097 68.3966C0.118212 68.4363 0.137914 68.4561 0.157616 68.4759C0.197019 68.5155 0.216721 68.5354 0.256125 68.5552C0.275827 68.575 0.295529 68.5948 0.315231 68.5948L22.3814 78.9604C22.4405 79 22.5193 79 22.5981 79C22.6769 79 22.7557 78.9802 22.8149 78.9604L44.881 68.5948C44.9007 68.575 44.9204 68.5552 44.9401 68.5354C44.9795 68.5155 45.0189 68.4957 45.0387 68.4561C45.0583 68.4363 45.0781 68.3966 45.0978 68.357C45.1175 68.3372 45.1372 68.2975 45.1569 68.2777C45.1766 68.2381 45.1766 68.1984 45.1766 68.139C45.1766 68.1192 45.1963 68.0993 45.1963 68.0597L45.216 45.9215ZM22.6178 36.1505L43.3837 45.9016L22.6178 55.6528L1.85198 45.9016L22.6178 36.1505ZM1.10331 46.7737L22.0662 56.6041V77.573L1.10331 67.7426V46.7737ZM23.1695 56.6041L44.1127 46.7737V67.7426L23.1498 77.573L23.1695 56.6041Z" fill="#F91C1C"/>
<path d="M77.9819 41.7001C77.9819 41.6604 77.9819 41.6208 77.9622 41.601V41.5812C77.9425 41.5613 77.9425 41.5415 77.9228 41.5217C77.9031 41.5019 77.8834 41.4622 77.8637 41.4424L77.8439 41.4226C77.8242 41.4028 77.7848 41.383 77.7651 41.3631C77.7454 41.3433 77.7257 41.3235 77.706 41.3235H77.6863L64.1708 34.9813H64.1511C64.1117 34.9615 64.0723 34.9615 64.0329 34.9417C63.9935 34.9417 63.9738 34.9218 63.9344 34.9218C63.895 34.9218 63.8753 34.9417 63.8359 34.9417C63.7965 34.9417 63.7571 34.9615 63.7177 34.9615H63.6979L50.1824 41.3037L50.1627 41.3235C50.143 41.3433 50.1233 41.3631 50.1036 41.3631C50.0839 41.383 50.0445 41.4028 50.0248 41.4226L50.0051 41.4424C49.9854 41.4622 49.9657 41.5019 49.946 41.5217C49.9263 41.5415 49.9066 41.5613 49.9066 41.5812V41.601C49.8869 41.6406 49.8869 41.6802 49.8869 41.7001C49.8869 41.7199 49.8672 41.7595 49.8672 41.7793V55.3953C49.8672 55.4151 49.8869 55.4349 49.8869 55.4745C49.8869 55.5142 49.9066 55.5538 49.9066 55.5934C49.9263 55.6331 49.946 55.6529 49.9657 55.6925C49.9854 55.7124 50.0051 55.752 50.0248 55.7718C50.0642 55.8115 50.1036 55.8313 50.1233 55.8511C50.143 55.8709 50.1627 55.8907 50.1824 55.8907H50.2021L63.7177 62.2329C63.7965 62.2726 63.8556 62.2924 63.9344 62.2924C64.0132 62.2924 64.092 62.2726 64.1511 62.2329L77.6666 55.8907H77.6863C77.706 55.8709 77.7257 55.8511 77.7454 55.8511C77.7848 55.8313 77.8242 55.8115 77.8439 55.7718C77.8637 55.752 77.8834 55.7124 77.9031 55.6925C77.9228 55.6529 77.9425 55.6331 77.9622 55.5934C77.9819 55.5538 77.9819 55.5142 77.9819 55.4745C77.9819 55.4547 78.0016 55.4349 78.0016 55.3953V41.7793C77.9819 41.7595 77.9819 41.7397 77.9819 41.7001ZM63.9147 36.0515L76.1496 41.7992L63.9147 47.5468L51.6798 41.7992L63.9147 36.0515ZM50.9311 42.6712L63.363 48.4981V60.8852L50.9311 55.0583V42.6712ZM64.4663 48.4981L76.8983 42.6712V55.0583L64.4663 60.8852V48.4981Z" fill="#F91C1C"/>
<g clip-path="url(#clip1_270_1875)">
<path fill-rule="evenodd" clip-rule="evenodd" d="M44.0995 0.102646L58.3045 0.102646L59 0.102066V15.0003H57.6095V1.4873L44.0995 1.48788V0.102646ZM43.9005 29.8979L29.6955 29.8985H29V15.0008H30.391V28.5132L43.9011 28.5126V29.8979H43.9005ZM34.0073 21.1427H32.622L32.6127 25.7938L32.6116 26.4876L33.3054 26.4864L37.9564 26.4771V25.0919L34.9847 25.0983L54.1964 5.88662L54.1906 8.85837H55.5758L55.5845 4.20729L55.5862 3.51352L54.8919 3.51526L50.2408 3.52454V4.90977L53.2125 4.90339L34.0015 24.1151L34.0073 21.1433V21.1427Z" fill="#F91C1C"/>
</g>
</g>
<defs>
<clipPath id="clip0_270_1875">
<rect width="78" height="79" fill="white"/>
</clipPath>
<clipPath id="clip1_270_1875">
<rect width="30" height="30" fill="white" transform="translate(29 -3.05176e-05)"/>
</clipPath>
</defs>
</svg>
