<svg width="78" height="79" viewBox="0 0 78 79" fill="none" xmlns="http://www.w3.org/2000/svg">
<g clip-path="url(#clip0_270_1865)">
<path d="M45.216 45.9215V45.9017C45.216 45.8818 45.1963 45.8422 45.1963 45.8224C45.1963 45.7827 45.1963 45.7431 45.1766 45.7233V45.7035C45.1569 45.6837 45.1569 45.6638 45.1372 45.644C45.1175 45.6044 45.0978 45.5846 45.0781 45.5647L45.0583 45.5449C45.0386 45.5251 44.9992 45.5053 44.9795 45.4855C44.9598 45.4656 44.9401 45.4458 44.9204 45.4458L22.8543 35.1001H22.8346C22.7952 35.0803 22.7557 35.0803 22.7163 35.0605C22.6966 35.0605 22.6572 35.0406 22.6375 35.0406C22.5981 35.0406 22.5784 35.0605 22.539 35.0605C22.4996 35.0605 22.4602 35.0803 22.4208 35.0803H22.4011L0.334933 45.3864H0.315231C0.295529 45.4062 0.275827 45.4062 0.256125 45.426C0.236423 45.4458 0.197019 45.4656 0.177318 45.4855L0.157616 45.5053C0.137914 45.5251 0.118212 45.5647 0.0985097 45.5846C0.0985097 45.5846 0.0985097 45.5846 0.0985097 45.6044C0.0788078 45.6242 0.0591058 45.644 0.0591058 45.6638C0.0591058 45.6638 0.0591058 45.6837 0.0394039 45.6837C0.0197019 45.7233 0.0197019 45.7431 0.0197019 45.7827C0.0197019 45.8224 0 45.8422 0 45.8818C0 45.8818 0 45.8818 0 45.9017V68.0994C0 68.1192 0.0197019 68.1588 0.0197019 68.1786C0.0197019 68.2183 0.0197019 68.2579 0.0394039 68.2976C0.0591058 68.3372 0.0788078 68.357 0.0985097 68.3966C0.118212 68.4363 0.137914 68.4561 0.157616 68.4759C0.197019 68.5156 0.216721 68.5354 0.256125 68.5552C0.275827 68.575 0.295529 68.5948 0.315231 68.5948L22.3814 78.9604C22.4405 79 22.5193 79 22.5981 79C22.6769 79 22.7557 78.9802 22.8149 78.9604L44.881 68.5948C44.9007 68.575 44.9204 68.5552 44.9401 68.5354C44.9795 68.5156 45.0189 68.4957 45.0387 68.4561C45.0583 68.4363 45.0781 68.3966 45.0978 68.357C45.1175 68.3372 45.1372 68.2976 45.1569 68.2777C45.1766 68.2381 45.1766 68.1984 45.1766 68.139C45.1766 68.1192 45.1963 68.0994 45.1963 68.0597L45.216 45.9215ZM22.6178 36.1505L43.3837 45.9017L22.6178 55.6528L1.85198 45.9017L22.6178 36.1505ZM1.10331 46.7737L22.0662 56.6041V77.573L1.10331 67.7426V46.7737ZM23.1695 56.6041L44.1127 46.7737V67.7426L23.1498 77.573L23.1695 56.6041Z" fill="#F91C1C"/>
<path d="M77.9819 41.7001C77.9819 41.6605 77.9819 41.6208 77.9622 41.601V41.5812C77.9425 41.5614 77.9425 41.5415 77.9228 41.5217C77.9031 41.5019 77.8834 41.4623 77.8637 41.4424L77.8439 41.4226C77.8242 41.4028 77.7848 41.383 77.7651 41.3632C77.7454 41.3433 77.7257 41.3235 77.706 41.3235H77.6863L64.1708 34.9813H64.1511C64.1117 34.9615 64.0723 34.9615 64.0329 34.9417C63.9935 34.9417 63.9738 34.9219 63.9344 34.9219C63.895 34.9219 63.8753 34.9417 63.8359 34.9417C63.7965 34.9417 63.7571 34.9615 63.7177 34.9615H63.6979L50.1824 41.3037L50.1627 41.3235C50.143 41.3434 50.1233 41.3632 50.1036 41.3632C50.0839 41.383 50.0445 41.4028 50.0248 41.4226L50.0051 41.4424C49.9854 41.4623 49.9657 41.5019 49.946 41.5217C49.9263 41.5415 49.9066 41.5614 49.9066 41.5812V41.601C49.8869 41.6406 49.8869 41.6803 49.8869 41.7001C49.8869 41.7199 49.8672 41.7596 49.8672 41.7794V55.3953C49.8672 55.4151 49.8869 55.4349 49.8869 55.4746C49.8869 55.5142 49.9066 55.5538 49.9066 55.5935C49.9263 55.6331 49.946 55.6529 49.9657 55.6926C49.9854 55.7124 50.0051 55.752 50.0248 55.7718C50.0642 55.8115 50.1036 55.8313 50.1233 55.8511C50.143 55.8709 50.1627 55.8908 50.1824 55.8908H50.2021L63.7177 62.233C63.7965 62.2726 63.8556 62.2924 63.9344 62.2924C64.0132 62.2924 64.092 62.2726 64.1511 62.233L77.6666 55.8908H77.6863C77.706 55.8709 77.7257 55.8511 77.7454 55.8511C77.7848 55.8313 77.8242 55.8115 77.8439 55.7718C77.8637 55.752 77.8834 55.7124 77.9031 55.6926C77.9228 55.6529 77.9425 55.6331 77.9622 55.5935C77.9819 55.5538 77.9819 55.5142 77.9819 55.4746C77.9819 55.4547 78.0016 55.4349 78.0016 55.3953V41.7794C77.9819 41.7596 77.9819 41.7397 77.9819 41.7001ZM63.9147 36.0516L76.1496 41.7992L63.9147 47.5468L51.6798 41.7992L63.9147 36.0516ZM50.9311 42.6712L63.363 48.4981V60.8852L50.9311 55.0583V42.6712ZM64.4663 48.4981L76.8983 42.6712V55.0583L64.4663 60.8852V48.4981Z" fill="#F91C1C"/>
<g clip-path="url(#clip1_270_1865)">
<path d="M59.5606 15.1143L55.6231 14.3155C55.3081 13.1449 54.843 12.0199 54.2394 10.9686L56.4894 7.62175C56.5552 7.51549 56.5837 7.39036 56.5704 7.26609C56.5572 7.14183 56.5029 7.02551 56.4163 6.9355L53.0638 3.61113C52.9737 3.52444 52.8574 3.47019 52.7332 3.45695C52.6089 3.44371 52.4838 3.47223 52.3775 3.538L49.0025 5.788C47.9424 5.18218 46.8078 4.71702 45.6275 4.40425L44.8288 0.46675C44.8002 0.33986 44.7285 0.226795 44.626 0.1468C44.5234 0.066804 44.3963 0.0248221 44.2663 0.0280001H39.6481C39.5229 0.0312031 39.4024 0.0761007 39.3056 0.155577C39.2088 0.235054 39.1413 0.344564 39.1138 0.46675L38.315 4.40425C37.1444 4.71931 36.0195 5.18442 34.9681 5.788L31.6213 3.538C31.515 3.47223 31.3899 3.44371 31.2656 3.45695C31.1413 3.47019 31.025 3.52444 30.935 3.61113L27.6106 6.9355C27.5239 7.02551 27.4697 7.14183 27.4565 7.26609C27.4432 7.39036 27.4717 7.51549 27.5375 7.62175L29.7875 10.9686C29.1839 12.0199 28.7188 13.1449 28.4038 14.3155L24.4663 15.1143C24.3441 15.1418 24.2346 15.2093 24.1551 15.3061C24.0756 15.4029 24.0307 15.5234 24.0275 15.6486V20.3511C24.0243 20.4812 24.0663 20.6083 24.1463 20.7108C24.2263 20.8134 24.3394 20.885 24.4663 20.9136L28.4038 21.7124C28.7165 22.8927 29.1817 24.0272 29.7875 25.0874L27.5656 28.4624C27.4999 28.5686 27.4713 28.6938 27.4846 28.818C27.4978 28.9423 27.5521 29.0586 27.6388 29.1486L30.9631 32.4786C31.0538 32.5644 31.1705 32.6176 31.2947 32.6299C31.4189 32.6421 31.5437 32.6126 31.6494 32.5461L34.9963 30.2961C36.0464 30.9021 37.1717 31.3674 38.3431 31.6799L39.1419 35.6174C39.1694 35.7396 39.2369 35.8491 39.3337 35.9285C39.4305 36.008 39.5511 36.0529 39.6763 36.0561H44.3788C44.5088 36.0593 44.6359 36.0173 44.7385 35.9373C44.841 35.8573 44.9127 35.7443 44.9413 35.6174L45.74 31.6799C46.9212 31.3697 48.0561 30.9044 49.115 30.2961L52.49 32.5461C52.5957 32.6126 52.7204 32.6421 52.8447 32.6299C52.9689 32.6176 53.0856 32.5644 53.1763 32.4786L56.5006 29.1486C56.5873 29.0586 56.6416 28.9423 56.6548 28.818C56.668 28.6938 56.6395 28.5686 56.5738 28.4624L54.3238 25.0874C54.9296 24.0272 55.3947 22.8927 55.7075 21.7124L59.645 20.9136C59.7719 20.885 59.885 20.8134 59.965 20.7108C60.045 20.6083 60.0869 20.4812 60.0838 20.3511V15.6486C60.0772 15.5109 60.0203 15.3804 59.9239 15.2819C59.8274 15.1834 59.6982 15.1237 59.5606 15.1143ZM58.9081 19.9067L55.0719 20.683C54.9705 20.7058 54.8774 20.7562 54.8029 20.8287C54.7285 20.9012 54.6755 20.9929 54.65 21.0936C54.3354 22.3834 53.8231 23.6168 53.1313 24.7499C53.0819 24.8354 53.0559 24.9324 53.0559 25.0311C53.0559 25.1299 53.0819 25.2269 53.1313 25.3124L55.2913 28.5749L52.5969 31.2692L49.3344 29.1092C49.2489 29.0599 49.1519 29.0339 49.0531 29.0339C48.9544 29.0339 48.8574 29.0599 48.7719 29.1092C47.6353 29.8021 46.3981 30.3145 45.1044 30.628C45.0037 30.6535 44.912 30.7065 44.8395 30.7809C44.767 30.8554 44.7166 30.9485 44.6938 31.0499L43.9175 34.8861H40.0925L39.3163 31.0499C39.2939 30.9492 39.2443 30.8566 39.1729 30.7822C39.1015 30.7078 39.011 30.6544 38.9113 30.628C37.6207 30.3215 36.3854 29.8167 35.2494 29.1318C35.1639 29.0824 35.0669 29.0564 34.9681 29.0564C34.8694 29.0564 34.7724 29.0824 34.6869 29.1318L31.4244 31.2917L28.6963 28.6086L30.8563 25.3461C30.9056 25.2606 30.9316 25.1636 30.9316 25.0649C30.9316 24.9661 30.9056 24.8691 30.8563 24.7836C30.1634 23.647 29.6511 22.4098 29.3375 21.1161C29.312 21.0154 29.2591 20.9237 29.1846 20.8512C29.1101 20.7787 29.017 20.7283 28.9156 20.7055L25.0906 19.9067V16.093L28.9269 15.3167C29.0276 15.2944 29.1202 15.2448 29.1946 15.1734C29.269 15.102 29.3223 15.0114 29.3488 14.9117C29.6623 13.6198 30.1747 12.3845 30.8675 11.2499C30.9169 11.1644 30.9429 11.0674 30.9429 10.9686C30.9429 10.8699 30.9169 10.7729 30.8675 10.6874L28.7075 7.42487L31.4019 4.7305L34.6644 6.8905C34.7499 6.93987 34.8469 6.96586 34.9456 6.96586C35.0444 6.96586 35.1414 6.93987 35.2269 6.8905C36.365 6.19661 37.6042 5.68422 38.9 5.37175C38.9997 5.34532 39.0902 5.29199 39.1616 5.21758C39.2331 5.14318 39.2827 5.05057 39.305 4.94987L40.0813 1.11363H43.895L44.6713 4.94987C44.6941 5.05126 44.7445 5.14435 44.817 5.21882C44.8895 5.29329 44.9812 5.34622 45.0819 5.37175C46.3743 5.67826 47.6114 6.18299 48.7494 6.868C48.8349 6.91737 48.9319 6.94336 49.0306 6.94336C49.1294 6.94336 49.2264 6.91737 49.3119 6.868L52.5744 4.708L55.2688 7.40237L53.1088 10.6649C53.0594 10.7504 53.0334 10.8474 53.0334 10.9461C53.0334 11.0449 53.0594 11.1419 53.1088 11.2274C53.8027 12.3655 54.315 13.6047 54.6275 14.9005C54.6539 15.0002 54.7073 15.0907 54.7817 15.1621C54.8561 15.2336 54.9487 15.2832 55.0494 15.3055L58.8856 16.0817L58.9081 19.9067Z" fill="#F91C1C"/>
<path d="M41.9998 8.24625C40.0707 8.24625 38.185 8.81829 36.581 9.89005C34.977 10.9618 33.7268 12.4851 32.9886 14.2674C32.2503 16.0497 32.0572 18.0108 32.4335 19.9029C32.8099 21.7949 33.7388 23.5329 35.1029 24.8969C36.467 26.261 38.2049 27.19 40.097 27.5663C41.989 27.9427 43.9502 27.7495 45.7324 27.0113C47.5147 26.273 49.038 25.0229 50.1098 23.4189C51.1816 21.8149 51.7536 19.9291 51.7536 18C51.7506 15.4141 50.722 12.9349 48.8935 11.1063C47.065 9.2778 44.5858 8.24922 41.9998 8.24625ZM41.9998 26.6625C40.2866 26.6625 38.6118 26.1544 37.1872 25.2026C35.7627 24.2508 34.6524 22.8979 33.9967 21.315C33.3411 19.7321 33.1696 17.9904 33.5038 16.31C33.838 14.6297 34.6631 13.0862 35.8745 11.8747C37.086 10.6632 38.6295 9.83819 40.3099 9.50394C41.9902 9.1697 43.732 9.34125 45.3148 9.99689C46.8977 10.6525 48.2506 11.7628 49.2025 13.1874C50.1543 14.6119 50.6623 16.2867 50.6623 18C50.6594 20.2965 49.7458 22.4981 48.1219 24.122C46.498 25.7459 44.2964 26.6595 41.9998 26.6625Z" fill="#F91C1C"/>
</g>
</g>
<defs>
<clipPath id="clip0_270_1865">
<rect width="78" height="79" fill="white"/>
</clipPath>
<clipPath id="clip1_270_1865">
<rect width="36" height="36" fill="white" transform="translate(24)"/>
</clipPath>
</defs>
</svg>
