<svg width="78" height="79" viewBox="0 0 78 79" fill="none" xmlns="http://www.w3.org/2000/svg">
<g id="Volume" clip-path="url(#clip0_270_1885)">
<g id="Group">
<path id="Vector" d="M45.216 45.9215V45.9017C45.216 45.8818 45.1963 45.8422 45.1963 45.8224C45.1963 45.7827 45.1963 45.7431 45.1766 45.7233V45.7035C45.1569 45.6837 45.1569 45.6638 45.1372 45.644C45.1175 45.6044 45.0978 45.5846 45.0781 45.5647L45.0583 45.5449C45.0386 45.5251 44.9992 45.5053 44.9795 45.4855C44.9598 45.4656 44.9401 45.4458 44.9204 45.4458L22.8543 35.1001H22.8346C22.7952 35.0803 22.7557 35.0803 22.7163 35.0605C22.6966 35.0605 22.6572 35.0406 22.6375 35.0406C22.5981 35.0406 22.5784 35.0605 22.539 35.0605C22.4996 35.0605 22.4602 35.0803 22.4208 35.0803H22.4011L0.334933 45.3864H0.315231C0.295529 45.4062 0.275827 45.4062 0.256125 45.426C0.236423 45.4458 0.197019 45.4656 0.177318 45.4855L0.157616 45.5053C0.137914 45.5251 0.118212 45.5647 0.0985097 45.5846C0.0985097 45.5846 0.0985097 45.5846 0.0985097 45.6044C0.0788078 45.6242 0.0591058 45.644 0.0591058 45.6638C0.0591058 45.6638 0.0591058 45.6837 0.0394039 45.6837C0.0197019 45.7233 0.0197019 45.7431 0.0197019 45.7827C0.0197019 45.8224 0 45.8422 0 45.8818C0 45.8818 0 45.8818 0 45.9017V68.0994C0 68.1192 0.0197019 68.1588 0.0197019 68.1786C0.0197019 68.2183 0.0197019 68.2579 0.0394039 68.2976C0.0591058 68.3372 0.0788078 68.357 0.0985097 68.3966C0.118212 68.4363 0.137914 68.4561 0.157616 68.4759C0.197019 68.5156 0.216721 68.5354 0.256125 68.5552C0.275827 68.575 0.295529 68.5948 0.315231 68.5948L22.3814 78.9604C22.4405 79 22.5193 79 22.5981 79C22.6769 79 22.7557 78.9802 22.8149 78.9604L44.881 68.5948C44.9007 68.575 44.9204 68.5552 44.9401 68.5354C44.9795 68.5156 45.0189 68.4957 45.0387 68.4561C45.0583 68.4363 45.0781 68.3966 45.0978 68.357C45.1175 68.3372 45.1372 68.2976 45.1569 68.2777C45.1766 68.2381 45.1766 68.1984 45.1766 68.139C45.1766 68.1192 45.1963 68.0994 45.1963 68.0597L45.216 45.9215ZM22.6178 36.1505L43.3837 45.9017L22.6178 55.6528L1.85198 45.9017L22.6178 36.1505ZM1.10331 46.7737L22.0662 56.6041V77.573L1.10331 67.7426V46.7737ZM23.1695 56.6041L44.1127 46.7737V67.7426L23.1498 77.573L23.1695 56.6041Z" fill="#F91C1C"/>
<path id="Vector_2" d="M77.9819 41.7001C77.9819 41.6605 77.9819 41.6208 77.9622 41.601V41.5812C77.9425 41.5614 77.9425 41.5415 77.9228 41.5217C77.9031 41.5019 77.8834 41.4623 77.8637 41.4424L77.8439 41.4226C77.8242 41.4028 77.7848 41.383 77.7651 41.3632C77.7454 41.3433 77.7257 41.3235 77.706 41.3235H77.6863L64.1708 34.9813H64.1511C64.1117 34.9615 64.0723 34.9615 64.0329 34.9417C63.9935 34.9417 63.9738 34.9219 63.9344 34.9219C63.895 34.9219 63.8753 34.9417 63.8359 34.9417C63.7965 34.9417 63.7571 34.9615 63.7177 34.9615H63.6979L50.1824 41.3037L50.1627 41.3235C50.143 41.3434 50.1233 41.3632 50.1036 41.3632C50.0839 41.383 50.0445 41.4028 50.0248 41.4226L50.0051 41.4424C49.9854 41.4623 49.9657 41.5019 49.946 41.5217C49.9263 41.5415 49.9066 41.5614 49.9066 41.5812V41.601C49.8869 41.6406 49.8869 41.6803 49.8869 41.7001C49.8869 41.7199 49.8672 41.7596 49.8672 41.7794V55.3953C49.8672 55.4151 49.8869 55.4349 49.8869 55.4746C49.8869 55.5142 49.9066 55.5538 49.9066 55.5935C49.9263 55.6331 49.946 55.6529 49.9657 55.6926C49.9854 55.7124 50.0051 55.752 50.0248 55.7718C50.0642 55.8115 50.1036 55.8313 50.1233 55.8511C50.143 55.8709 50.1627 55.8908 50.1824 55.8908H50.2021L63.7177 62.233C63.7965 62.2726 63.8556 62.2924 63.9344 62.2924C64.0132 62.2924 64.092 62.2726 64.1511 62.233L77.6666 55.8908H77.6863C77.706 55.8709 77.7257 55.8511 77.7454 55.8511C77.7848 55.8313 77.8242 55.8115 77.8439 55.7718C77.8637 55.752 77.8834 55.7124 77.9031 55.6926C77.9228 55.6529 77.9425 55.6331 77.9622 55.5935C77.9819 55.5538 77.9819 55.5142 77.9819 55.4746C77.9819 55.4547 78.0016 55.4349 78.0016 55.3953V41.7794C77.9819 41.7596 77.9819 41.7397 77.9819 41.7001ZM63.9147 36.0516L76.1496 41.7992L63.9147 47.5468L51.6798 41.7992L63.9147 36.0516ZM50.9311 42.6712L63.363 48.4981V60.8852L50.9311 55.0583V42.6712ZM64.4663 48.4981L76.8983 42.6712V55.0583L64.4663 60.8852V48.4981Z" fill="#F91C1C"/>
<path id="Vector_3" d="M23.5822 27.3111C23.6019 27.3507 23.6216 27.3705 23.6413 27.4102C23.661 27.43 23.6807 27.4696 23.7004 27.4895C23.7201 27.5291 23.7595 27.5489 23.7989 27.5687C23.8186 27.5886 23.8383 27.6084 23.858 27.6084L41.8459 36.0514C41.9247 36.0911 41.9838 36.1109 42.0626 36.1109C42.1414 36.1109 42.2202 36.0911 42.2794 36.0514L60.2475 27.6084H60.2672C60.2869 27.5886 60.3066 27.5687 60.3263 27.5687C60.3657 27.5489 60.4051 27.5291 60.4248 27.4895C60.4445 27.4696 60.4642 27.43 60.4839 27.4102C60.5036 27.3705 60.5233 27.3507 60.543 27.3111C60.5628 27.2715 60.5628 27.2318 60.5628 27.1922C60.5628 27.1724 60.5825 27.1525 60.5825 27.1129V9.01781V8.99799C60.5825 8.97817 60.5628 8.93853 60.5628 8.91872C60.5628 8.87908 60.5628 8.83944 60.543 8.81962V8.7998C60.5233 8.77998 60.5036 8.76016 60.5036 8.74034C60.4839 8.7007 60.4642 8.68088 60.4445 8.66106L60.4248 8.64124C60.4051 8.62142 60.3657 8.60161 60.346 8.58179C60.3263 8.56197 60.3066 8.54215 60.2869 8.54215L42.3188 0.0396387H42.299C42.2596 0.0198194 42.2202 0.0198194 42.1808 0.0198194C42.1414 0.0198194 42.1217 0 42.0823 0C42.0429 0 42.0232 0.0198194 41.9838 0.0198194C41.9444 0.0198194 41.905 0.0396387 41.8656 0.0396387H41.8459L23.858 8.48269C23.8383 8.50251 23.8186 8.52233 23.7989 8.52233C23.7792 8.54215 23.7398 8.56197 23.7201 8.58179L23.7004 8.60161C23.6807 8.62142 23.661 8.66106 23.6413 8.68088C23.6216 8.7007 23.6019 8.72052 23.6019 8.74034V8.76016C23.5822 8.7998 23.5822 8.83944 23.5822 8.85926C23.5822 8.8989 23.5625 8.91872 23.5625 8.95835C23.5625 8.95835 23.5625 8.95835 23.5625 8.97817V27.0733C23.5625 27.0931 23.5822 27.1327 23.5822 27.1525C23.5625 27.2318 23.5625 27.2715 23.5822 27.3111ZM42.0823 1.16934L58.7699 8.99799L42.0823 16.8266L25.3948 8.99799L42.0823 1.16934ZM24.6461 9.87004L41.5307 17.7978V34.6839L24.6461 26.7561V9.87004ZM42.634 17.7978L59.5186 9.87004V26.7561L42.634 34.6839V17.7978Z" fill="#F91C1C"/>
</g>
</g>
<defs>
<clipPath id="clip0_270_1885">
<rect width="78" height="79" fill="white"/>
</clipPath>
</defs>
</svg>
