<svg width="27" height="26" viewBox="0 0 27 26" fill="none" xmlns="http://www.w3.org/2000/svg">
<g id="Hove">
<path id="Vector" d="M25.4684 6.98763C25.3349 7.66189 25.1808 8.32083 25.0006 8.97402C24.8671 9.46918 24.7233 9.95955 24.5636 10.4442C24.3834 10.992 24.1882 11.5398 23.9781 12.0781C22.8996 14.8546 21.4298 17.4214 19.6426 19.7181V19.7238C19.468 19.9508 19.2831 20.1721 19.1029 20.3933C18.918 20.6203 18.7331 20.8358 18.5426 21.057C18.3782 21.2467 18.2083 21.4363 18.0393 21.6211C17.8647 21.806 17.69 21.9956 17.5154 22.1747C17.0429 22.6594 16.5602 23.1287 16.0615 23.5759C15.6759 23.9236 15.2856 24.2607 14.885 24.5825C14.2733 25.0834 13.6421 25.5518 12.9941 26C12.5113 25.6629 12.0332 25.3152 11.5663 24.9513C11.4123 24.8296 11.2582 24.7089 11.1041 24.5825C11.7568 24.1659 12.3834 23.7186 12.995 23.2493C13.3956 22.9381 13.7915 22.6172 14.1716 22.2849C14.6702 21.8529 15.1576 21.4047 15.6255 20.9364C15.9747 20.5887 16.3193 20.2247 16.6526 19.856C17.0327 19.4346 17.3978 19.0027 17.7517 18.5544C19.5445 16.2989 21.004 13.7542 22.0461 10.993C22.2515 10.4604 22.4364 9.92315 22.6064 9.36957C22.7558 8.89548 22.8893 8.41086 23.0126 7.92624C22.5709 7.71553 22.119 7.52015 21.6567 7.33626C21.4102 7.23569 21.1581 7.14088 20.9013 7.0566C20.8555 7.03553 20.8033 7.01924 20.7575 7.00392C20.6548 6.96657 20.5465 6.93017 20.4438 6.89856C20.243 6.82961 20.0376 6.7664 19.8377 6.70318C19.3755 6.56048 18.9077 6.43405 18.4305 6.32391C17.8908 6.19749 17.3464 6.08639 16.7918 6.00211C15.5741 5.80194 14.3256 5.70137 13.052 5.70137C11.7419 5.70137 10.4579 5.80672 9.20387 6.01743C8.65387 6.10746 8.10948 6.2176 7.56976 6.34977C7.54922 6.27603 7.53334 6.20707 7.5184 6.13332C7.50346 6.06436 7.48758 5.99061 7.47264 5.92261C7.43156 5.7483 7.39514 5.5692 7.35966 5.39585C7.29803 5.06925 7.24107 4.74745 7.19531 4.42086C7.73504 4.28869 8.27943 4.17855 8.82942 4.08852C10.2058 3.85674 11.6139 3.73511 13.052 3.73511C14.4545 3.73511 15.8262 3.8462 17.1671 4.06745C17.7171 4.15747 18.2615 4.26762 18.8059 4.39404C19.2784 4.50514 19.7509 4.62582 20.2187 4.76852C20.8406 4.95337 21.4569 5.15833 22.0583 5.3901C22.5261 5.56441 22.9883 5.75884 23.4402 5.95901C24.1331 6.27698 24.811 6.6189 25.4684 6.98763Z" fill="#F91C1C"/>
<path id="Vector_2" d="M11.8207 22.2849C11.2091 22.7437 10.5825 23.1756 9.9298 23.576C9.43116 23.1278 8.94373 22.6594 8.47591 22.1748C8.12667 21.8109 7.78211 21.4373 7.44875 21.0581C7.0687 20.6204 6.70359 20.1779 6.34969 19.7249C4.57178 17.4378 3.11322 14.8873 2.0347 12.1375C1.82367 11.6002 1.62851 11.0572 1.44923 10.5046C1.28955 10.02 1.14108 9.52958 1.00755 9.03442C0.827328 8.38123 0.668586 7.7223 0.535056 7.04804C0.43234 6.5366 0.339895 6.02612 0.262391 5.50414C0.143802 4.71878 0.0569605 3.92385 0 3.12221C0.693797 2.7688 1.40721 2.4422 2.13182 2.14722C2.16823 2.93736 2.23453 3.71793 2.33258 4.48701C2.39421 5.00324 2.47638 5.50893 2.56416 6.00984C2.68742 6.67356 2.82655 7.32675 2.99089 7.97514C3.11975 8.45977 3.25329 8.94439 3.40736 9.42423C3.57731 9.97206 3.76219 10.5094 3.96763 11.0419C5.01066 13.782 6.45895 16.3114 8.24153 18.5554C8.59636 18.9979 8.96054 19.4356 9.34059 19.857C9.67488 20.2258 10.0185 20.5897 10.3677 20.9374C10.7683 20.6472 11.1643 20.3417 11.5443 20.0313C12.0476 19.6147 12.5304 19.1828 12.9982 18.7355C13.353 18.3926 13.6967 18.0402 14.0254 17.6762C14.4054 17.2654 14.7705 16.8334 15.1244 16.3909C16.7016 14.4151 17.9855 12.1806 18.9006 9.75657C19.1014 9.2298 19.2863 8.6925 19.4506 8.14467C20.0669 8.32951 20.6729 8.54501 21.264 8.78254C21.0997 9.33037 20.9148 9.86767 20.714 10.4002C19.7177 13.056 18.3151 15.5117 16.5783 17.6772C16.2235 18.1197 15.8593 18.5468 15.4792 18.9625C15.145 19.3312 14.8013 19.6846 14.4521 20.0323C13.9843 20.4911 13.4968 20.9336 12.9982 21.355C12.6172 21.6739 12.2222 21.9842 11.8207 22.2849Z" fill="#F91C1C"/>
<path id="Vector_3" d="M7.57342 6.35073H7.56785C7.55208 6.28177 7.53725 6.20802 7.52148 6.13428C7.53725 6.20802 7.55302 6.27698 7.57342 6.35073Z" fill="#F91C1C"/>
<path id="Vector_4" d="M26.0055 3.06289C25.9486 3.86932 25.8617 4.65947 25.7487 5.44483C25.0708 5.08088 24.3826 4.7495 23.673 4.43823C23.2154 4.24284 22.7485 4.05321 22.276 3.87986C21.6644 3.65862 21.0434 3.4527 20.4113 3.2736C19.9434 3.13664 19.4663 3.015 18.9882 2.90486C18.4438 2.78323 17.8938 2.67788 17.3391 2.5888C15.9469 2.36182 14.5135 2.24593 13.0596 2.24593C11.5646 2.24593 10.1005 2.36757 8.67273 2.60413C8.11807 2.69895 7.56808 2.8043 7.02368 2.93072C6.54559 3.04182 6.06842 3.16825 5.6006 3.30521C5.64729 3.80611 5.70892 4.30606 5.78549 4.80122C5.88821 5.45441 6.01707 6.09706 6.17114 6.73492C6.28413 7.21955 6.41766 7.69938 6.56146 8.17346C6.72581 8.7213 6.9107 9.2586 7.11146 9.78537C8.03123 12.1989 9.3049 14.4218 10.8774 16.3881C11.2322 16.8306 11.5964 17.2625 11.9764 17.6734C11.5086 18.1264 11.0259 18.5536 10.5225 18.9587C10.1425 18.5421 9.77739 18.1159 9.42349 17.6734C7.69693 15.5185 6.3 13.0791 5.30366 10.4338C5.1029 9.907 4.91801 9.3697 4.74899 8.82091C4.60519 8.34682 4.47166 7.8622 4.35307 7.37757C4.1934 6.73971 4.05987 6.08652 3.94688 5.43333C3.86471 4.93243 3.79281 4.42674 3.73585 3.92104C3.64807 3.15676 3.59671 2.38193 3.57617 1.60232C4.19807 1.38108 4.83491 1.1857 5.48201 1.01235C5.96011 0.880176 6.44754 0.759494 6.93591 0.654141C7.4859 0.532507 8.04524 0.4329 8.6055 0.342872C10.0594 0.115884 11.5441 0 13.0596 0C14.5341 0 15.9823 0.111097 17.4008 0.326591C17.961 0.410874 18.5204 0.511438 19.0704 0.632115C19.5587 0.732679 20.0462 0.848568 20.5242 0.97978C21.1714 1.14834 21.8082 1.34373 22.4357 1.55922C22.9185 1.72778 23.3965 1.90688 23.8737 2.09652C24.5974 2.39342 25.3071 2.71523 26.0055 3.06289Z" fill="#F91C1C"/>
<path id="Vector_5" d="M7.57342 6.35073H7.56785C7.55208 6.28177 7.53725 6.20802 7.52148 6.13428C7.53725 6.20802 7.55302 6.27698 7.57342 6.35073Z" fill="#F91C1C"/>
<path id="Vector_6" d="M11.1592 12.096C11.1275 12.6637 11.1013 13.2313 11.0864 13.7999C11.0808 14.0035 11.0808 14.207 11.0808 14.4106C10.1965 13.152 9.4373 11.7969 8.81445 10.3606C9.55776 10.8585 10.3011 11.3516 11.05 11.839C11.149 11.9087 11.1704 11.9737 11.1592 12.096Z" fill="#F91C1C"/>
<path id="Vector_7" d="M14.9322 14.4438C14.9378 14.2115 14.9379 13.9792 14.9379 13.747C14.9379 13.158 14.891 12.5633 14.8535 11.9744C14.8535 11.8829 14.8901 11.8559 14.9538 11.8173C15.7053 11.3094 16.4718 10.7966 17.2336 10.2935C16.603 11.7643 15.8365 13.1523 14.9322 14.4438Z" fill="#F91C1C"/>
<path id="Vector_8" d="M17.6169 7.76479C17.1773 8.04932 16.7275 8.3233 16.2721 8.57525C15.6972 8.89809 15.1056 9.18261 14.4934 9.41828C14.3627 9.47192 14.2321 9.52078 14.1014 9.55814C14.0016 9.58497 13.9446 9.64915 13.9129 9.74591C13.8186 10.0688 13.814 10.3964 13.8289 10.7288C13.8765 11.6207 14.0389 12.4905 14.2321 13.3546C14.2377 13.4035 14.2377 13.4677 14.2115 13.5003C13.8186 13.9505 13.4164 14.4017 13.003 14.8692V14.9123C12.8145 14.6977 12.6418 14.5042 12.4692 14.305C12.2499 14.0636 12.0297 13.8221 11.8206 13.5692C11.7842 13.5319 11.7739 13.4572 11.7842 13.4035C11.899 12.6841 12.0353 11.9589 12.1454 11.2337C12.2079 10.8093 12.2079 10.3743 12.1398 9.93942C12.0978 9.74591 12.0194 9.63382 11.815 9.56389C10.6121 9.15579 9.50809 8.52735 8.44608 7.83951C8.41528 7.82419 8.38915 7.80215 8.35742 7.78108C9.86924 7.45345 11.4389 7.28101 13.0394 7.28101C14.6035 7.28101 16.1414 7.4477 17.6169 7.76479Z" fill="#F91C1C"/>
</g>
</svg>
