<svg width="37" height="29" viewBox="0 0 37 29" fill="none" xmlns="http://www.w3.org/2000/svg">
<g id="cart" clip-path="url(#clip0_1582_683)">
<g id="Group">
<path id="Vector" fill-rule="evenodd" clip-rule="evenodd" d="M5.25237 26.3745H7.47003C7.82019 25.5391 8.63722 24.823 9.6877 24.823C10.6215 24.823 11.5552 25.5391 11.7886 26.3745H30.4637C30.6972 25.5391 31.5142 24.823 32.5647 24.823C33.6151 24.823 34.4322 25.5391 34.7823 26.3745H37V19.856C37 19.3037 36.5523 18.856 36 18.856H35.6656C35.1133 18.856 34.6656 19.3037 34.6656 19.856V23.9877H7.58675V0.999999C7.58675 0.447715 7.13904 0 6.58675 0H1C0.447716 0 0 0.447715 0 1V1.38683C0 1.93912 0.447715 2.38683 1 2.38683H5.25237V26.3745ZM32.5647 25.1811C31.5142 25.1811 30.6972 26.1358 30.6972 27.0905C30.6972 28.1646 31.5142 29 32.5647 29C33.6151 29 34.4322 28.1646 34.4322 27.0905C34.4322 26.1358 33.6151 25.1811 32.5647 25.1811ZM9.6877 25.1811C8.63722 25.1811 7.82019 26.1358 7.82019 27.0905C7.82019 28.1646 8.63722 29 9.6877 29C10.7382 29 11.5552 28.1646 11.5552 27.0905C11.5552 26.1358 10.7382 25.1811 9.6877 25.1811Z" fill="#8E949B"/>
</g>
<g id="Group_2">
<g id="Group_3">
<g id="Group_4">
<g id="Group_5">
<path id="Vector_2" d="M33.8136 7.68543V9.40395C33.8136 9.86938 33.4401 10.2632 32.9733 10.2632H29.5884V8.96239H27.0439V10.2513H25.1414H17.9398H16.0373V8.96239H13.4928V10.2513H10.108C9.64108 10.2513 9.26758 9.86938 9.26758 9.39202V7.68543C9.26758 7.22 9.64108 6.82617 10.108 6.82617H32.9733C33.4401 6.82617 33.8136 7.20806 33.8136 7.68543Z" fill="#8E949B"/>
</g>
<g id="Group_6">
<path id="Vector_3" d="M32.553 12.8174C32.3196 15.24 32.0978 17.6627 31.8644 20.0853C31.771 21.052 30.9656 21.8038 29.9968 21.8038C24.3593 21.8038 18.7218 21.8038 13.0842 21.8038C12.1155 21.8038 11.3101 21.0639 11.2167 20.0853C10.9833 17.6627 10.7615 15.24 10.5281 12.8174H14.765H15.2785L15.7688 15.4429C15.9905 16.6482 17.041 17.5314 18.2549 17.5314H24.8262C26.0401 17.5314 27.0905 16.6602 27.3123 15.4429L27.8025 12.8174H28.3278C28.3161 12.8174 32.553 12.8174 32.553 12.8174Z" fill="#8E949B"/>
</g>
<g id="Group_7">
<path id="Vector_4" d="M25.7482 12.8174L25.328 15.061C25.2813 15.2997 25.0712 15.4787 24.8261 15.4787H18.2548C18.0097 15.4787 17.7996 15.2997 17.753 15.061L17.3328 12.8174H17.9397H25.1413H25.7482Z" fill="#8E949B"/>
</g>
</g>
<g id="Group_8">
<g id="Group_9">
<path id="Vector_5" d="M32.9732 10.4539V10.0481C33.335 10.0481 33.6151 9.7498 33.6151 9.39177V7.68519C33.6151 7.32716 33.3233 7.02881 32.9732 7.02881H10.1079C9.75774 7.02881 9.46594 7.32716 9.46594 7.68519V9.40371C9.46594 9.76173 9.75774 10.0601 10.1079 10.0601V10.4658C9.53597 10.4658 9.06909 9.98848 9.06909 9.40371V7.68519C9.06909 7.10041 9.53597 6.62305 10.1079 6.62305H32.9732C33.5568 6.62305 34.012 7.10041 34.012 7.68519V9.40371C34.012 9.97655 33.5568 10.4539 32.9732 10.4539Z" fill="#8E949B"/>
</g>
<g id="Group_10">
<path id="Vector_6" d="M32.9732 13.0195H10.1079C9.53597 13.0195 9.06909 12.5421 9.06909 11.9573V11.0981C9.06909 10.5133 9.53597 10.0479 10.1079 10.0479H13.4928V10.4536H10.1079C9.74606 10.4536 9.46594 10.752 9.46594 11.0981V11.9573C9.46594 12.3153 9.75774 12.6137 10.1079 12.6137H32.9732C33.335 12.6137 33.6151 12.3153 33.6151 11.9573V11.0981C33.6151 10.74 33.3233 10.4536 32.9732 10.4536H29.5883V10.0479H32.9732C33.5451 10.0479 34.012 10.5252 34.012 11.0981V11.9573C34.012 12.5421 33.5568 13.0195 32.9732 13.0195Z" fill="#8E949B"/>
</g>
<g id="Group_11">
<path id="Vector_7" d="M27.0437 10.0479H16.0371V10.4536H27.0437V10.0479Z" fill="#8E949B"/>
</g>
<g id="Group_12">
<path id="Vector_8" d="M18.1498 10.251H17.7529V12.8168H18.1498V10.251Z" fill="#8E949B"/>
</g>
<g id="Group_13">
<path id="Vector_9" d="M16.0373 11.7304H13.4929C13.3878 11.7304 13.2944 11.6349 13.2944 11.5275V8.96167C13.2944 8.85426 13.3878 8.75879 13.4929 8.75879H16.0373C16.1424 8.75879 16.2358 8.85426 16.2358 8.96167V11.5275C16.2358 11.6469 16.1541 11.7304 16.0373 11.7304ZM13.703 11.3246H15.8506V9.16455H13.703V11.3246Z" fill="#8E949B"/>
</g>
<g id="Group_14">
<path id="Vector_10" d="M14.975 11.5283H14.5781V12.8172H14.975V11.5283Z" fill="#8E949B"/>
</g>
<g id="Group_15">
<path id="Vector_11" d="M29.9969 22.0059H13.0959C12.0221 22.0059 11.135 21.1944 11.0417 20.1084C10.8082 17.6858 10.5865 15.2631 10.353 12.8405L10.7499 12.8047C10.9833 15.2273 11.2051 17.65 11.4385 20.0726C11.5085 20.9438 12.2322 21.6002 13.0959 21.6002H30.0085C30.8723 21.6002 31.5959 20.9438 31.6776 20.0726C31.9111 17.65 32.1328 15.2273 32.3663 12.8047L32.7631 12.8405C32.5297 15.2631 32.3079 17.6858 32.0745 20.1084C31.9578 21.1944 31.0707 22.0059 29.9969 22.0059Z" fill="#8E949B"/>
</g>
<g id="Group_16">
<path id="Vector_12" d="M24.8262 17.7222H18.2666C16.9594 17.7222 15.8272 16.7794 15.5937 15.4667L15.1035 12.8411L15.4887 12.7695L15.9789 15.395C16.189 16.5049 17.1461 17.3164 18.2666 17.3164H24.8379C25.9584 17.3164 26.9272 16.5049 27.1256 15.395L27.6158 12.7695L28.001 12.8411L27.5108 15.4667C27.2657 16.7794 26.1335 17.7222 24.8262 17.7222Z" fill="#8E949B"/>
</g>
<g id="Group_17">
<path id="Vector_13" d="M24.8262 15.693H18.2665C17.9281 15.693 17.6363 15.4424 17.5779 15.1082L17.1577 12.8646L17.5429 12.793L17.9631 15.0366C17.9981 15.1798 18.1265 15.2872 18.2665 15.2872H24.8378C24.9896 15.2872 25.118 15.1798 25.1413 15.0366L25.5615 12.793L25.9467 12.8646L25.5265 15.1082C25.4565 15.4424 25.1647 15.693 24.8262 15.693Z" fill="#8E949B"/>
</g>
<g id="Group_18">
<path id="Vector_14" d="M25.3397 10.251H24.9429V12.8168H25.3397V10.251Z" fill="#8E949B"/>
</g>
<g id="Group_19">
<path id="Vector_15" d="M29.5884 11.7304H27.0439C26.9388 11.7304 26.8455 11.6349 26.8455 11.5275V8.96167C26.8455 8.85426 26.9388 8.75879 27.0439 8.75879H29.5884C29.6934 8.75879 29.7868 8.85426 29.7868 8.96167V11.5275C29.7868 11.6469 29.6934 11.7304 29.5884 11.7304ZM27.2423 11.3246H29.3899V9.16455H27.2423V11.3246Z" fill="#8E949B"/>
</g>
<g id="Group_20">
<path id="Vector_16" d="M28.5145 11.5283H28.1177V12.8172H28.5145V11.5283Z" fill="#8E949B"/>
</g>
</g>
</g>
</g>
</g>
<defs>
<clipPath id="clip0_1582_683">
<rect width="37" height="29" fill="white"/>
</clipPath>
</defs>
</svg>
