<svg width="32" height="26" viewBox="0 0 32 26" fill="none" xmlns="http://www.w3.org/2000/svg">
<g id="case223 2" clip-path="url(#clip0_270_46001)">
<g id="Object">
<path id="Vector" d="M2.79012 4.91284H5.3757V25.1224H2.79012C1.68231 25.1224 0.783203 24.2186 0.783203 23.105V6.9302C0.783203 5.81663 1.68231 4.91284 2.79012 4.91284Z" fill="#8E949B"/>
<path id="Vector_2" d="M29.1874 25.1223H26.6018L26.6018 4.9128H29.1874C30.2952 4.9128 31.1943 5.81659 31.1943 6.93016L31.1943 23.105C31.1943 24.2185 30.2952 25.1223 29.1874 25.1223Z" fill="#8E949B"/>
<path id="Vector_3" d="M20.5829 0.501709H11.4148C10.5984 0.501709 9.93652 1.16698 9.93652 1.98767V4.91292H11.7113V2.82426C11.7113 2.40417 12.0501 2.06359 12.468 2.06359H19.5496C19.9676 2.06359 20.3064 2.40417 20.3064 2.82426V4.91292H22.0811V2.00768C22.0811 1.1757 21.4101 0.501709 20.5829 0.501709Z" fill="#8E949B"/>
<path id="Vector_4" d="M17.8994 0H14.1458C13.7794 0 13.4824 0.298542 13.4824 0.666811V2.04044C13.4824 2.40871 13.7794 2.70725 14.1458 2.70725H17.8994C18.2657 2.70725 18.5627 2.40871 18.5627 2.04044V0.666811C18.5627 0.298542 18.2657 0 17.8994 0Z" fill="#8E949B"/>
<path id="Vector_5" d="M9.22704 24.4956H8.39427V25.1224H5.35506V24.4956H4.38451C4.20132 24.4956 4.02834 24.5844 3.92322 24.7352C3.49867 25.345 3.92322 26.0001 4.49932 26.0001H9.25051C9.67506 26.0001 9.97358 25.8518 10.3333 25.0994C10.5083 24.7331 9.63118 24.4951 9.22704 24.4951V24.4956Z" fill="#8E949B"/>
<path id="Vector_6" d="M27.507 24.4956H26.6508V25.1224H23.6115V24.4956H22.7553C22.342 24.4956 21.6041 24.7598 21.8057 25.1224C22.2935 26.0001 22.342 26.0001 22.7553 26.0001H27.5065C27.9198 26.0001 28.2551 25.6631 28.2551 25.2476C28.2551 24.8321 27.9198 24.4951 27.5065 24.4951L27.507 24.4956Z" fill="#8E949B"/>
<path id="Vector_7" d="M6.5772 3.97827H7.21198C7.7442 3.97827 8.17589 4.41221 8.17589 4.9472H5.61328C5.61328 4.41221 6.04498 3.97827 6.5772 3.97827Z" fill="#8E949B"/>
<path id="Vector_8" d="M24.8223 3.97827H25.4571C25.9893 3.97827 26.421 4.41221 26.421 4.9472H23.8584C23.8584 4.41221 24.2901 3.97827 24.8223 3.97827Z" fill="#8E949B"/>
<path id="Vector_9" d="M20.3087 4.91284V4.9431C20.3087 5.39859 19.9413 5.7679 19.4881 5.7679H12.5315C12.0784 5.7679 11.711 5.39859 11.711 4.9431V4.91284H8.36816V25.1224H23.6765V4.91284H20.3087Z" fill="#8E949B"/>
<path id="Vector_10" opacity="0.2" d="M29.9446 3.71558H20.2973V4.26852C20.2973 4.744 19.9141 5.12922 19.4411 5.12922H12.5666C12.0936 5.12922 11.7104 4.744 11.7104 4.26852V3.71558H2.0554C0.92003 3.71558 0 4.6409 0 5.78166V22.7228C0 24.5329 1.45939 25.9999 3.26016 25.9999H10.1627L10.3413 25.6275C10.4142 25.4752 10.5673 25.3787 10.7357 25.3787H21.3949C21.5541 25.3787 21.7006 25.4654 21.7776 25.6054L21.995 25.9999H28.6715C30.5095 25.9999 31.9995 24.5021 31.9995 22.6546V5.78166C31.9995 4.64039 31.0795 3.71558 29.9441 3.71558H29.9446ZM2.82643 4.7358C2.61823 4.7358 2.44933 4.56602 2.44933 4.35674C2.44933 4.14746 2.61823 3.97768 2.82643 3.97768C3.03462 3.97768 3.20352 4.14746 3.20352 4.35674C3.20352 4.56602 3.03462 4.7358 2.82643 4.7358ZM8.50479 25.1218H5.26147V4.91276H8.50479V25.1223V25.1218ZM26.7385 25.3495H23.6769V4.91276H26.7385V25.35V25.3495ZM29.0746 4.74093C28.8618 4.74093 28.6888 4.56756 28.6888 4.35315C28.6888 4.13874 28.8613 3.96537 29.0746 3.96537C29.2879 3.96537 29.4603 4.13874 29.4603 4.35315C29.4603 4.56756 29.2879 4.74093 29.0746 4.74093Z" fill="#8E949B"/>
</g>
</g>
<defs>
<clipPath id="clip0_270_46001">
<rect width="32" height="26" fill="white"/>
</clipPath>
</defs>
</svg>
