<svg width="20" height="17" viewBox="0 0 20 17" fill="none" xmlns="http://www.w3.org/2000/svg">
<path d="M18.7889 16.9513H1.36194C1.17949 16.9513 1.00579 16.8921 0.883714 16.7883C0.761641 16.6847 0.702913 16.5462 0.721884 16.4075L2.36525 4.43082C2.39973 4.1801 2.67588 3.98972 3.00531 3.98972H17.1455C17.4748 3.98972 17.7511 4.1801 17.7854 4.43082L19.4288 16.4075C19.4479 16.5462 19.389 16.6847 19.2671 16.7883C19.1449 16.8921 18.9712 16.9513 18.7889 16.9513Z" fill="#8E949B"/>
<path d="M17.7852 4.43082C17.7509 4.1801 17.4746 3.98972 17.1453 3.98972H10.075V16.9513H18.7887C18.971 16.9513 19.1448 16.8921 19.2667 16.7883C19.3888 16.6847 19.4477 16.5462 19.4286 16.4075L17.7852 4.43082Z" fill="#8E949B"/>
<path d="M12.5244 6.61118C12.2393 6.61118 12.0083 6.38568 12.0083 6.10736V3.43821C12.0083 2.27521 11.039 1.32892 9.84748 1.32892C8.65598 1.32892 7.68675 2.27521 7.68675 3.43821V6.10749C7.68675 6.38568 7.45562 6.61131 7.17065 6.61131C6.88554 6.61131 6.65454 6.38568 6.65454 6.10749V3.43821C6.65454 1.7196 8.08683 0.321289 9.84748 0.321289C11.6081 0.321289 13.0406 1.7196 13.0406 3.43821V6.10749C13.0406 6.38568 12.8094 6.61118 12.5244 6.61118Z" fill="#8E949B"/>
</svg>
