<svg width="22" height="22" viewBox="0 0 22 22" fill="none" xmlns="http://www.w3.org/2000/svg">
<path d="M13.8399 17.9382L9.85843 15.2838C9.80857 15.2507 9.75068 15.2318 9.69091 15.229C9.63114 15.2261 9.57172 15.2396 9.51897 15.2678C9.46622 15.2961 9.42211 15.3381 9.39133 15.3894C9.36055 15.4407 9.34425 15.4994 9.34416 15.5592V16.3986C7.72802 16.0937 6.22702 15.3497 5.00563 14.2483C3.78424 13.1469 2.88959 11.7305 2.41971 10.1544C2.29297 9.73648 2.19868 9.30941 2.1377 8.87698C2.12651 8.79784 2.08713 8.72539 2.02678 8.67297C1.96644 8.62055 1.88919 8.59168 1.80926 8.59167C1.72933 8.59167 1.65208 8.62053 1.59173 8.67294C1.53138 8.72535 1.49198 8.7978 1.48079 8.87694C1.13737 11.3507 1.76406 13.8615 3.22971 15.8837C4.69535 17.906 6.88635 19.2829 9.34416 19.7265C9.37138 20.0245 9.20919 20.6051 9.67595 20.6223C9.72895 20.6221 9.78118 20.6096 9.82858 20.5859L13.8101 18.5088C13.8617 18.4821 13.9054 18.4423 13.9368 18.3934C13.9682 18.3445 13.9863 18.2882 13.9892 18.2301C13.9925 18.1726 13.9804 18.1152 13.9542 18.0639C13.9279 18.0126 13.8885 17.9692 13.8399 17.9382Z" fill="#F91C1C"/>
<path d="M12.663 2.27451C12.6405 1.99616 12.7504 1.55632 12.5037 1.42513C12.4549 1.39587 12.3994 1.37959 12.3424 1.37784C12.2855 1.3761 12.2291 1.38894 12.1786 1.41516L8.19711 3.49217C8.14613 3.51902 8.10301 3.55865 8.07196 3.60718C8.04091 3.65572 8.023 3.71148 8.01999 3.76902C8.01697 3.82655 8.02896 3.88388 8.05478 3.93539C8.08059 3.9869 8.11934 4.03082 8.16724 4.06284L12.1487 6.71714C12.1987 6.7498 12.2565 6.76842 12.3161 6.77103C12.3757 6.77365 12.4349 6.76017 12.4875 6.732C12.5401 6.70383 12.5842 6.66202 12.615 6.61096C12.6459 6.5599 12.6625 6.50146 12.663 6.44179V5.60236C14.2791 5.90735 15.7801 6.65132 17.0015 7.75274C18.2229 8.85416 19.1176 10.2705 19.5874 11.8466C19.7142 12.2645 19.8085 12.6916 19.8694 13.124C19.8806 13.2032 19.92 13.2756 19.9804 13.3281C20.0407 13.3805 20.118 13.4094 20.1979 13.4094C20.2779 13.4094 20.3551 13.3805 20.4155 13.3281C20.4758 13.2756 20.5152 13.2032 20.5264 13.124C20.5929 12.6692 20.6262 12.2101 20.6259 11.7504C20.6171 9.48883 19.8154 7.30197 18.3604 5.57053C16.9054 3.83909 14.8893 2.67273 12.663 2.27451Z" fill="#F91C1C"/>
</svg>
