<svg width="29" height="26" viewBox="0 0 29 26" fill="none" xmlns="http://www.w3.org/2000/svg">
<g id="share 1" clip-path="url(#clip0_270_485)">
<g id="Group">
<g id="Group_2">
<path id="Vector" d="M14.4295 8.93347C16.4331 8.93347 18.1356 7.64896 18.7314 5.86743C21.3113 7.06157 23.3149 9.3143 24.1464 12.006C24.2185 12.2254 24.4215 12.3739 24.6441 12.3739C24.6965 12.3739 24.7488 12.3674 24.8012 12.3481C25.0762 12.2642 25.2334 11.9737 25.1483 11.7026C24.6572 10.1341 23.7994 8.66236 22.6601 7.44886C21.619 6.33863 20.3422 5.44141 18.9409 4.83466C18.954 4.71202 18.9606 4.58938 18.9606 4.46673C18.9606 2.00099 16.9242 0 14.4295 0C11.9348 0 9.89844 2.00745 9.89844 4.46673C9.89844 6.92602 11.9283 8.93347 14.4295 8.93347Z" fill="#F91C1C"/>
<path id="Vector_2" d="M24.356 14.433C21.8548 14.433 19.825 16.4404 19.825 18.8997C19.825 20.2423 20.4274 21.4429 21.3768 22.2627C19.491 24.0119 17.0421 24.9672 14.4296 24.9672C13.2837 24.9672 12.164 24.7801 11.0902 24.4121C10.5009 24.212 9.92469 23.9538 9.38123 23.644C9.13241 23.502 8.81157 23.5859 8.66752 23.8377C8.52346 24.0829 8.60859 24.3992 8.86395 24.5412C9.46635 24.8833 10.1015 25.1673 10.7497 25.3868C11.9283 25.7935 13.1724 26 14.4296 26C17.3892 26 20.1524 24.8898 22.2607 22.8565C22.8893 23.1793 23.603 23.3665 24.356 23.3665C26.8573 23.3665 28.8871 21.359 28.8871 18.8997C28.8871 16.4404 26.8573 14.433 24.356 14.433Z" fill="#F91C1C"/>
<path id="Vector_3" d="M4.53108 14.433C4.44595 14.433 4.36083 14.433 4.27571 14.4395C4.41976 11.6704 5.71623 9.08198 7.88355 7.28109C8.10617 7.10035 8.13236 6.77115 7.94903 6.55169C7.76569 6.33223 7.43175 6.30641 7.20913 6.48714C4.7537 8.52686 3.31319 11.4703 3.22152 14.6202C1.35539 15.1753 0 16.8794 0 18.8998C0 21.3655 2.03637 23.3665 4.53108 23.3665C7.03233 23.3665 9.06215 21.359 9.06215 18.8998C9.06215 16.4405 7.03233 14.433 4.53108 14.433Z" fill="#F91C1C"/>
</g>
</g>
</g>
<defs>
<clipPath id="clip0_270_485">
<rect width="28.8889" height="26" fill="white"/>
</clipPath>
</defs>
</svg>
