<svg width="38" height="22" viewBox="0 0 38 22" fill="none" xmlns="http://www.w3.org/2000/svg">
<g id="vk 1" clip-path="url(#clip0_270_469)">
<g id="_&#208;&#161;&#208;&#187;&#208;&#190;&#208;&#185;_1-2">
<path id="Vector" fill-rule="evenodd" clip-rule="evenodd" d="M37.1324 1.48923C37.3927 0.626154 37.1324 0 35.8658 0H31.7014C30.6429 0 30.1571 0.541538 29.8968 1.15077C29.8968 1.15077 27.7799 6.17692 24.7954 9.44308C23.8237 10.3908 23.39 10.6954 22.8521 10.6954C22.5918 10.6954 22.21 10.3908 22.21 9.52769V1.48923C22.21 0.456923 21.8977 0 21.0301 0H14.4886C13.8292 0 13.4301 0.473846 13.4301 0.930769C13.4301 1.91231 14.9224 2.13231 15.0785 4.87385V10.8477C15.0785 12.1508 14.8356 12.3877 14.3151 12.3877C12.9096 12.3877 9.47397 7.34462 7.44384 1.57385C7.04475 0.456923 6.64566 0 5.58722 0H1.42283C0.242922 0 0 0.541538 0 1.15077C0 2.23385 1.40548 7.54769 6.5589 14.5877C9.99452 19.3938 14.8356 22 19.2429 22C21.8804 22 22.21 21.4246 22.21 20.4262V16.7877C22.21 15.6369 22.4703 15.4 23.3032 15.4C23.9279 15.4 24.9863 15.7046 27.4502 18.0231C30.2612 20.7646 30.7297 22 32.326 22H36.4904C37.6703 22 38.2776 21.4246 37.9306 20.2738C37.5489 19.14 36.2128 17.4815 34.4256 15.5185C33.4539 14.4015 31.9964 13.2 31.5626 12.5908C30.9553 11.8123 31.1288 11.4738 31.5626 10.78C31.5626 10.78 36.6292 3.82462 37.1498 1.45538L37.1324 1.48923Z" fill="#2787F5"/>
</g>
</g>
<defs>
<clipPath id="clip0_270_469">
<rect width="38" height="22" fill="white"/>
</clipPath>
</defs>
</svg>
