<svg width="32" height="32" viewBox="0 0 32 32" fill="none" xmlns="http://www.w3.org/2000/svg">
<g id="business 1" clip-path="url(#clip0_270_450)">
<path id="Vector" d="M31 4.5H1C0.734784 4.5 0.48043 4.60536 0.292893 4.79289C0.105357 4.98043 0 5.23478 0 5.5L0 26.5C0 26.7652 0.105357 27.0196 0.292893 27.2071C0.48043 27.3946 0.734784 27.5 1 27.5H31C31.2652 27.5 31.5196 27.3946 31.7071 27.2071C31.8946 27.0196 32 26.7652 32 26.5V5.5C32 5.23478 31.8946 4.98043 31.7071 4.79289C31.5196 4.60536 31.2652 4.5 31 4.5ZM30 24.085L22.955 17.045C22.7637 16.8812 22.5176 16.7956 22.2659 16.8053C22.0143 16.815 21.7755 16.9193 21.5974 17.0974C21.4193 17.2755 21.315 17.5143 21.3053 17.7659C21.2956 18.0176 21.3812 18.2637 21.545 18.455L28.585 25.5H3.415L10.455 18.455C10.6188 18.2637 10.7044 18.0176 10.6947 17.7659C10.685 17.5143 10.5807 17.2755 10.4026 17.0974C10.2245 16.9193 9.98573 16.815 9.73405 16.8053C9.48238 16.7956 9.2363 16.8812 9.045 17.045L2 24.085V7.79L15.32 20.15C15.5049 20.3215 15.7478 20.4168 16 20.4168C16.2522 20.4168 16.4951 20.3215 16.68 20.15L30 7.79V24.085Z" fill="#F91C1C"/>
</g>
<defs>
<clipPath id="clip0_270_450">
<rect width="32" height="32" fill="white"/>
</clipPath>
</defs>
</svg>
