<svg width="23" height="34" viewBox="0 0 23 34" fill="none" xmlns="http://www.w3.org/2000/svg">
<g id="ok 1" clip-path="url(#clip0_270_466)">
<g id="_&#208;&#161;&#208;&#187;&#208;&#190;&#208;&#185;_1-2">
<path id="Vector" fill-rule="evenodd" clip-rule="evenodd" d="M17.504 14.3856C15.9673 15.9117 13.8512 16.8624 11.5084 16.8624C9.16559 16.8624 7.04948 15.9117 5.51279 14.3856C3.9761 12.8595 3.01882 10.7579 3.01882 8.4312C3.01882 6.10449 3.9761 4.00294 5.51279 2.47682C7.04948 0.950699 9.16559 0 11.5084 0C13.8512 0 15.9673 0.950699 17.504 2.47682C19.0407 4.00294 19.998 6.10449 19.998 8.4312C19.998 10.7579 19.0407 12.8595 17.504 14.3856ZM11.5084 4.57837C10.4504 4.57837 9.49308 5.00368 8.78771 5.70419C8.08234 6.40471 7.65408 7.35541 7.65408 8.40618C7.65408 9.45695 8.08234 10.4077 8.78771 11.1082C9.49308 11.8087 10.4504 12.234 11.5084 12.234C12.5665 12.234 13.5237 11.8087 14.2291 11.1082C14.9345 10.4077 15.3627 9.45695 15.3627 8.40618C15.3627 7.35541 14.9345 6.40471 14.2291 5.70419C13.5237 5.0287 12.5665 4.57837 11.5084 4.57837ZM20.4263 16.8874L22.9202 20.2649C23.0462 20.44 23.021 20.6652 22.8447 20.7903C20.7538 22.4915 18.3102 23.6174 15.7658 24.2178L20.5774 33.4246C20.7034 33.6998 20.527 34 20.2247 34H15.0856C14.9345 34 14.7833 33.8999 14.7078 33.7498L11.5084 26.1442L8.28388 33.7248C8.23349 33.8749 8.08234 33.975 7.906 33.975H2.7669C2.4646 33.975 2.28826 33.6497 2.41422 33.3996L7.22583 24.2178C4.68147 23.6174 2.26307 22.4915 0.146965 20.7903C-0.00418538 20.6652 -0.0545687 20.415 0.0713897 20.2649L2.56537 16.8874C2.71652 16.6873 2.96843 16.6623 3.14477 16.8124C5.4876 18.7888 8.38464 20.0898 11.4832 20.0898C14.5818 20.0898 17.4536 18.8138 19.8217 16.8124C20.0232 16.6623 20.3003 16.6873 20.4263 16.8874Z" fill="#FF7700"/>
</g>
</g>
<defs>
<clipPath id="clip0_270_466">
<rect width="23" height="34" fill="white"/>
</clipPath>
</defs>
</svg>
