<svg width="188" height="188" viewBox="0 0 188 188" fill="none" xmlns="http://www.w3.org/2000/svg">
<line y1="-0.25" x2="159.946" y2="-0.25" transform="matrix(-0.707107 -0.707107 -0.707107 0.707107 150.475 150.333)" stroke="#8E949B" stroke-opacity="0.26" stroke-width="0.5"/>
<line x1="36.7373" y1="150.156" x2="149.836" y2="37.0569" stroke="#8E949B" stroke-opacity="0.26" stroke-width="0.5"/>
<circle cx="94" cy="94" r="86" stroke="#8E949B" stroke-opacity="0.1" stroke-width="16"/>
<mask id="path-4-inside-1_270_14528" fill="white">
<path d="M134.559 162.911C121.653 170.507 106.873 174.326 91.9021 173.934C76.9314 173.541 62.3719 168.951 49.8819 160.688L50.4358 159.851C62.7691 168.01 77.1457 172.542 91.9284 172.93C106.711 173.318 121.306 169.547 134.05 162.046L134.559 162.911Z"/>
</mask>
<path d="M134.559 162.911C121.653 170.507 106.873 174.326 91.9021 173.934C76.9314 173.541 62.3719 168.951 49.8819 160.688L50.4358 159.851C62.7691 168.01 77.1457 172.542 91.9284 172.93C106.711 173.318 121.306 169.547 134.05 162.046L134.559 162.911Z" stroke="#F91C1C" stroke-width="2" stroke-dasharray="2 2" mask="url(#path-4-inside-1_270_14528)"/>
<mask id="path-5-inside-2_270_14528" fill="white">
<path d="M49.192 27.7731C61.5955 19.3811 76.1066 14.6409 91.0723 14.0926C106.038 13.5443 120.857 17.2098 133.842 24.6716L133.502 25.2625C120.628 17.8642 105.936 14.2299 91.0973 14.7736C76.259 15.3173 61.8717 20.017 49.5738 28.3376L49.192 27.7731Z"/>
</mask>
<path d="M49.192 27.7731C61.5955 19.3811 76.1066 14.6409 91.0723 14.0926C106.038 13.5443 120.857 17.2098 133.842 24.6716L133.502 25.2625C120.628 17.8642 105.936 14.2299 91.0973 14.7736C76.259 15.3173 61.8717 20.017 49.5738 28.3376L49.192 27.7731Z" stroke="#F91C1C" stroke-width="2" stroke-dasharray="2 2" mask="url(#path-5-inside-2_270_14528)"/>
<circle cx="93.9995" cy="94" r="66.1948" stroke="#FFE1D3" stroke-width="8"/>
</svg>
