<svg width="372" height="372" viewBox="0 0 372 372" fill="none" xmlns="http://www.w3.org/2000/svg">
<line x1="10.708" y1="174.139" x2="362.525" y2="198.741" stroke="white" stroke-opacity="0.17" stroke-width="0.5"/>
<line x1="173.359" y1="363.181" x2="197.961" y2="11.3636" stroke="white" stroke-opacity="0.17" stroke-width="0.5"/>
<circle cx="186.003" cy="185.999" r="137.5" transform="rotate(-41 186.003 185.999)" stroke="#C2C2C2" stroke-opacity="0.08" stroke-width="21"/>
<line y1="-0.25" x2="91.3669" y2="-0.25" transform="matrix(-0.997564 -0.0697564 -0.0697564 0.997564 231.718 189.844)" stroke="white" stroke-opacity="0.33" stroke-width="0.5"/>
<line x1="182.508" y1="232.384" x2="188.881" y2="141.24" stroke="white" stroke-opacity="0.33" stroke-width="0.5"/>
<circle cx="185.404" cy="185.309" r="52.6475" transform="rotate(-41 185.404 185.309)" stroke="white" stroke-opacity="0.09" stroke-width="8"/>
<circle cx="186.005" cy="185.998" r="25.5827" transform="rotate(-41 186.005 185.998)" fill="white" fill-opacity="0.06"/>
<circle cx="186.005" cy="185.998" r="18.2734" transform="rotate(-41 186.005 185.998)" fill="#F91C1C"/>
<circle cx="186.002" cy="185.999" r="11.8777" transform="rotate(-41 186.002 185.999)" fill="black"/>
<path d="M192.037 180.767L192.688 181.515L187.713 185.84L192.163 190.96L191.391 191.632L186.94 186.512L181.941 190.858L181.29 190.109L186.289 185.763L181.922 180.74L182.695 180.068L187.062 185.091L192.037 180.767Z" fill="white"/>
<mask id="path-11-inside-1_1273_4376" fill="white">
<path d="M305.31 229.527C298.178 249.078 286.35 266.576 270.867 280.483C255.384 294.389 236.721 304.278 216.52 309.278L216.285 308.331C236.331 303.369 254.851 293.556 270.215 279.756C285.578 265.957 297.315 248.593 304.393 229.193L305.31 229.527Z"/>
</mask>
<path d="M305.31 229.527C298.178 249.078 286.35 266.576 270.867 280.483C255.384 294.389 236.721 304.278 216.52 309.278L216.285 308.331C236.331 303.369 254.851 293.556 270.215 279.756C285.578 265.957 297.315 248.593 304.393 229.193L305.31 229.527Z" fill="#D9D9D9" stroke="#505256" stroke-width="2" mask="url(#path-11-inside-1_1273_4376)"/>
<mask id="path-12-inside-2_1273_4376" fill="white">
<path d="M138.345 303.715C119.055 295.904 101.981 283.473 88.6231 267.514C75.2655 251.555 66.0343 232.559 61.7416 212.195L62.6967 211.994C66.9563 232.201 76.1166 251.052 89.3716 266.888C102.627 282.723 119.57 295.059 138.712 302.81L138.345 303.715Z"/>
</mask>
<path d="M138.345 303.715C119.055 295.904 101.981 283.473 88.6231 267.514C75.2655 251.555 66.0343 232.559 61.7416 212.195L62.6967 211.994C66.9563 232.201 76.1166 251.052 89.3716 266.888C102.627 282.723 119.57 295.059 138.712 302.81L138.345 303.715Z" stroke="#505256" stroke-width="2" mask="url(#path-12-inside-2_1273_4376)"/>
<mask id="path-13-inside-3_1273_4376" fill="white">
<path d="M67.0892 141.406C74.3966 121.92 86.3806 104.528 101.987 90.7608C117.594 76.9934 136.344 67.2722 156.59 62.4523L156.816 63.4018C136.726 68.1846 118.119 77.8311 102.633 91.4927C87.1463 105.154 75.2543 122.412 68.0031 141.749L67.0892 141.406Z"/>
</mask>
<path d="M67.0892 141.406C74.3966 121.92 86.3806 104.528 101.987 90.7608C117.594 76.9934 136.344 67.2722 156.59 62.4523L156.816 63.4018C136.726 68.1846 118.119 77.8311 102.633 91.4927C87.1463 105.154 75.2543 122.412 68.0031 141.749L67.0892 141.406Z" stroke="#F91C1C" stroke-width="2" mask="url(#path-13-inside-3_1273_4376)"/>
</svg>
