<svg width="372" height="372" viewBox="0 0 372 372" fill="none" xmlns="http://www.w3.org/2000/svg">
<line x1="10.7099" y1="174.14" x2="362.527" y2="198.742" stroke="white" stroke-opacity="0.17" stroke-width="0.5"/>
<line x1="173.361" y1="363.181" x2="197.963" y2="11.3641" stroke="white" stroke-opacity="0.17" stroke-width="0.5"/>
<circle cx="186.003" cy="186" r="137.5" transform="rotate(-41 186.003 186)" stroke="#C2C2C2" stroke-opacity="0.08" stroke-width="21"/>
<line y1="-0.25" x2="91.3669" y2="-0.25" transform="matrix(-0.997564 -0.0697564 -0.0697564 0.997564 231.716 189.844)" stroke="white" stroke-opacity="0.33" stroke-width="0.5"/>
<line x1="182.51" y1="232.385" x2="188.883" y2="141.24" stroke="white" stroke-opacity="0.33" stroke-width="0.5"/>
<circle cx="185.404" cy="185.31" r="52.6475" transform="rotate(-41 185.404 185.31)" stroke="white" stroke-opacity="0.09" stroke-width="8"/>
<circle cx="186.003" cy="185.999" r="25.5827" transform="rotate(-41 186.003 185.999)" fill="white" fill-opacity="0.06"/>
<circle cx="186.004" cy="185.999" r="18.2734" transform="rotate(-41 186.004 185.999)" fill="#F91C1C"/>
<circle cx="186.003" cy="185.999" r="11.8777" transform="rotate(-41 186.003 185.999)" fill="black"/>
<path d="M192.038 180.767L192.689 181.516L187.714 185.841L192.164 190.961L191.392 191.633L186.941 186.513L181.942 190.858L181.291 190.11L186.29 185.764L181.923 180.741L182.696 180.069L187.063 185.092L192.038 180.767Z" fill="white"/>
<mask id="path-11-inside-1_270_28071" fill="white">
<path d="M305.31 229.528C298.178 249.078 286.35 266.577 270.867 280.483C255.384 294.39 236.721 304.278 216.52 309.279L216.285 308.331C236.331 303.369 254.851 293.557 270.215 279.757C285.578 265.957 297.315 248.594 304.393 229.193L305.31 229.528Z"/>
</mask>
<path d="M305.31 229.528C298.178 249.078 286.35 266.577 270.867 280.483C255.384 294.39 236.721 304.278 216.52 309.279L216.285 308.331C236.331 303.369 254.851 293.557 270.215 279.757C285.578 265.957 297.315 248.594 304.393 229.193L305.31 229.528Z" fill="#D9D9D9" stroke="#FA5E1A" stroke-width="2" mask="url(#path-11-inside-1_270_28071)"/>
<mask id="path-12-inside-2_270_28071" fill="white">
<path d="M138.345 303.715C119.055 295.905 101.981 283.473 88.6231 267.515C75.2655 251.556 66.0343 232.559 61.7416 212.196L62.6967 211.994C66.9563 232.202 76.1166 251.052 89.3716 266.888C102.627 282.724 119.57 295.06 138.712 302.811L138.345 303.715Z"/>
</mask>
<path d="M138.345 303.715C119.055 295.905 101.981 283.473 88.6231 267.515C75.2655 251.556 66.0343 232.559 61.7416 212.196L62.6967 211.994C66.9563 232.202 76.1166 251.052 89.3716 266.888C102.627 282.724 119.57 295.06 138.712 302.811L138.345 303.715Z" stroke="#F91C1C" stroke-width="2" mask="url(#path-12-inside-2_270_28071)"/>
<mask id="path-13-inside-3_270_28071" fill="white">
<path d="M67.0892 141.406C74.3966 121.92 86.3807 104.529 101.987 90.7613C117.594 76.9939 136.344 67.2726 156.59 62.4528L156.816 63.4023C136.726 68.1851 118.119 77.8316 102.633 91.4932C87.1463 105.155 75.2543 122.413 68.0031 141.749L67.0892 141.406Z"/>
</mask>
<path d="M67.0892 141.406C74.3966 121.92 86.3807 104.529 101.987 90.7613C117.594 76.9939 136.344 67.2726 156.59 62.4528L156.816 63.4023C136.726 68.1851 118.119 77.8316 102.633 91.4932C87.1463 105.155 75.2543 122.413 68.0031 141.749L67.0892 141.406Z" stroke="#DDB21B" stroke-width="2" mask="url(#path-13-inside-3_270_28071)"/>
</svg>
