<svg width="40" height="35" viewBox="0 0 40 35" fill="none" xmlns="http://www.w3.org/2000/svg">
<g clip-path="url(#clip0_270_26483)">
<path d="M20 5C13.3729 5 8 10.5968 8 17.5C8 24.4032 13.3729 30 20 30C26.6271 30 32 24.4032 32 17.5C32 10.5968 26.6271 5 20 5ZM14.6511 27.0874C14.5003 27.0089 14.2844 26.9018 14.0377 26.7483C13.7875 26.5984 13.51 26.3985 13.2222 26.17C13.0817 26.0523 12.9309 25.9345 12.7938 25.7988C12.6499 25.6703 12.5128 25.5276 12.3724 25.3884C12.2421 25.242 12.1051 25.0992 11.9817 24.9493C11.8549 24.803 11.7419 24.6459 11.6288 24.4996C11.4129 24.1997 11.2244 23.9071 11.0805 23.6465C10.9332 23.3895 10.8304 23.1611 10.7584 23.004C10.6899 22.8469 10.6522 22.7541 10.6522 22.7541C10.6522 22.7541 10.7105 22.8362 10.803 22.979C10.8955 23.1254 11.036 23.3252 11.2073 23.5608C11.2895 23.6822 11.3855 23.8071 11.4849 23.9392C11.5842 24.0748 11.6973 24.2069 11.807 24.3497C12.0366 24.6281 12.2901 24.9208 12.554 25.1992C12.8178 25.4776 13.0988 25.7417 13.3626 25.9844C13.4997 26.0987 13.6265 26.22 13.7567 26.3235C13.8835 26.427 14.0034 26.5306 14.1165 26.6162C14.3427 26.7947 14.5346 26.9446 14.6716 27.041C14.8087 27.1409 14.8875 27.198 14.8875 27.198C14.8875 27.198 14.7984 27.1588 14.6476 27.0838L14.6511 27.0874ZM20 27.3908C14.7573 27.3908 10.5083 22.9647 10.5083 17.5036C10.5083 12.0424 14.7573 7.61636 20 7.61636C25.2427 7.61636 29.4917 12.0424 29.4917 17.5036C29.4917 22.9647 25.2427 27.3908 20 27.3908ZM30.5266 16.3649C30.5026 16.2257 30.4752 16.0722 30.4477 15.9116C30.4203 15.751 30.3895 15.5797 30.3587 15.3976C30.3312 15.2156 30.2661 15.03 30.2216 14.8372C30.1702 14.6409 30.1154 14.441 30.0605 14.2304C29.9851 14.027 29.9063 13.8164 29.8275 13.6022C29.7864 13.4951 29.7487 13.3845 29.7076 13.2738C29.663 13.1668 29.6048 13.0597 29.5568 12.9526C29.454 12.7349 29.3478 12.5136 29.2416 12.2887C28.9812 11.8639 28.7481 11.4035 28.4226 10.993C28.1348 10.5575 27.7681 10.1792 27.422 9.77941C27.0417 9.4189 26.675 9.03698 26.257 8.73715C25.8664 8.39806 25.4209 8.15534 25.0131 7.88407C24.7973 7.77342 24.5848 7.66276 24.3758 7.55568C24.2696 7.50214 24.1702 7.44503 24.0674 7.39863C23.9612 7.3558 23.8549 7.31296 23.7521 7.2737C23.5465 7.1916 23.3444 7.10951 23.1491 7.03098C22.9469 6.97387 22.7516 6.91676 22.5665 6.86322C22.3781 6.81325 22.2033 6.749 22.0286 6.72045C21.8538 6.68832 21.6893 6.6562 21.5351 6.62764C21.3809 6.59909 21.2336 6.57053 21.0999 6.54555C20.9629 6.53484 20.8395 6.52413 20.7264 6.51342C20.2707 6.47416 20.0137 6.44917 20.0137 6.44917C20.0137 6.44917 20.2741 6.45274 20.7299 6.45988C20.8429 6.45988 20.9697 6.46702 21.1102 6.47059C21.2473 6.48844 21.3946 6.50628 21.5523 6.5277C21.7099 6.54912 21.8778 6.57053 22.056 6.59195C22.2341 6.60979 22.4158 6.67404 22.6077 6.71688C22.7995 6.76328 22.9983 6.81325 23.2039 6.86679C23.4061 6.93818 23.6116 7.01314 23.8241 7.09166C23.9303 7.13093 24.04 7.17019 24.1496 7.20945C24.2593 7.25228 24.3621 7.30939 24.4717 7.35937C24.6876 7.46645 24.9069 7.57353 25.1296 7.68418C25.5477 7.95545 26.0034 8.20174 26.4078 8.54083C26.8395 8.84423 27.2164 9.22973 27.6105 9.5938C27.96 10.0043 28.3301 10.3969 28.6214 10.8467C28.9469 11.2678 29.1833 11.7426 29.4437 12.178C29.55 12.4101 29.6528 12.6385 29.7521 12.8634C29.8001 12.9776 29.8549 13.0847 29.8961 13.1989C29.9338 13.3131 29.9714 13.4273 30.0091 13.538C30.0845 13.7593 30.1565 13.977 30.225 14.184C30.2764 14.3982 30.3244 14.6052 30.3689 14.8051C30.41 15.005 30.4717 15.1942 30.4889 15.3798C30.5094 15.5654 30.5334 15.7403 30.5505 15.9081C30.5711 16.0722 30.5882 16.2257 30.6054 16.3685C30.6054 16.5113 30.6122 16.6433 30.6156 16.7611C30.6225 17.2359 30.6259 17.5071 30.6259 17.5071C30.6259 17.5071 30.6019 17.2359 30.5642 16.7647C30.554 16.6469 30.5437 16.5148 30.5334 16.3721L30.5266 16.3649Z" fill="#191919"/>
<path d="M20 8C15.0319 8 11 12.2522 11 17.5C11 22.7478 15.0284 27 20 27C24.9716 27 29 22.7478 29 17.5C29 12.2522 24.9716 8 20 8ZM19.7512 12.3179L20.8845 11.1253L21.0537 8.94088C22.567 9.14875 23.9489 9.78695 25.0821 10.7424C25.4035 11.0123 25.4311 11.5155 25.134 11.8146L22.7812 14.1559C21.9417 14.6409 20.8948 14.1121 20.7324 13.1129V13.1056L20.8568 11.4937L19.9827 12.4163L20 13.1238L19.6718 15.5599L19.7754 13.1092L19.7547 12.3179H19.7512ZM18.2173 9.07217C18.6077 8.981 18.9808 9.28733 19.0119 9.70672L19.2779 13.1056C19.1121 14.1048 18.0687 14.6336 17.2292 14.1486H17.2223L16.1063 13.0363L16.2411 14.3345L16.7766 14.7612L18.3762 16.5518L16.6246 14.9399L16.0269 14.4658L15.8507 12.7883L14.334 11.2785C15.3946 10.2027 16.7282 9.42956 18.2173 9.07946V9.07217ZM11.8188 17.4964C11.8188 16.1397 12.1159 14.856 12.6445 13.7146C12.8242 13.328 13.2802 13.1894 13.6223 13.4301L16.3205 15.3411C16.9562 16.0996 16.7006 17.2921 15.8127 17.6823H15.8058L14.2891 17.9157L15.3359 18.6123L15.9854 18.4372L18.3106 18.233L16.0234 18.6743L15.2979 18.8712L13.9436 17.9704L11.8568 18.2841C11.8361 18.0251 11.8223 17.7662 11.8223 17.5L11.8188 17.4964ZM15.5121 24.7134C14.258 23.8418 13.2457 22.6202 12.5996 21.176C12.4303 20.7967 12.6273 20.3445 13.0073 20.2169L16.1271 19.1739L18.0791 19.0645L17.5436 21.0593L16.7662 22.4524L17.934 22.0221L18.2069 21.3766L19.5025 19.3307L18.4038 21.4933L18.0998 22.2154L16.5866 22.7697L15.5052 24.7098L15.5121 24.7134ZM19.9965 26.1284C19.3643 26.1284 18.7493 26.0518 18.1551 25.9059C17.7543 25.8075 17.5228 25.3699 17.6714 24.9651L18.8495 21.723C19.4092 20.8988 20.5666 20.8988 21.1263 21.723V21.7303L21.6791 23.2401L22.0902 22.0075L21.7827 21.3802L21.0779 19.0353L21.9935 21.2891L22.339 21.9893L21.8069 23.5829L22.5704 25.6871C21.762 25.9716 20.8983 26.1248 19.9965 26.1248V26.1284ZM25.0994 24.2393C24.7781 24.5092 24.3048 24.429 24.0975 24.0534L22.4357 21.0666C22.1731 20.0929 22.8952 19.1338 23.8557 19.1885H23.8626L25.324 19.6772L24.6676 18.5722L24.0111 18.4336L21.8345 17.5547L24.0768 18.2038L24.8127 18.357L25.6626 19.7902L27.6837 20.4649C27.1654 21.9601 26.2637 23.262 25.1063 24.2393H25.0994ZM27.428 18.1856L24.1839 17.6969C23.2994 17.3067 23.0403 16.1142 23.676 15.3557V15.3484L24.9543 14.4476L23.7244 14.2981L23.2131 14.7539L21.2023 16.0012L23.0818 14.557L23.6518 14.0464L25.2411 14.2397L26.9789 13.0071C27.7321 14.3127 28.1674 15.848 28.1674 17.4927V17.5C28.1674 17.9194 27.815 18.2403 27.4211 18.182L27.428 18.1856Z" fill="#191919"/>
<path d="M36.587 20.9494C36.587 20.9494 36.5399 21.1392 36.4576 21.495C36.4145 21.6729 36.3636 21.8943 36.3009 22.1513C36.2421 22.4122 36.1755 22.7087 36.05 23.0289C35.9364 23.3531 35.811 23.7129 35.6738 24.1043C35.5327 24.4957 35.3211 24.8871 35.1251 25.3259C34.9409 25.7687 34.6705 26.1996 34.3961 26.6622C34.255 26.8915 34.1296 27.1366 33.965 27.3659C33.8004 27.5952 33.6279 27.8245 33.4555 28.0656C33.3693 28.1843 33.2791 28.3068 33.1929 28.4254C33.1067 28.548 33.0126 28.6705 32.9068 28.7812C32.703 29.0105 32.4953 29.2438 32.2836 29.481C32.1778 29.5996 32.072 29.7182 31.9622 29.8408C31.8447 29.9515 31.7232 30.0622 31.6056 30.1728C31.3626 30.3942 31.1196 30.6235 30.8688 30.8528C30.6219 31.0861 30.3318 31.2719 30.0614 31.4894C29.9242 31.5961 29.7831 31.6989 29.642 31.8056C29.5049 31.9163 29.3599 32.0191 29.207 32.1061C28.5995 32.4738 27.996 32.8889 27.3218 33.1893C26.0089 33.8812 24.5352 34.3438 23.0185 34.6679C22.6344 34.7312 22.2464 34.7944 21.8623 34.8617C21.4743 34.9249 21.0785 34.9249 20.6865 34.9605C19.8988 35.0475 19.1071 34.9644 18.3115 34.9486C17.9156 34.913 17.5237 34.8458 17.1318 34.7944L16.5399 34.7114L16.4655 34.6996H16.4459L16.4106 34.6877L16.3753 34.6798L16.2342 34.6482L15.9521 34.581C15.5758 34.4861 15.2035 34.4149 14.8233 34.3003C14.4431 34.1738 14.063 34.0472 13.6867 33.9247C12.2092 33.3633 10.8335 32.6359 9.59893 31.7661C8.38396 30.8726 7.30616 29.8763 6.40473 28.8168C6.17741 28.5559 5.98145 28.2752 5.76981 28.0063C5.66791 27.8719 5.56601 27.7375 5.46411 27.607C5.36613 27.4726 5.2799 27.3303 5.18976 27.1919C5.01339 26.9152 4.83703 26.6464 4.66458 26.3775C4.50389 26.1047 4.36671 25.824 4.2217 25.5592C3.64165 24.4878 3.25364 23.4282 2.94794 22.4834C2.66967 21.5306 2.46979 20.6806 2.37573 19.969C2.24247 19.2613 2.2268 18.6999 2.19544 18.3164C2.16801 17.9329 2.15625 17.7273 2.15625 17.7273L3.79058 17.7076C3.79058 17.7076 3.79842 17.8934 3.81018 18.2413C3.82586 18.5892 3.82194 19.1032 3.92384 19.7515C3.98655 20.4038 4.14332 21.1827 4.37063 22.0643C4.62147 22.938 4.94285 23.9224 5.44843 24.9306C5.57385 25.1796 5.69534 25.4445 5.83252 25.7015C5.98145 25.9545 6.1343 26.2075 6.29107 26.4685C6.36946 26.5989 6.44392 26.7333 6.53015 26.8598C6.62029 26.9864 6.71043 27.1129 6.80058 27.2394C6.98478 27.4924 7.16115 27.7612 7.36495 28.0103C8.17232 29.0184 9.1443 29.9831 10.2534 30.8568C11.3783 31.7068 12.656 32.4382 14.0238 33.0075C14.3687 33.134 14.7136 33.2645 15.0585 33.391C15.4112 33.5135 15.7992 33.6005 16.1676 33.7033L16.4459 33.7784L16.587 33.8179L16.6223 33.8258H16.6379L16.7085 33.8417L17.265 33.9365C17.6373 33.9958 18.0097 34.0749 18.3859 34.1184C19.1423 34.1579 19.8988 34.2647 20.6513 34.2054C21.0275 34.1856 21.4077 34.2014 21.78 34.15C22.1523 34.0986 22.5247 34.0512 22.897 33.9998C24.3667 33.7349 25.8051 33.3356 27.0984 32.707C27.7647 32.4382 28.3644 32.0547 28.9679 31.7147C29.1208 31.6317 29.2619 31.5368 29.403 31.434C29.5441 31.3352 29.6812 31.2363 29.8184 31.1375C30.0888 30.9359 30.3789 30.7619 30.6258 30.5405C30.8766 30.3231 31.1235 30.1096 31.3665 29.9001C31.488 29.7933 31.6095 29.6905 31.7271 29.5838C31.8368 29.4691 31.9466 29.3545 32.0524 29.2438C32.268 29.0184 32.4796 28.797 32.6873 28.5756C32.7971 28.4689 32.8911 28.3543 32.9813 28.2356C33.0714 28.121 33.1615 28.0024 33.2517 27.8877C33.432 27.6584 33.6044 27.437 33.7769 27.2157C33.9454 26.9943 34.0787 26.7571 34.2237 26.5357C34.5098 26.0889 34.792 25.6699 34.9879 25.235C35.1956 24.808 35.419 24.4245 35.5719 24.041C35.7208 23.6575 35.8541 23.3057 35.9795 22.9894C36.1128 22.6731 36.1911 22.3766 36.2578 22.1196C36.3283 21.8627 36.3871 21.6452 36.438 21.4673C36.536 21.1155 36.587 20.9257 36.587 20.9257V20.9494Z" fill="#F91C1C"/>
<path d="M5.75348 21.234L2.97472 18.2334L0 21.0364L0.0823045 18.5734L3.06094 15.7704L5.8397 18.771L5.75348 21.234Z" fill="#F91C1C"/>
<path d="M3.41016 14.0546C3.41016 14.0546 3.45719 13.8648 3.53949 13.509C3.5826 13.3311 3.63355 13.1097 3.69626 12.8527C3.75505 12.5918 3.82168 12.2953 3.9471 11.975C4.06075 11.6509 4.18617 11.2911 4.32334 10.8997C4.46444 10.5083 4.67608 10.1169 4.87204 9.67808C5.05625 9.23529 5.32668 8.80436 5.60102 8.34181C5.74212 8.11251 5.86753 7.86739 6.03214 7.63809C6.19675 7.40879 6.3692 7.17949 6.54165 6.93833C6.62787 6.81972 6.71801 6.69717 6.80424 6.57856C6.89046 6.45601 6.98452 6.33345 7.09034 6.22275C7.29415 5.99345 7.50187 5.7602 7.71351 5.52299C7.81933 5.40438 7.92515 5.28578 8.03489 5.16322C8.15246 5.05253 8.27396 4.94183 8.39154 4.83113C8.63453 4.60974 8.87753 4.38044 9.12836 4.15114C9.37528 3.91788 9.6653 3.73207 9.93573 3.51463C10.0729 3.40789 10.214 3.3051 10.3551 3.19835C10.4923 3.08766 10.6373 2.98487 10.7901 2.89789C11.3976 2.53022 12.0012 2.1151 12.6753 1.81464C13.9882 1.12279 15.4619 0.66023 16.9786 0.336046C17.3627 0.272791 17.7507 0.209535 18.1348 0.142326C18.5228 0.079071 18.9187 0.079071 19.3106 0.0434899C20.0984 -0.0434863 20.8901 0.0395364 21.6857 0.0553503C22.0815 0.086978 22.4735 0.15814 22.8654 0.209535L23.4572 0.292558L23.5317 0.304418H23.5513L23.5865 0.316279L23.6218 0.324186L23.7629 0.355813L24.0451 0.423022C24.4213 0.517905 24.7937 0.589068 25.1738 0.703718C25.554 0.830229 25.9342 0.95674 26.3104 1.0793C27.788 1.64069 29.1636 2.36813 30.3982 3.23789C31.6132 4.13137 32.691 5.12764 33.5924 6.18717C33.8197 6.4481 34.0157 6.7288 34.2273 6.99763C34.3292 7.13205 34.4311 7.26647 34.533 7.39693C34.631 7.53135 34.7172 7.67367 34.8074 7.81204C34.9837 8.08879 35.1601 8.35762 35.3326 8.62646C35.4932 8.89925 35.6304 9.17994 35.7754 9.44482C36.3555 10.5162 36.7435 11.5757 37.0492 12.5206C37.3275 13.4734 37.5273 14.3234 37.6214 15.035C37.7547 15.7427 37.7703 16.3041 37.8017 16.6876C37.8291 17.0711 37.8409 17.2766 37.8409 17.2766L36.2066 17.2964C36.2066 17.2964 36.1987 17.1106 36.187 16.7627C36.1713 16.4148 36.1752 15.9008 36.0733 15.2525C36.0106 14.6001 35.8538 13.8213 35.6265 12.9397C35.3757 12.066 35.0543 11.0816 34.5487 10.0734C34.4233 9.82436 34.3018 9.55947 34.1646 9.3025C34.0157 9.04948 33.8628 8.79646 33.7061 8.53553C33.6277 8.40506 33.5532 8.27065 33.467 8.14413C33.3768 8.01762 33.2867 7.89111 33.1966 7.7646C33.0124 7.51158 32.836 7.24274 32.6322 6.99368C31.8248 5.98554 30.8528 5.0209 29.7437 4.14718C28.6189 3.29719 27.3412 2.5658 25.9734 1.9965C25.6285 1.86999 25.2836 1.73953 24.9387 1.61301C24.5859 1.49046 24.1979 1.40348 23.8295 1.30069L23.5513 1.22558L23.4102 1.18604L23.3749 1.17813H23.3592L23.2887 1.16232L22.7321 1.06744C22.3598 1.00813 21.9875 0.929065 21.6112 0.885577C20.8548 0.846043 20.0984 0.739299 19.3459 0.798601C18.9696 0.818368 18.5895 0.802555 18.2171 0.85395C17.8448 0.905345 17.4725 0.952786 17.1001 1.00418C15.6304 1.26906 14.192 1.66836 12.8987 2.29696C12.2324 2.5658 11.6328 2.94928 11.0292 3.28928C10.8764 3.3723 10.7353 3.46719 10.5942 3.56998C10.4531 3.66881 10.3159 3.76765 10.1787 3.86649C9.90829 4.06811 9.61827 4.24207 9.37136 4.46346C9.12052 4.6809 8.87361 4.89439 8.63062 5.10392C8.50912 5.21066 8.38762 5.31346 8.27004 5.4202C8.1603 5.53485 8.05056 5.6495 7.94474 5.7602C7.72918 5.98554 7.51754 6.20694 7.30982 6.42833C7.20008 6.53508 7.10602 6.64973 7.01588 6.76833C6.92574 6.88298 6.83559 7.00158 6.74545 7.11623C6.56516 7.34553 6.39272 7.56693 6.22027 7.78832C6.05174 8.00972 5.91848 8.24692 5.77347 8.46832C5.48737 8.91506 5.20518 9.33413 5.00922 9.76901C4.80149 10.196 4.5781 10.5795 4.42525 10.963C4.27631 11.3464 4.14306 11.6983 4.01764 12.0146C3.88439 12.3309 3.806 12.6274 3.73937 12.8843C3.66883 13.1413 3.61004 13.3588 3.55909 13.5367C3.46111 13.8885 3.41016 14.0783 3.41016 14.0783V14.0546Z" fill="#F91C1C"/>
<path d="M34.2426 13.766L37.0214 16.7706L40 13.9676L39.9138 16.4306L36.9391 19.2336L34.1603 16.229L34.2426 13.766Z" fill="#F91C1C"/>
</g>
<defs>
<clipPath id="clip0_270_26483">
<rect width="40" height="35" fill="white"/>
</clipPath>
</defs>
</svg>
