<svg width="71" height="71" viewBox="0 0 71 71" fill="none" xmlns="http://www.w3.org/2000/svg">
<circle cx="35.5" cy="35.5" r="29" stroke="#C2C2C2" stroke-opacity="0.08" stroke-width="13"/>
<path d="M48.5198 53.2697C48.6735 53.4795 48.6283 53.7747 48.4153 53.924C44.4188 56.7257 39.6153 58.1543 34.7289 57.9868C29.8426 57.8192 25.1483 56.0649 21.353 52.9961C21.1507 52.8325 21.1259 52.5349 21.2936 52.3361C21.4614 52.1373 21.7583 52.1126 21.9607 52.276C25.5943 55.2086 30.086 56.885 34.7612 57.0453C39.4364 57.2056 44.0324 55.8408 47.8584 53.164C48.0715 53.0148 48.366 53.0599 48.5198 53.2697Z" fill="#F91C1C"/>
<path d="M21.9747 16.112C21.815 15.9067 21.8517 15.6103 22.0603 15.4549C25.9746 12.5395 30.735 10.9734 35.6242 11.0003C40.5133 11.0273 45.2562 12.646 49.1381 15.6044C49.345 15.7621 49.3784 16.0588 49.2164 16.2624C49.0544 16.4659 48.7584 16.4992 48.5514 16.3417C44.8349 13.5147 40.2968 11.9682 35.619 11.9424C30.9411 11.9165 26.3863 13.4129 22.6388 16.1987C22.4301 16.3538 22.1344 16.3173 21.9747 16.112Z" fill="#F91C1C"/>
</svg>
