<svg width="177" height="45" viewBox="0 0 177 45" fill="none" xmlns="http://www.w3.org/2000/svg">
<g clip-path="url(#clip0_270_1484)">
<path d="M19.8936 20.9026C19.8374 21.8889 19.791 22.8753 19.7645 23.8633C19.7546 24.217 19.7546 24.5707 19.7546 24.9244C18.1867 22.7375 16.8406 20.3828 15.7363 17.8871C17.0542 18.7522 18.3721 19.609 19.6999 20.4559C19.8754 20.5771 19.9135 20.69 19.8936 20.9026Z" fill="white"/>
<path d="M26.6215 24.9526C26.6314 24.5524 26.6314 24.1522 26.6314 23.7521C26.6314 22.7375 26.5486 21.7129 26.4824 20.6984C26.4824 20.5406 26.547 20.4941 26.6596 20.4277C27.9874 19.5526 29.3417 18.6692 30.6878 17.8024C29.5735 20.3364 28.2192 22.7275 26.6215 24.9526Z" fill="white"/>
<path d="M31.3843 13.3821C30.6045 13.8753 29.8065 14.3502 28.9985 14.7869C27.9786 15.3465 26.929 15.8397 25.8429 16.2482C25.6111 16.3412 25.3793 16.4259 25.1475 16.4906C24.9703 16.5371 24.8693 16.6484 24.8131 16.8161C24.6458 17.3757 24.6376 17.9436 24.6641 18.5198C24.7485 20.0657 25.0366 21.5735 25.3793 23.0713C25.3892 23.1559 25.3892 23.2672 25.3429 23.3237C24.6458 24.1041 23.9323 24.8862 23.1988 25.6965V25.7713C22.8644 25.3993 22.5581 25.0639 22.2518 24.7185C21.8627 24.3 21.472 23.8816 21.1011 23.4432C21.0365 23.3785 21.0183 23.2489 21.0365 23.1559C21.2402 21.9089 21.4819 20.6519 21.6773 19.3949C21.7882 18.6593 21.7882 17.9054 21.6673 17.1515C21.5928 16.8161 21.4538 16.6218 21.0912 16.5006C18.9571 15.7932 16.9984 14.7039 15.1143 13.5117C15.0597 13.4851 15.0133 13.4469 14.957 13.4104C17.6392 12.8425 20.424 12.5436 23.2634 12.5436C26.0382 12.5436 28.7667 12.8325 31.3843 13.3821Z" fill="white"/>
<path d="M55.1289 14.8798H77.0579V18.5296H68.0793V30.5766H64.2647V18.5296H55.1289V14.8798Z" fill="#F91C1C"/>
<path d="M96.0879 27.4948H83.3924L81.6706 30.5751H77.25L85.4471 16.2133C85.5646 15.9908 85.6855 15.7982 85.808 15.6338C85.9322 15.471 86.0779 15.3332 86.2484 15.222C86.4173 15.1107 86.6209 15.026 86.8544 14.9662C87.0878 14.9065 87.3825 14.8782 87.7352 14.8782H91.6855C92.7683 14.8782 93.563 15.3166 94.073 16.1934L102.25 30.5751H97.8478L96.0879 27.4948ZM85.2501 24.0426H94.2087L91.4902 19.2554C91.3461 18.993 91.1872 18.807 91.01 18.6958C90.8345 18.5845 90.6541 18.5297 90.4719 18.5297H88.9653C88.5481 18.5297 88.2021 18.7788 87.9289 19.2753L85.2501 24.0426Z" fill="#F91C1C"/>
<path d="M120.448 16.195C119.939 15.3183 119.143 14.8799 118.06 14.8799H114.11C113.759 14.8799 113.464 14.9081 113.229 14.9696C112.996 15.0277 112.794 15.1124 112.623 15.2253C112.456 15.3365 112.309 15.4727 112.184 15.6354C112.059 15.7981 111.938 15.9941 111.822 16.2149L103.623 30.5768H108.044L114.305 19.2753C114.578 18.7804 114.924 18.5314 115.342 18.5314H116.848C117.029 18.5314 117.211 18.5862 117.386 18.6974C117.562 18.8103 117.722 18.9946 117.867 19.2587L124.223 30.5784H128.625L120.448 16.195Z" fill="white"/>
<path d="M134.116 30.5751C130.19 30.5751 128.229 28.9146 128.229 25.5919V19.883C128.229 16.547 130.19 14.8799 134.116 14.8799H146.205C150.131 14.8799 152.093 16.547 152.093 19.883V25.5919C152.093 28.9146 150.129 30.5751 146.205 30.5751H134.116ZM134.116 18.5297C132.747 18.5297 132.061 18.9814 132.061 19.883V25.5919C132.061 26.4819 132.745 26.9253 134.116 26.9253H146.205C147.575 26.9253 148.26 26.4803 148.26 25.5919V19.883C148.26 18.9814 147.576 18.5297 146.205 18.5297H134.116Z" fill="#F91C1C"/>
<path d="M177.054 26.9253V30.5751H158.766C155.624 30.5751 154.051 29.2932 154.051 26.731V18.7057C154.051 16.1568 155.622 14.8799 158.766 14.8799H176.627V18.5297H158.766C158.165 18.5297 157.865 18.7854 157.865 19.2952V26.1415C157.865 26.6646 158.165 26.9253 158.766 26.9253H177.054Z" fill="#F91C1C"/>
<path d="M23.1701 45.0067C22.3142 44.4305 21.4665 43.8277 20.6387 43.1884C21.4665 43.8194 22.3142 44.4222 23.1701 45.0067Z" fill="#FA5E1A"/>
<path d="M23.1701 45.0067C22.3142 44.4305 21.4665 43.8277 20.6387 43.1884C21.4665 43.8194 22.3142 44.4222 23.1701 45.0067Z" fill="#FA5E1A"/>
<path d="M23.1701 45.0067C22.3142 44.4305 21.4665 43.8277 20.6387 43.1884C21.4665 43.8194 22.3142 44.4222 23.1701 45.0067Z" fill="#FA5E1A"/>
<path d="M45.2859 12.0454C45.0492 13.2144 44.776 14.3569 44.4565 15.4893C44.2197 16.3478 43.9647 17.198 43.6816 18.0382C43.3621 18.988 43.0161 19.9379 42.6435 20.8711C40.7313 25.6849 38.1253 30.1351 34.9564 34.117V34.127C34.6468 34.5205 34.319 34.9041 33.9995 35.2877C33.6716 35.6812 33.3438 36.0548 33.0061 36.4384C32.7147 36.7672 32.4133 37.096 32.1137 37.4165C31.8041 37.7369 31.4945 38.0657 31.1849 38.3762C30.3471 39.2165 29.4911 40.0301 28.607 40.8056C27.9232 41.4083 27.2312 41.9928 26.5209 42.5508C25.4365 43.4192 24.3173 44.2312 23.1682 45.0083C22.3123 44.4238 21.4646 43.8211 20.6368 43.1901C20.3636 42.9792 20.0904 42.77 19.8172 42.5508C20.9745 41.8284 22.0855 41.053 23.1699 40.2393C23.8802 39.6997 24.5822 39.1434 25.256 38.5672C26.1401 37.8183 27.0044 37.0412 27.8338 36.2292C28.453 35.6264 29.064 34.9954 29.655 34.3561C30.3289 33.6255 30.9762 32.8766 31.6037 32.0995C34.7826 28.189 37.3703 23.777 39.218 18.9897C39.5823 18.0665 39.9101 17.1349 40.2114 16.1751C40.4763 15.3532 40.7131 14.513 40.9316 13.6727C40.1485 13.3074 39.3472 12.9687 38.5276 12.6498C38.0905 12.4755 37.6435 12.3111 37.1882 12.165C37.1071 12.1285 37.0144 12.1002 36.9332 12.0737C36.7511 12.0089 36.5591 11.9458 36.3769 11.891C36.021 11.7714 35.6567 11.6618 35.3024 11.5523C34.4829 11.3048 33.6534 11.0856 32.8074 10.8947C31.8504 10.6755 30.8852 10.4829 29.9017 10.3368C27.7428 9.9897 25.5292 9.81535 23.2709 9.81535C20.948 9.81535 18.6715 9.998 16.448 10.3633C15.4728 10.5194 14.5076 10.7104 13.5506 10.9395C13.5142 10.8117 13.4861 10.6921 13.4596 10.5642C13.4331 10.4447 13.4049 10.3168 13.3784 10.1989C13.3056 9.89671 13.241 9.58619 13.1781 9.28564C13.0688 8.71941 12.9678 8.16147 12.8867 7.59524C13.8437 7.36609 14.8089 7.17513 15.7841 7.01904C18.2245 6.6172 20.7212 6.40631 23.2709 6.40631C25.7577 6.40631 28.1898 6.59893 30.5673 6.98251C31.5425 7.13859 32.5077 7.32956 33.4729 7.54875C34.3107 7.74137 35.1485 7.95059 35.9779 8.198C37.0806 8.51848 38.1733 8.87383 39.2395 9.27568C40.069 9.57789 40.8886 9.91498 41.6899 10.262C42.9184 10.8133 44.1204 11.4061 45.2859 12.0454Z" fill="white"/>
<path d="M21.0838 38.5672C19.9993 39.3626 18.8884 40.1115 17.7311 40.8056C16.847 40.0285 15.9827 39.2165 15.1533 38.3763C14.534 37.7453 13.9231 37.0977 13.332 36.4401C12.6582 35.6812 12.0108 34.9141 11.3834 34.1287C8.23102 30.1634 5.64491 25.7414 3.73264 20.974C3.35847 20.0425 3.01244 19.101 2.69456 18.1429C2.41144 17.3026 2.14819 16.4525 1.91144 15.594C1.5919 14.4615 1.31044 13.3191 1.07368 12.1501C0.891563 11.2633 0.727653 10.3783 0.590235 9.47331C0.379968 8.11168 0.225994 6.73346 0.125 5.3436C1.35514 4.73087 2.62005 4.16464 3.90483 3.6532C3.9694 5.02312 4.08695 6.37644 4.26079 7.70984C4.37006 8.60486 4.51576 9.48161 4.67139 10.3501C4.88994 11.5008 5.13662 12.6333 5.42802 13.7574C5.6565 14.5977 5.89326 15.4379 6.16644 16.2698C6.46776 17.2196 6.79558 18.1512 7.15982 19.0744C9.00917 23.8252 11.5771 28.2106 14.7377 32.1012C15.3668 32.8683 16.0125 33.6272 16.6864 34.3578C17.2791 34.9971 17.8884 35.6281 18.5076 36.2309C19.2179 35.7277 19.9198 35.198 20.5937 34.66C21.4861 33.9377 22.342 33.1888 23.1715 32.4133C23.8007 31.8189 24.4099 31.2078 24.9927 30.5768C25.6666 29.8645 26.3139 29.1156 26.9414 28.3484C29.7378 24.9228 32.0143 21.0488 33.6368 16.846C33.9928 15.9327 34.3206 15.0012 34.612 14.0514C35.7047 14.3718 36.7792 14.7455 37.8273 15.1573C37.5359 16.1071 37.208 17.0386 36.8521 17.9619C35.0855 22.5665 32.5987 26.8241 29.5192 30.5785C28.8901 31.3456 28.2444 32.0862 27.5706 32.8069C26.9778 33.4462 26.3686 34.0589 25.7494 34.6617C24.9199 35.4571 24.0556 36.2242 23.1715 36.9549C22.496 37.5078 21.7957 38.0458 21.0838 38.5672Z" fill="white"/>
<path d="M13.5512 10.9412H13.5413C13.5133 10.8216 13.487 10.6938 13.459 10.5659C13.487 10.6938 13.515 10.8133 13.5512 10.9412Z" fill="white"/>
<path d="M46.2255 5.24063C46.1245 6.63878 45.9706 8.00871 45.7702 9.37033C44.5682 8.73934 43.348 8.16479 42.0897 7.62513C41.2785 7.28638 40.4506 6.95761 39.6129 6.65705C38.5284 6.27347 37.4275 5.91646 36.3066 5.60594C35.4771 5.36849 34.6311 5.1576 33.7834 4.96664C32.8181 4.75575 31.843 4.5731 30.8595 4.41867C28.391 4.02513 25.8495 3.82421 23.2717 3.82421C20.621 3.82421 18.025 4.0351 15.4935 4.44524C14.5101 4.60963 13.5349 4.79229 12.5697 5.01148C11.722 5.20409 10.8759 5.42329 10.0465 5.66074C10.1292 6.52919 10.2385 7.39598 10.3743 8.25447C10.5564 9.38694 10.7849 10.5011 11.0581 11.6071C11.2584 12.4473 11.4951 13.2792 11.7501 14.1011C12.0415 15.051 12.3693 15.9825 12.7253 16.8958C14.3561 21.0803 16.6144 24.9343 19.4025 28.3434C20.0316 29.1105 20.6773 29.8594 21.3512 30.5718C20.5217 31.3572 19.6657 32.0978 18.7733 32.8002C18.0995 32.0779 17.4521 31.339 16.8246 30.5718C13.7634 26.8356 11.2865 22.6063 9.51996 18.02C9.164 17.1067 8.83618 16.1751 8.53651 15.2237C8.28154 14.4017 8.04479 13.5615 7.83452 12.7213C7.55141 11.6153 7.31465 10.4829 7.11432 9.35041C6.96862 8.48196 6.84114 7.60521 6.74014 6.72845C6.58451 5.40336 6.49346 4.06 6.45703 2.70834C7.55969 2.32476 8.68884 1.98602 9.83619 1.68547C10.6839 1.45631 11.5481 1.24708 12.414 1.06442C13.3892 0.853538 14.3809 0.680844 15.3743 0.524756C17.9521 0.131213 20.5846 -0.0697021 23.2717 -0.0697021C25.886 -0.0697021 28.4539 0.122913 30.9688 0.49653C31.9622 0.642655 32.9539 0.81701 33.9291 1.02623C34.795 1.20059 35.6592 1.40151 36.5069 1.629C37.6543 1.92125 38.7834 2.26 39.896 2.63361C40.752 2.92586 41.5997 3.23638 42.4457 3.56516C43.7288 4.07992 44.9871 4.63786 46.2255 5.24063Z" fill="white"/>
<path d="M13.5512 10.9412H13.5413C13.5133 10.8216 13.487 10.6938 13.459 10.5659C13.487 10.6938 13.515 10.8133 13.5512 10.9412Z" fill="white"/>
<path d="M60.0058 38.6021H58.7591L57.5356 36.6975H56.7922V38.6021H55.7012V33.8746H56.7922V35.7858H57.5654L58.8072 33.8746H59.9644L58.4181 36.1578L60.0058 38.6021Z" fill="white"/>
<path d="M66.1878 37.7253V38.6021H62.5371V33.8746H66.1V34.753H63.6216V35.7726H65.8103V36.631H63.6216V37.7253H66.1878Z" fill="white"/>
<path d="M69.0898 38.6037V33.8746H70.1677V36.9615L72.4243 33.8746H73.4475V38.6037H72.3697V35.5301L70.1197 38.6037H69.0898ZM71.2587 33.5707C70.8183 33.5707 70.4938 33.481 70.2819 33.3C70.07 33.1207 69.9624 32.865 69.9591 32.5362H70.7074C70.7124 32.6989 70.7604 32.8218 70.8514 32.9048C70.9442 32.9879 71.0799 33.0294 71.2587 33.0294C71.4425 33.0294 71.5832 32.9879 71.6793 32.9048C71.7753 32.8218 71.825 32.6989 71.825 32.5362H72.565C72.565 32.865 72.4591 33.1191 72.2488 33.3C72.0385 33.481 71.7074 33.5707 71.2587 33.5707Z" fill="white"/>
<path d="M78.8697 38.6851C78.5055 38.6851 78.1677 38.6253 77.8564 38.5058C77.5435 38.3862 77.2737 38.2168 77.0452 37.996C76.8167 37.7751 76.6379 37.5161 76.5104 37.2189C76.3829 36.9216 76.3184 36.5945 76.3184 36.2392C76.3184 35.8838 76.3829 35.5567 76.5104 35.2594C76.6379 34.9622 76.8184 34.7032 77.0485 34.4823C77.2803 34.2615 77.5518 34.0921 77.8631 33.9725C78.1743 33.853 78.5137 33.7932 78.8763 33.7932C79.2853 33.7932 79.6545 33.8646 79.9873 34.0058C80.32 34.1469 80.5982 34.3561 80.8217 34.6301L80.1147 35.2794C79.9575 35.095 79.7787 34.9556 79.58 34.8609C79.3796 34.7663 79.1627 34.7198 78.9293 34.7198C78.7091 34.7198 78.5071 34.7563 78.3233 34.831C78.1396 34.9058 77.9806 35.0104 77.8449 35.1449C77.7107 35.2794 77.6064 35.4405 77.5319 35.6248C77.4574 35.8091 77.421 36.015 77.421 36.2392C77.421 36.465 77.4574 36.6692 77.5319 36.8535C77.6064 37.0379 77.7107 37.1973 77.8449 37.3334C77.979 37.4679 78.1396 37.5725 78.3233 37.6473C78.5071 37.722 78.7091 37.7585 78.9293 37.7585C79.1627 37.7585 79.3796 37.7104 79.58 37.6141C79.7803 37.5178 79.9575 37.3766 80.1147 37.1923L80.8217 37.8416C80.5965 38.1155 80.3184 38.3264 79.9873 38.4692C79.6545 38.612 79.282 38.6851 78.8697 38.6851Z" fill="white"/>
<path d="M85.8408 35.4355C86.4021 35.4355 86.8392 35.5617 87.1504 35.8141C87.4617 36.0665 87.619 36.4467 87.619 36.9548C87.619 37.4945 87.4468 37.9046 87.1041 38.1836C86.7614 38.4626 86.2862 38.6021 85.6802 38.6021H83.5527V33.8746H84.6306V35.4355H85.8408ZM85.6124 37.7934C85.8988 37.7934 86.1223 37.722 86.2829 37.5808C86.4418 37.4397 86.5213 37.2371 86.5213 36.9764C86.5213 36.7157 86.4418 36.5264 86.2829 36.4085C86.1239 36.2923 85.9004 36.2325 85.6124 36.2325H84.6289V37.7934H85.6124ZM88.2249 38.6037V33.8746H89.3028V38.6037H88.2249Z" fill="white"/>
<path d="M96.4219 38.6037V33.8746H97.4997V36.9615L99.7563 33.8746H100.78V38.6037H99.7017V35.5301L97.4517 38.6037H96.4219Z" fill="white"/>
<path d="M112.186 38.6021H110.941L109.717 36.6975H108.974V38.6021H107.883V33.8746H108.974V35.7858H109.747L110.987 33.8746H112.146L110.6 36.1578L112.186 38.6021Z" fill="white"/>
<path d="M116.956 38.6851C116.583 38.6851 116.239 38.6237 115.926 38.5024C115.611 38.3812 115.338 38.2102 115.105 37.9893C114.871 37.7685 114.691 37.5094 114.563 37.2122C114.436 36.915 114.371 36.5912 114.371 36.2392C114.371 35.8838 114.436 35.5583 114.563 35.2628C114.691 34.9672 114.871 34.7098 115.105 34.489C115.338 34.2681 115.611 34.0971 115.922 33.9759C116.234 33.8546 116.576 33.7932 116.949 33.7932C117.321 33.7932 117.664 33.853 117.975 33.9725C118.287 34.0921 118.56 34.2615 118.793 34.4823C119.027 34.7032 119.207 34.9622 119.335 35.2594C119.462 35.5567 119.527 35.8838 119.527 36.2392C119.527 36.5912 119.462 36.915 119.335 37.2155C119.207 37.5144 119.025 37.7751 118.793 37.996C118.56 38.2168 118.287 38.3862 117.975 38.5058C117.664 38.6253 117.325 38.6851 116.956 38.6851ZM116.949 37.7585C117.159 37.7585 117.355 37.722 117.532 37.6473C117.709 37.5725 117.865 37.4679 118 37.3301C118.134 37.1923 118.239 37.0329 118.313 36.8502C118.388 36.6676 118.424 36.465 118.424 36.2392C118.424 36.0133 118.388 35.8107 118.313 35.6281C118.239 35.4454 118.134 35.286 118 35.1482C117.866 35.0104 117.709 34.9058 117.532 34.831C117.355 34.7563 117.161 34.7198 116.949 34.7198C116.739 34.7198 116.543 34.7563 116.363 34.831C116.184 34.9058 116.027 35.0104 115.894 35.1482C115.762 35.286 115.659 35.4454 115.585 35.6281C115.51 35.8107 115.474 36.015 115.474 36.2392C115.474 36.465 115.51 36.6676 115.585 36.8502C115.659 37.0329 115.762 37.1923 115.894 37.3301C116.027 37.4679 116.182 37.5725 116.363 37.6473C116.543 37.722 116.739 37.7585 116.949 37.7585Z" fill="white"/>
<path d="M126.715 33.8746V38.6021H125.624V36.6642H123.488V38.6021H122.391V33.8746H123.488V35.7393H125.624V33.8746H126.715Z" fill="white"/>
<path d="M133.516 33.8746V34.7663H132.007V38.6021H130.929V34.7663H129.428V33.8746H133.516Z" fill="white"/>
<path d="M139.873 37.7253V38.6021H136.223V33.8746H139.786V34.753H137.307V35.7726H139.496V36.631H137.307V37.7253H139.873Z" fill="white"/>
<path d="M142.775 38.6037V33.8746H143.853V36.9615L146.11 33.8746H147.133V38.6037H146.055V35.5301L143.805 38.6037H142.775ZM144.944 33.5707C144.504 33.5707 144.179 33.481 143.967 33.3C143.756 33.1207 143.648 32.865 143.645 32.5362H144.393C144.398 32.6989 144.446 32.8218 144.537 32.9048C144.63 32.9879 144.765 33.0294 144.944 33.0294C145.128 33.0294 145.269 32.9879 145.365 32.9048C145.461 32.8218 145.511 32.6989 145.511 32.5362H146.251C146.251 32.865 146.145 33.1191 145.934 33.3C145.724 33.481 145.393 33.5707 144.944 33.5707Z" fill="white"/>
<path d="M154.651 33.8746V38.6021H153.56V36.6642H151.424V38.6021H150.326V33.8746H151.424V35.7393H153.56V33.8746H154.651Z" fill="white"/>
<path d="M161.5 37.7253V38.6021H157.85V33.8746H161.413V34.753H158.934V35.7726H161.123V36.631H158.934V37.7253H161.5Z" fill="white"/>
<path d="M168.242 34.6716C168.075 34.4142 167.839 34.2183 167.535 34.0805C167.229 33.9427 166.864 33.8746 166.444 33.8746H164.402V38.6021H165.5V37.2986H166.444C166.864 37.2986 167.229 37.2288 167.535 37.0893C167.839 36.9498 168.075 36.7539 168.242 36.4982C168.407 36.2441 168.49 35.9386 168.49 35.5833C168.49 35.2329 168.407 34.929 168.242 34.6716ZM167.137 36.191C166.965 36.3355 166.715 36.4069 166.382 36.4069H165.5V34.7663H166.382C166.715 34.7663 166.965 34.8377 167.137 34.9788C167.308 35.12 167.392 35.3225 167.392 35.5833C167.392 35.844 167.308 36.0465 167.137 36.191Z" fill="white"/>
<path d="M173.522 35.4355C174.084 35.4355 174.521 35.5617 174.832 35.8141C175.143 36.0665 175.301 36.4467 175.301 36.9548C175.301 37.4945 175.128 37.9046 174.786 38.1836C174.443 38.4626 173.968 38.6021 173.362 38.6021H171.234V33.8746H172.312V35.4355H173.522ZM173.294 37.7934C173.58 37.7934 173.804 37.722 173.965 37.5808C174.123 37.4397 174.203 37.2371 174.203 36.9764C174.203 36.7157 174.123 36.5264 173.965 36.4085C173.806 36.2923 173.582 36.2325 173.294 36.2325H172.311V37.7934H173.294ZM175.907 38.6037V33.8746H176.984V38.6037H175.907Z" fill="white"/>
</g>
<defs>
<clipPath id="clip0_270_1484">
<rect width="177" height="45" fill="white"/>
</clipPath>
</defs>
</svg>
