<svg width="855" height="488" viewBox="0 0 855 488" fill="none" xmlns="http://www.w3.org/2000/svg">
<g clip-path="url(#clip0_270_41617)">
<path d="M264.323 39.0439C265.398 39.0439 266.388 39.1403 267.272 39.2838C271.905 40.0033 276.538 40.7252 281.173 41.4448C283.605 40.8451 286.037 40.2432 288.469 39.6435C288.939 39.5965 289.466 39.5659 290.044 39.5659C291.018 39.5659 292.13 39.6553 293.332 39.914C297.313 40.7699 299.954 42.9756 301.168 44.1466C304.651 44.5981 308.134 45.0472 311.617 45.4963C315.086 44.0902 318.011 43.8409 319.815 43.8315C319.932 43.8315 320.052 43.8315 320.175 43.8315C321.299 43.8315 322.628 43.8785 324.227 44.3277C327.399 45.2212 329.488 47.1001 330.532 48.2005C368.449 53.663 406.368 59.1278 444.285 64.5903C446.388 63.9907 448.488 63.3887 450.59 62.7891C451.261 62.6033 452.274 62.3893 453.502 62.3893C454.158 62.3893 454.875 62.4505 455.632 62.608C459.55 63.424 461.728 66.234 462.297 67.0217C468.452 67.9811 474.606 68.9429 480.761 69.9023C482.863 69.211 484.963 68.522 487.066 67.8306C487.571 67.7483 488.209 67.6754 488.945 67.6754C489.749 67.6754 490.671 67.7601 491.659 68.0094C495.36 68.9405 497.468 71.5154 498.142 72.4231L637.024 93.6757C638.906 92.8456 640.787 92.0155 642.669 91.1831C643.205 91.0608 643.95 90.9362 644.835 90.9362C645.514 90.9362 646.274 91.0091 647.08 91.2137C650.916 92.1801 652.807 95.3217 653.204 96.0177C661.635 97.3228 670.066 98.6302 678.497 99.9353C680.216 99.1123 681.933 98.2869 683.652 97.4616C684.054 97.3816 684.727 97.2734 685.569 97.2734C686.566 97.2734 687.805 97.4239 689.125 97.953C692.208 99.1875 693.645 101.645 694.033 102.367C702.979 103.836 711.927 105.308 720.873 106.78C722.31 107.136 724.695 107.921 727.134 109.753C729.768 111.73 731.228 114.007 731.952 115.335C734.13 116.958 736.912 119.38 739.563 122.81C741.893 125.825 743.429 128.72 744.44 131.022C747.723 132.562 751.006 134.105 754.287 135.645C754.675 135.821 755.627 136.32 756.297 137.415C757.156 138.817 756.961 140.225 756.897 140.597C756.363 146.831 755.945 151.43 755.815 153.114C755.792 153.408 755.738 154.144 755.364 155.004C754.957 155.943 754.357 156.589 753.922 156.987C751.7 158.548 749.48 160.11 747.257 161.671C742.453 213.693 737.651 265.717 732.846 317.738C734.335 319.474 740.842 327.433 739.421 337.82C738.979 341.051 737.883 343.694 736.809 345.655L726.722 356.911C725.137 358.489 721.645 361.501 716.365 362.585C715.041 362.858 713.759 362.976 712.522 362.976C703.985 362.976 697.756 357.269 697.001 356.552C693.309 355.562 689.616 354.569 685.922 353.579C664.036 374.844 642.149 396.106 620.264 417.37C619.984 422.313 619.704 427.256 619.424 432.198C621.108 434.376 629.344 445.458 625.969 457.594C625.48 459.351 624.678 461.387 623.328 463.539C618.902 468.275 614.862 472.597 610.541 477.217C608.669 479.221 606.412 480.834 603.888 481.902C601.452 482.934 598.291 483.86 594.726 483.86C594.357 483.86 593.983 483.851 593.604 483.83C585.042 483.357 579.578 478.405 578.172 477.046C573.048 475.515 567.926 473.984 562.801 472.453C561.487 473.333 559.285 474.558 556.317 475.155C555.062 475.407 553.874 475.506 552.783 475.506C550.273 475.506 548.277 474.983 547.129 474.614C538.872 472.032 530.618 469.451 522.361 466.869C521.968 467.261 519.614 469.538 516.204 469.538C516.002 469.538 515.795 469.53 515.585 469.512C511.966 469.22 508.782 466.396 507.77 462.455C498.253 459.544 488.736 456.63 479.22 453.719C478.926 453.91 476.509 455.429 473.294 455.429C472.139 455.429 470.884 455.233 469.585 454.709C465.298 452.983 463.849 449.012 463.64 448.405C413.713 432.916 363.785 417.427 313.86 401.935C313.385 402.086 312.315 402.379 310.918 402.379C309.98 402.379 308.891 402.245 307.736 401.843C304.95 400.874 303.449 398.932 302.962 398.241C294.167 395.508 285.369 392.778 276.574 390.046C276.113 390.178 274.986 390.469 273.53 390.469C272.211 390.469 270.619 390.229 269.008 389.416C267.214 388.51 266.094 387.245 265.494 386.443L138.891 346.579C138.275 346.854 136.132 347.755 133.277 347.755C131.935 347.755 130.437 347.555 128.863 347C124.491 345.453 122.349 342.132 121.777 341.175C117.053 339.715 112.33 338.252 107.606 336.792C107.046 336.966 105.005 337.566 102.406 337.566C100.026 337.566 97.1782 337.06 94.5772 335.261C92.8769 334.086 91.7434 332.675 91.0049 331.508C86.7059 329.916 82.4093 328.327 78.1103 326.735C76.5911 326.156 73.7079 324.818 71.1751 321.917C69.2372 319.697 68.2777 317.449 67.798 316.019C51.0019 213.227 43.7703 167.973 43.6903 165.791C43.6644 165.048 43.6339 164.709 43.5727 164.034C43.3963 162.057 43.2576 160.603 42.625 158.978C42.4392 158.501 42.1311 157.807 41.6349 157.013C39.0409 156.206 37.096 155.501 36.2 155.106C35.9319 154.988 35.4663 154.769 35.1794 154.28C34.9606 153.906 34.9324 153.523 34.9395 153.274C33.9517 152.674 33.3521 152.009 33.0111 151.555C32.5948 151.005 32.5054 150.699 32.4702 150.537C32.275 149.657 32.7383 148.888 32.9217 148.618C32.616 147.764 32.2985 146.591 32.2021 145.173C32.0704 143.282 32.3832 141.728 32.6748 140.712C32.5431 140.23 32.3267 139.165 32.7289 137.959C33.0746 136.924 33.7072 136.301 34.1164 135.908C34.8995 135.156 35.6544 134.796 38.1684 133.836C39.1609 133.458 40.3414 133.021 41.6819 132.546C41.2868 130.302 39.8288 120.579 46.0044 111.773C49.1957 107.225 53.149 104.735 55.5525 103.488C99.2148 89.7793 256.664 40.356 260.215 39.5189C261.529 39.2085 262.856 39.098 262.856 39.098C263.359 39.0557 263.848 39.0369 264.319 39.0369M264.319 34.8042C263.717 34.8042 263.105 34.8301 262.505 34.8794C262.336 34.8936 260.817 35.0252 259.239 35.3991C256.045 36.1539 146.019 70.6477 54.2825 99.4509L53.9298 99.5614L53.6005 99.7307C49.1557 102.038 45.3295 105.36 42.5379 109.344C37.3547 116.734 36.7621 124.661 37.089 129.719C36.9455 129.773 36.8021 129.827 36.6586 129.881C34.1375 130.843 32.6395 131.454 31.1791 132.856C30.6452 133.369 29.3941 134.57 28.7097 136.616C28.2841 137.888 28.1594 139.243 28.3358 140.588C27.9807 142.191 27.8607 143.828 27.9736 145.465C28.0418 146.44 28.1924 147.409 28.4252 148.359C28.143 149.377 28.1077 150.431 28.3335 151.451C28.5334 152.359 28.9449 153.201 29.6293 154.106C30.0879 154.715 30.6146 155.273 31.2002 155.778C31.2943 155.997 31.4025 156.211 31.5224 156.415C32.5125 158.111 34.0059 158.767 34.4974 158.983C35.4145 159.385 36.9126 159.933 38.6764 160.512C38.6764 160.512 38.6764 160.512 38.6764 160.514C39.0856 161.565 39.1891 162.571 39.3537 164.41C39.4125 165.069 39.4337 165.316 39.4572 165.948C39.4972 167.06 39.5912 169.668 63.6166 316.706L63.673 317.044L63.7835 317.371C64.6984 320.092 66.1118 322.559 67.9837 324.706C70.3002 327.358 73.2775 329.43 76.6005 330.695L76.6193 330.702L76.6381 330.709L87.7901 334.838L88.2887 335.024C89.3916 336.479 90.6898 337.726 92.1643 338.746C95.0946 340.776 98.5399 341.803 102.401 341.803C104.445 341.803 106.235 341.504 107.519 341.201L119.094 344.78C120.623 346.847 123.275 349.516 127.445 350.993C129.317 351.656 131.276 351.99 133.27 351.99C135.589 351.99 137.579 351.534 139.013 351.061L263.035 390.112C264.199 391.382 265.581 392.435 267.091 393.197C269.074 394.196 271.237 394.704 273.523 394.704C274.48 394.704 275.459 394.61 276.407 394.431L292.904 399.555L300.467 401.904C301.662 403.247 303.576 404.886 306.342 405.845C307.812 406.356 309.35 406.614 310.914 406.614C311.854 406.614 312.809 406.518 313.736 406.33L387.493 429.212L460.571 451.885C461.728 454.03 463.974 457.014 468 458.634C469.689 459.313 471.469 459.659 473.292 459.659C475.928 459.659 478.143 458.946 479.646 458.274L484.218 459.673L504.504 465.879C506.501 470.297 510.576 473.349 515.247 473.728C515.564 473.754 515.886 473.768 516.206 473.768C519.193 473.768 521.587 472.677 523.243 471.576L545.855 478.647C548.103 479.369 550.433 479.736 552.783 479.736C554.248 479.736 555.718 479.59 557.152 479.301C559.339 478.861 561.425 478.102 563.382 477.041L576.02 480.818C577.554 482.184 579.303 483.43 581.133 484.458C584.959 486.607 589.077 487.815 593.371 488.053C593.818 488.079 594.274 488.091 594.726 488.091C598.308 488.091 601.946 487.319 605.539 485.796C608.587 484.505 611.311 482.588 613.634 480.103L614.909 478.739L626.418 466.424L626.696 466.128L626.912 465.785C628.307 463.56 629.362 461.185 630.047 458.725C631.731 452.673 631.216 446.23 628.516 439.57C627.06 435.977 625.245 433.021 623.737 430.908L624.059 425.226L624.398 419.254L649.404 394.961L687.149 358.289L694.938 360.38C697.405 362.473 703.936 367.208 712.525 367.208C714.096 367.208 715.674 367.049 717.219 366.731C723.093 365.525 727.256 362.357 729.711 359.912L729.796 359.827L729.876 359.738L734.92 354.108L739.965 348.479L740.292 348.114L740.527 347.686C742.138 344.742 743.18 341.615 743.619 338.393C744.986 328.414 740.28 320.421 737.223 316.417L746.978 210.779L751.295 164.008L753.026 162.793L756.359 160.45L756.575 160.298L756.77 160.119C757.852 159.136 758.687 157.981 759.247 156.69C759.903 155.183 760.001 153.873 760.034 153.441C760.103 152.538 760.258 150.769 760.472 148.324C760.648 146.32 760.862 143.873 761.1 141.1C761.286 139.821 761.323 137.521 759.905 135.203C758.755 133.326 757.191 132.32 756.069 131.805L751.159 129.5L747.631 127.845C746.324 125.148 744.739 122.592 742.909 120.221C740.675 117.331 738.081 114.731 735.193 112.485C733.766 110.122 731.872 108.02 729.673 106.369C727.343 104.617 724.723 103.373 721.887 102.672L721.722 102.632L721.555 102.604L711.008 100.871L696.544 98.4938C695.357 96.9395 693.485 95.1454 690.693 94.0284C689.064 93.3747 687.337 93.0455 685.562 93.0455C684.638 93.0455 683.716 93.1372 682.815 93.3159L682.293 93.4194L681.813 93.6498L677.841 95.5545L668.74 94.146L655.65 92.119C654.23 90.3154 651.796 88.0439 648.106 87.1151C647.038 86.847 645.935 86.7106 644.825 86.7106C643.788 86.7106 642.741 86.8305 641.716 87.0633L641.321 87.1527L640.949 87.3173L636.434 89.3113L500.339 68.4843C498.775 66.8172 496.259 64.8114 492.679 63.9107C491.461 63.605 490.198 63.4475 488.931 63.4475C488.079 63.4475 487.216 63.518 486.365 63.6591L486.043 63.7132L485.732 63.8143L482.581 64.849L480.396 65.5662L472.17 64.2823L464.524 63.0901C462.911 61.3406 460.287 59.2595 456.481 58.4671C455.501 58.2625 454.494 58.159 453.488 58.159C452.131 58.159 450.771 58.3448 449.447 58.7116L449.431 58.7163L449.414 58.721L446.893 59.4406L443.982 60.273L332.479 44.2077C330.398 42.343 327.964 40.9862 325.363 40.2549C323.314 39.6788 321.586 39.6012 320.165 39.6012C320.036 39.6012 319.909 39.6012 319.784 39.6012C316.861 39.6177 313.943 40.142 311.095 41.1649L303.005 40.1185C301.008 38.4443 298.075 36.6078 294.212 35.7777C292.845 35.4838 291.441 35.3356 290.033 35.3356C289.372 35.3356 288.701 35.3686 288.041 35.4344L287.737 35.465L287.441 35.5379L283.793 36.4385L280.971 37.1345L271.386 35.6437L267.926 35.1052C266.722 34.91 265.506 34.8113 264.312 34.8113L264.319 34.8042Z" fill="#8E949B"/>
<path d="M41.6856 132.555C40.3475 133.03 39.1669 133.467 38.1722 133.846C35.6581 134.803 34.9009 135.165 34.1201 135.918C33.7109 136.31 33.0807 136.931 32.7326 137.968C32.3304 139.172 32.5468 140.24 32.6785 140.722C32.3869 141.74 32.0741 143.294 32.2058 145.182C32.3046 146.6 32.6221 147.771 32.9254 148.627C32.742 148.898 32.2811 149.667 32.4739 150.546C32.5092 150.708 32.5985 151.014 33.0148 151.564C33.3558 152.018 33.9555 152.684 34.9432 153.283C34.9362 153.53 34.9644 153.916 35.1831 154.29C35.47 154.779 35.9357 154.997 36.2037 155.115C37.0998 155.508 39.0447 156.215 41.6386 157.022C42.1372 157.817 42.4429 158.511 42.6287 158.988C43.2613 160.615 43.4024 162.066 43.5765 164.044C43.6376 164.721 43.6658 165.059 43.694 165.8C43.774 167.982 51.0056 213.236 67.8017 316.029C68.2815 317.458 69.241 319.709 71.1788 321.929C73.7116 324.83 76.5949 326.168 78.1141 326.747C82.4131 328.339 86.7097 329.928 91.0087 331.52C91.7495 332.686 92.883 334.095 94.5809 335.273C100.021 339.04 106.54 337.136 107.61 336.804C112.334 338.264 117.057 339.727 121.781 341.187C122.353 342.144 124.493 345.464 128.867 347.012C133.787 348.752 137.989 346.995 138.895 346.591L265.498 386.455C266.098 387.257 267.215 388.522 269.012 389.428C272.403 391.139 275.695 390.309 276.577 390.058C285.373 392.79 294.171 395.52 302.966 398.253C303.453 398.944 304.953 400.886 307.74 401.855C310.614 402.854 313.069 402.196 313.864 401.944C363.791 417.434 413.719 432.923 463.644 448.414C463.853 449.019 465.302 452.99 469.589 454.719C474.504 456.698 478.827 453.987 479.227 453.729C488.744 456.64 498.261 459.553 507.777 462.464C508.788 466.405 511.974 469.229 515.591 469.521C519.333 469.822 521.951 467.292 522.367 466.878C530.624 469.46 538.878 472.042 547.135 474.624C548.782 475.155 552.177 475.997 556.321 475.165C559.289 474.567 561.49 473.342 562.805 472.463C567.929 473.994 573.051 475.524 578.176 477.055C579.582 478.414 585.045 483.367 593.608 483.839C597.629 484.06 601.202 483.051 603.892 481.911C606.416 480.841 608.673 479.228 610.545 477.227C614.863 472.606 618.906 468.282 623.332 463.548C624.682 461.397 625.486 459.36 625.973 457.604C629.347 445.468 621.112 434.385 619.428 432.208C619.708 427.265 619.987 422.322 620.267 417.38C642.153 396.115 664.04 374.853 685.925 353.589C689.618 354.579 693.31 355.571 697.004 356.561C697.872 357.382 705.908 364.742 716.369 362.595C721.648 361.511 725.141 358.499 726.726 356.921C730.089 353.168 733.452 349.417 736.812 345.664C737.885 343.703 738.983 341.06 739.425 337.829C740.846 327.44 734.338 319.481 732.85 317.748C737.654 265.726 742.457 213.702 747.261 161.68C749.484 160.119 751.704 158.558 753.926 156.999C754.361 156.603 754.958 155.957 755.368 155.016C755.741 154.156 755.796 153.417 755.819 153.126C755.948 151.44 756.367 146.84 756.901 140.609C756.964 140.237 757.16 138.829 756.301 137.427C755.629 136.329 754.676 135.833 754.29 135.657L744.444 131.034C743.433 128.734 741.897 125.839 739.566 122.825C736.916 119.396 734.134 116.972 731.956 115.349C731.232 114.018 729.771 111.744 727.137 109.767C724.699 107.935 722.314 107.15 720.877 106.795C711.931 105.323 702.983 103.853 694.037 102.381C693.649 101.661 692.212 99.204 689.128 97.9671C686.694 96.9936 684.536 97.2993 683.656 97.4757C681.937 98.3011 680.22 99.1241 678.501 99.9494C670.07 98.6444 661.639 97.337 653.208 96.0319C652.811 95.3359 650.917 92.1966 647.084 91.2278C645.224 90.7575 643.618 90.9809 642.67 91.1973C640.789 92.0273 638.907 92.8574 637.026 93.6898L498.144 72.4372C497.467 71.5295 495.359 68.9547 491.66 68.0235C489.767 67.5461 488.125 67.6684 487.067 67.8424C484.965 68.5338 482.865 69.2227 480.762 69.9141C474.608 68.9523 468.453 67.9929 462.299 67.0312C461.73 66.2458 459.552 63.4334 455.634 62.6175C453.451 62.1636 451.619 62.514 450.589 62.7985C448.487 63.3981 446.387 64.0001 444.284 64.5997C406.367 59.1373 368.448 53.6725 330.531 48.21C329.487 47.1095 327.401 45.2307 324.226 44.3371C322.455 43.8386 321.013 43.8362 319.814 43.8433C318.01 43.8527 315.085 44.102 311.616 45.5081C308.133 45.059 304.65 44.6075 301.167 44.1584C299.954 42.9874 297.313 40.7817 293.331 39.9257C291.417 39.5142 289.73 39.5307 288.468 39.6553C286.036 40.2549 283.604 40.8569 281.173 41.4565C276.54 40.737 271.907 40.0151 267.271 39.2955C265.999 39.0886 264.51 38.9781 262.857 39.1145C262.857 39.1145 261.531 39.225 260.216 39.5354C256.665 40.3749 99.2162 89.7958 55.5539 103.505C53.1527 104.751 49.1971 107.241 46.0058 111.789C39.8278 120.595 41.2859 130.319 41.6833 132.562L41.6856 132.555Z" stroke="#8E949B" stroke-width="0.869359" stroke-miterlimit="10"/>
<path d="M98.672 156.749C98.672 156.749 95.4148 157.394 92.668 164.735" stroke="#8E949B" stroke-width="0.869359" stroke-miterlimit="10" stroke-linecap="round"/>
<path d="M116.85 95.919C115.175 95.8226 114.399 96.7091 114.326 98.3716C104.609 101.544 94.8892 104.718 85.1718 107.89C80.4825 109.833 73.1309 113.788 67.609 121.578C61.5862 130.076 60.6456 139.043 59.9541 145.624C59.3686 151.195 59.5967 155.884 59.9236 159.162L60.2834 162.717" stroke="#8E949B" stroke-width="0.869359" stroke-miterlimit="10" stroke-linecap="round"/>
<path d="M301.169 44.149C298.347 43.5987 295.525 43.0485 292.702 42.4983C291.414 42.2466 290.031 42.3337 288.559 42.7381L273.526 46.8391" stroke="#8E949B" stroke-width="0.869359" stroke-miterlimit="10" stroke-linecap="round"/>
<path d="M330.532 48.2005L324.429 46.9848C321.969 46.578 319.984 46.8038 318.305 47.434L119.781 113.851C109.976 118.707 105.334 129.757 104.556 144.021" stroke="#8E949B" stroke-width="0.869359" stroke-miterlimit="10" stroke-linecap="round"/>
<path d="M114.577 116.059C98.7361 124.031 92.2594 140.178 92.6686 164.735L235.513 197.695C234.629 174.604 240.405 156.982 253.415 145.297C256.272 142.732 259.557 140.686 263.108 139.224L444.289 64.5925" stroke="#8E949B" stroke-width="0.869359" stroke-miterlimit="10" stroke-linecap="round"/>
<path d="M119.78 113.851C117.943 114.5 116.208 115.236 114.573 116.057" stroke="#8E949B" stroke-width="0.869359" stroke-miterlimit="10" stroke-linecap="round"/>
<path d="M41.6887 132.555C41.2913 138.398 48.4147 140.164 56.8927 141.199" stroke="#8E949B" stroke-width="0.869359" stroke-miterlimit="10" stroke-linecap="round"/>
<path d="M34.9488 153.283L41.9593 155.098C41.9593 155.098 41.9593 152.756 44.0312 152.352L32.4795 149.667" stroke="#8E949B" stroke-width="0.869359" stroke-miterlimit="10" stroke-linecap="round"/>
<path d="M56.3848 146.097C52.1963 149.008 48.0079 151.917 43.8194 154.828C43.5913 155.07 42.6154 156.154 42.6483 157.77C42.6671 158.724 43.0316 159.437 43.2433 159.785C43.2456 159.823 43.248 159.858 43.2527 159.895C47.7962 160.888 52.3374 161.88 56.881 162.872" stroke="#8E949B" stroke-width="0.869359" stroke-miterlimit="10" stroke-linecap="round"/>
<path d="M56.1217 165.821L43.7821 163.023C43.3329 162.125 43.1777 161.071 43.2506 159.895" stroke="#8E949B" stroke-width="0.869359" stroke-miterlimit="10" stroke-linecap="round"/>
<path d="M57.4548 168.133L44.0546 165.048C44.0546 165.048 43.4479 164.034 43.7842 163.021" stroke="#8E949B" stroke-width="0.869359" stroke-miterlimit="10" stroke-linecap="round"/>
<path d="M55.9264 149.986C56.1475 150.127 51.3288 151.327 52.0649 153.02C52.7586 154.621 56.131 153.76 55.9264 153.981" stroke="#8E949B" stroke-width="0.869359" stroke-miterlimit="10" stroke-linecap="round"/>
<path d="M85.171 107.893C85.171 107.893 70.5103 115.984 71.5921 138.798C71.5921 138.798 62.8883 139.701 61.2656 152.383L63.6667 178.183C63.6667 178.183 64.1159 182.655 68.7559 184.186L71.7285 184.953L72.4458 196.651C72.4458 196.68 72.4223 196.701 72.3964 196.694L65.7786 195.224C65.6704 195.201 65.5693 195.288 65.5787 195.4L67.0462 212.961C67.0462 212.961 67.0909 214.897 69.2074 216.249C71.324 217.598 92.2639 221.831 92.2639 221.831C92.2639 221.831 95.0554 222.24 95.0107 219.694" stroke="#8E949B" stroke-width="0.869359" stroke-miterlimit="10" stroke-linecap="round"/>
<path d="M92.4062 200.75C92.4062 200.75 86.8043 199.36 86.6514 199.36C86.4986 199.36 85.8213 185.447 85.8213 185.447" stroke="#8E949B" stroke-width="0.869359" stroke-miterlimit="10" stroke-linecap="round"/>
<path d="M91.1065 189.999L88.6584 189.47C88.2985 189.392 87.9811 189.178 87.7741 188.875C87.0168 187.758 85.1966 184.936 84.8768 183.196C84.5334 181.327 84.19 177.484 84.0936 176.356C84.0772 176.165 83.9384 176.01 83.7526 175.972L69.4329 173.005C69.3647 172.991 69.3012 173.045 69.3059 173.115L69.7457 179.596C69.7457 179.596 70.4653 182.613 71.8176 183.424" stroke="#8E949B" stroke-width="0.869359" stroke-miterlimit="10" stroke-linecap="round"/>
<path d="M71.7247 184.953C71.7247 184.953 71.68 178.964 73.3451 177.569C75.0125 176.172 77.5076 174.679 77.5076 174.679" stroke="#8E949B" stroke-width="0.869359" stroke-miterlimit="10" stroke-linecap="round"/>
<path d="M65.5576 195.172L72.0931 190.907" stroke="#8E949B" stroke-width="0.869359" stroke-miterlimit="10" stroke-linecap="round"/>
<path d="M86.6514 199.36L91.6112 194.274" stroke="#8E949B" stroke-width="0.869359" stroke-miterlimit="10" stroke-linecap="round"/>
<path d="M56.5196 157.831L56.6631 159.714C56.6631 159.714 54.951 161.269 56.776 162.19L59.8779 162.842C59.8779 162.842 61.1032 162.682 62.0721 161.038" stroke="#8E949B" stroke-width="0.869359" stroke-miterlimit="10" stroke-linecap="round"/>
<path d="M106.658 143.031L101.254 145.432C101.254 145.432 98.4932 146.421 98.4932 151.376L98.6742 156.749C98.6742 156.749 99.2151 157.589 100.777 156.93L108.041 152.787V143.421C108.041 143.421 107.613 142.607 106.661 143.031" stroke="#8E949B" stroke-width="0.869359" stroke-miterlimit="10" stroke-linecap="round"/>
<path d="M108.039 143.421L102.169 145.958C102.169 145.958 99.6761 147.459 99.8878 150.715L100.015 157.156" stroke="#8E949B" stroke-width="0.869359" stroke-miterlimit="10" stroke-linecap="round"/>
<path d="M103.624 151.865C104.146 151.865 104.57 151.341 104.57 150.694C104.57 150.047 104.146 149.523 103.624 149.523C103.102 149.523 102.679 150.047 102.679 150.694C102.679 151.341 103.102 151.865 103.624 151.865Z" stroke="#8E949B" stroke-width="0.869359" stroke-miterlimit="10" stroke-linecap="round"/>
<path d="M108.039 152.787L236.195 180.715" stroke="#8E949B" stroke-width="0.869359" stroke-miterlimit="10" stroke-linecap="round"/>
<path d="M266.495 48.9811C266.495 48.7318 266.523 47.9841 267.057 47.2998C267.833 46.3051 269.03 46.2675 269.197 46.2651C278.682 47.5961 288.169 48.9247 297.653 50.2556" stroke="#8E949B" stroke-width="0.869359" stroke-miterlimit="10" stroke-linecap="round"/>
<path d="M121.697 341.004C121.284 340.315 120.686 339.216 120.183 337.787C119.405 335.572 119.263 333.709 119.212 332.823C119.212 332.823 119.386 321.479 109.327 237.739C109.327 237.739 109.024 235.467 108.039 234.03C107.625 233.428 107.237 233.062 107.06 232.866C105.99 231.67 105.188 231.451 100.621 228.794C97.4416 226.943 98.1072 227.164 97.6792 226.691C95.8918 224.728 95.4238 222.329 95.2169 221.036C94.4926 216.517 92.0891 200.181 89.5116 175.573C89.4246 175.523 88.5074 164.178 88.4486 163.138C88.3992 162.266 88.1476 157.516 88.7002 152.232C89.0012 149.344 89.6221 143.405 92.3995 136.343C94.2597 131.614 97.3546 123.742 104.824 117.995C108.709 115.006 112.352 113.687 113.92 113.132C125.249 109.132 203.757 82.2193 311.617 45.4987" stroke="#8E949B" stroke-width="0.869359" stroke-miterlimit="10" stroke-linecap="round"/>
<path d="M91.0173 331.518C90.5846 330.817 90.1378 329.98 89.745 329.004C88.9901 327.127 88.7032 325.416 88.6021 324.122C85.0956 292.965 81.5869 261.811 78.0804 230.654C77.7394 227.625 76.1896 226.282 75.7828 225.835C74.7127 224.657 73.9108 224.443 69.3437 221.829C66.1641 220.008 65.7197 219.635 65.2917 219.171C63.5043 217.238 63.0669 214.903 62.86 213.634C62.1356 209.187 59.9414 191.462 57.3663 167.256C57.2793 167.206 56.0705 166.517 55.967 165.095C55.8706 163.789 56.7831 162.962 56.8865 162.872C56.7642 162.764 55.332 161.452 55.619 159.627C55.7624 158.713 56.2727 158.097 56.5267 157.828C56.1975 154.551 55.9717 149.862 56.5573 144.291C57.2487 137.709 58.1894 128.745 64.2122 120.245C69.7341 112.454 77.0856 108.497 81.775 106.557L281.181 41.447" stroke="#8E949B" stroke-width="0.869359" stroke-miterlimit="10" stroke-linecap="round"/>
<path d="M314.471 402.123L307.176 399.301C307.176 399.301 304.744 398.25 304.744 395.069" stroke="#8E949B" stroke-width="0.869359" stroke-miterlimit="10" stroke-linecap="round"/>
<path d="M522.374 466.873L517.631 465.342C517.631 465.342 513.908 464.771 513.939 458.768C513.969 452.764 514 273.577 514 273.577" stroke="#8E949B" stroke-width="0.869359" stroke-miterlimit="10" stroke-linecap="round"/>
<path d="M119.78 96.5915C168.685 80.7214 217.589 64.8513 266.493 48.9812C274.779 50.1217 283.066 51.2598 291.351 52.4002" stroke="#8E949B" stroke-width="0.869359" stroke-miterlimit="10" stroke-linecap="round"/>
<path d="M60.6318 165.443L60.7612 168.589C63.3363 192.797 65.5305 210.523 66.2548 214.967C66.4618 216.237 66.276 216.451 68.0657 218.384C68.4937 218.847 68.9382 219.221 72.1177 221.041C76.6871 223.656 77.4867 223.87 78.5568 225.048C78.9613 225.495 81.1343 228.961 81.4753 231.989C84.9817 263.146 88.4905 294.301 91.997 325.458C92.1004 326.751 92.385 328.463 93.1399 330.34C93.1399 330.34 95.6328 336.583 101.759 337.563" stroke="#8E949B" stroke-width="0.869359" stroke-miterlimit="10" stroke-linecap="round"/>
<path d="M116.796 95.9189C126.372 98.0212 137.597 99.5567 147.176 101.659" stroke="#8E949B" stroke-width="0.869359" stroke-miterlimit="10" stroke-linecap="round"/>
<path d="M57.3604 167.256L57.0664 164.958" stroke="#8E949B" stroke-width="0.869359" stroke-miterlimit="10" stroke-linecap="round"/>
<path d="M32.6826 140.719L56.4117 145.777" stroke="#8E949B" stroke-width="0.869359" stroke-miterlimit="10" stroke-linecap="round"/>
<path d="M71.5918 138.798L90.448 142.309" stroke="#8E949B" stroke-width="0.869359" stroke-miterlimit="10" stroke-linecap="round"/>
<path d="M82.9766 219.865L94.6671 326.862C94.9657 329.601 96.3744 332.134 98.6321 333.716C99.6034 334.396 100.803 334.981 102.277 335.329L108.056 336.935" stroke="#8E949B" stroke-width="0.869359" stroke-miterlimit="10" stroke-linecap="round"/>
<path d="M62.3655 164.208L60.9639 165.334C60.9639 165.334 56.1122 165.962 57.0694 164.208L58.7485 162.607" stroke="#8E949B" stroke-width="0.869359" stroke-miterlimit="10" stroke-linecap="round"/>
<path d="M116.26 224.723L127.026 338.727C127.198 340.545 128.143 342.219 129.655 343.245C130.532 343.837 131.701 344.416 133.253 344.848L139.269 346.706" stroke="#8E949B" stroke-width="0.869359" stroke-miterlimit="10" stroke-linecap="round"/>
<path d="M256.137 215.886C256.137 215.886 251.454 222.461 251.903 226.602C252.331 230.536 252.353 239.26 252.353 240.13C252.353 240.168 252.32 240.194 252.282 240.184L244.46 238.428C244.397 238.413 244.338 238.463 244.338 238.526L244.785 256.95C244.785 256.95 244.874 260.287 248.206 261.456C251.539 262.624 272.886 268.028 272.886 268.028C272.886 268.028 276.67 269.829 276.848 264.877C277.029 259.925 276.399 246.145 276.399 246.145L268.107 244.019C268.025 243.998 267.966 243.923 267.966 243.838V228.043" stroke="#8E949B" stroke-width="0.869359" stroke-miterlimit="10" stroke-linecap="round"/>
<path d="M251.949 225.022C251.949 225.022 249.924 223.181 250.194 220.571L250.169 216.136C250.169 216.136 249.945 214.132 252.13 214.673L265.984 217.96C265.984 217.96 268.086 218.141 267.576 221.412L267.656 225.765C267.656 225.765 267.637 230.778 271.118 231.829C274.601 232.88 276.318 233.264 276.318 233.264" stroke="#8E949B" stroke-width="0.869359" stroke-miterlimit="10" stroke-linecap="round"/>
<path d="M267.972 243.984L276.574 236.666" stroke="#8E949B" stroke-width="0.869359" stroke-miterlimit="10" stroke-linecap="round"/>
<path d="M244.338 238.399L252.216 231.827" stroke="#8E949B" stroke-width="0.869359" stroke-miterlimit="10" stroke-linecap="round"/>
<path d="M257.369 271V264.019" stroke="#8E949B" stroke-width="0.869359" stroke-miterlimit="10" stroke-linecap="round"/>
<path d="M240.11 204.973C240.11 204.973 243.738 254.632 244.275 258.535C244.74 261.931 247.659 264.774 248.143 265.227C248.186 265.267 248.228 265.303 248.275 265.338C248.908 265.806 254.056 269.585 256.887 270.981C257.061 271.068 257.035 271.322 256.847 271.374C256.076 271.583 254.556 271.835 253.044 271.184C250.361 270.027 244.623 265.813 243.952 265.317C243.905 265.281 243.863 265.246 243.821 265.206C243.336 264.755 240.418 261.909 239.952 258.514C239.416 254.61 235.752 204.912 235.752 204.912" stroke="#8E949B" stroke-width="0.869359" stroke-miterlimit="10" stroke-linecap="round"/>
<path d="M296.521 280.973L294.308 227.359" stroke="#8E949B" stroke-width="0.869359" stroke-miterlimit="10" stroke-linecap="round"/>
<path d="M275.412 212.54C275.412 212.54 273.521 213.502 275.412 214.4C276.672 215 277.961 214.889 278.681 214.748C278.989 214.687 279.28 214.913 279.304 215.228C279.727 221.02 282.956 264.976 283.457 268.621C283.923 272.018 286.846 274.864 287.328 275.313C287.37 275.353 287.413 275.388 287.457 275.421C288.073 275.875 293.026 279.513 295.893 280.975C296.13 281.097 296.09 281.445 295.832 281.509C295.016 281.702 293.619 281.869 292.229 281.269C289.543 280.11 283.8 275.894 283.135 275.402C283.088 275.367 283.045 275.334 283.005 275.294C282.523 274.845 279.602 272 279.134 268.602C278.598 264.698 274.934 214.581 274.934 214.581" stroke="#8E949B" stroke-width="0.869359" stroke-miterlimit="10" stroke-linecap="round"/>
<path d="M279.26 214.598L450.052 253.258C450.052 253.258 451.673 256.59 457.258 253.978" stroke="#8E949B" stroke-width="0.869359" stroke-miterlimit="10" stroke-linecap="round"/>
<path d="M279.948 223.982L450.231 264.019" stroke="#8E949B" stroke-width="0.869359" stroke-miterlimit="10" stroke-linecap="round"/>
<path d="M313.089 284.81L290.752 298.378C290.752 298.378 280.063 300.779 278.624 299.098C277.182 297.417 224.703 281.206 201.767 277.606C201.767 277.606 196.468 276.811 199.801 272.127L225.065 260.315C225.065 260.315 230.47 260.539 230.949 267.812C231.429 275.085 226.267 277.246 226.267 277.246L217.702 280.891" stroke="#8E949B" stroke-width="0.869359" stroke-miterlimit="10" stroke-linecap="round"/>
<path d="M224.527 271.6C225.09 271.6 225.547 270.807 225.547 269.829C225.547 268.851 225.09 268.059 224.527 268.059C223.963 268.059 223.506 268.851 223.506 269.829C223.506 270.807 223.963 271.6 224.527 271.6Z" stroke="#8E949B" stroke-width="0.869359" stroke-miterlimit="10" stroke-linecap="round"/>
<path d="M225.065 260.315L221.58 259.445C220.731 259.233 219.83 259.339 219.054 259.741L186.515 276.646C186.515 276.646 182.492 278.918 179.731 276.707C179.731 276.707 178.259 275.506 179.34 274.396L205.967 261.084" stroke="#8E949B" stroke-width="0.869359" stroke-miterlimit="10" stroke-linecap="round"/>
<path d="M205.803 258.457L179.59 272.075C179.59 272.075 175.566 274.346 172.806 272.136C172.723 272.028 172.204 271.332 172.406 270.462C172.505 270.036 172.735 269.745 172.874 269.596C182.109 264.98 186.923 262.53 196.158 257.914" stroke="#8E949B" stroke-width="0.869359" stroke-miterlimit="10" stroke-linecap="round"/>
<path d="M186.251 260.562L184.959 244.755C184.959 244.755 184.809 242.143 180.896 240.925L100.325 220.726C99.9958 220.643 99.676 220.893 99.6807 221.234C99.6995 222.72 100.01 226.285 102.453 227.623L109.779 231.975C109.779 231.975 113.982 234.256 114.584 241.461L123.527 336.143C123.556 336.451 123.579 336.757 123.6 337.065C123.704 338.495 124.734 345.307 135.027 347.905" stroke="#8E949B" stroke-width="0.869359" stroke-miterlimit="10" stroke-linecap="round"/>
<path d="M196.017 255.685L172.629 267.365C172.629 267.365 168.605 269.636 165.844 267.426C165.724 267.287 165.452 266.932 165.44 266.438C165.426 265.766 165.901 265.117 166.641 264.818C174.273 260.919 179.409 258.368 185.557 255.288" stroke="#8E949B" stroke-width="0.869359" stroke-miterlimit="10" stroke-linecap="round"/>
<path d="M324.989 286.936L293.575 306.724C293.575 306.724 291.684 308.015 286.338 306.484C286.338 306.484 284.342 305.595 285.56 303.963L313.546 286.844" stroke="#8E949B" stroke-width="0.869359" stroke-miterlimit="10" stroke-linecap="round"/>
<path d="M336.905 290.296C323.655 298.642 321.83 299.792 308.58 308.139C307.84 308.414 306.626 308.76 305.1 308.737C303.407 308.708 302.094 308.236 301.344 307.9C301.344 307.9 299.348 307.011 300.566 305.379L325.148 290.341" stroke="#8E949B" stroke-width="0.869359" stroke-miterlimit="10" stroke-linecap="round"/>
<path d="M356.613 293.52L351.637 292.711C351.131 292.685 349.212 293.299 348.782 293.567C336.941 300.97 337.644 300.53 325.338 308.226C324.108 308.699 322.344 309.221 320.173 309.367C318.454 309.482 316.98 309.329 315.851 309.127C315.319 309.054 314.894 308.666 314.785 308.165C314.642 307.5 315.148 307.02 315.171 306.997C326.229 300.231 326.015 300.142 337.073 293.377" stroke="#8E949B" stroke-width="0.869359" stroke-miterlimit="10" stroke-linecap="round"/>
<path d="M185.441 252.442L162.739 263.821C162.739 263.821 159.318 266.227 161.568 269.827C161.568 269.827 171.925 277.587 174.357 277.669L191.56 284.103C191.56 284.103 243.199 303.401 267.97 305.219L290.274 309.402L317.413 311.944C317.413 311.944 320.896 312.906 327.38 310.503L352.598 294.454C352.598 294.454 357.522 291.413 359.081 295.914C360.643 300.415 360.763 308.219 358.482 310.5C356.2 312.781 332.302 327.551 332.302 327.551C332.302 327.551 324.257 333.434 316.451 331.393C316.451 331.393 278.864 329.592 270.216 324.668C270.216 324.668 197.442 308.097 193.119 302.813L177.026 297.055L164.656 288.164C164.656 288.164 162.375 287.143 162.495 283.571L160.797 267.661" stroke="#8E949B" stroke-width="0.869359" stroke-miterlimit="10" stroke-linecap="round"/>
<path d="M202.189 277.671C202.189 277.671 192.22 280.639 191.561 284.105C190.901 287.571 187.959 295.434 193.123 302.82" stroke="#8E949B" stroke-width="0.869359" stroke-miterlimit="10" stroke-linecap="round"/>
<path d="M278.625 299.098C278.625 299.098 269.413 302.352 268.644 305.348C267.875 308.344 265.535 321.312 270.218 324.675" stroke="#8E949B" stroke-width="0.869359" stroke-miterlimit="10" stroke-linecap="round"/>
<path d="M197.324 282.708L202.548 279.705L236.474 287.99L228.847 293.092C228.847 293.092 196.903 284.086 197.324 282.706V282.708Z" stroke="#8E949B" stroke-width="0.869359" stroke-miterlimit="10" stroke-linecap="round"/>
<path d="M241.098 289.311L233.594 294.456C233.594 294.456 266.979 304.499 267.88 303.3L273.004 299.695C273.004 299.695 256.163 293.182 241.101 289.311H241.098Z" stroke="#8E949B" stroke-width="0.869359" stroke-miterlimit="10" stroke-linecap="round"/>
<path d="M236.925 295.451L240.735 293.095L241.097 289.311" stroke="#8E949B" stroke-width="0.869359" stroke-miterlimit="10" stroke-linecap="round"/>
<path d="M240.735 293.095L269.897 301.88" stroke="#8E949B" stroke-width="0.869359" stroke-miterlimit="10" stroke-linecap="round"/>
<path d="M202.548 279.705L202.005 282.948L200.22 284.234" stroke="#8E949B" stroke-width="0.869359" stroke-miterlimit="10" stroke-linecap="round"/>
<path d="M202.006 282.948L232.585 290.593" stroke="#8E949B" stroke-width="0.869359" stroke-miterlimit="10" stroke-linecap="round"/>
<path d="M174.426 266.452L174.057 264.035C174.057 264.035 173.848 261.933 177.209 262.295L180.769 263.229" stroke="#8E949B" stroke-width="0.869359" stroke-miterlimit="10" stroke-linecap="round"/>
<path d="M190.684 266.151L187.516 265.321C184.153 264.962 184.365 267.061 184.365 267.061L184.713 269.345" stroke="#8E949B" stroke-width="0.869359" stroke-miterlimit="10" stroke-linecap="round"/>
<path d="M193.798 272.592L193.428 270.175C193.428 270.175 193.219 268.073 196.58 268.435L200.14 269.368" stroke="#8E949B" stroke-width="0.869359" stroke-miterlimit="10" stroke-linecap="round"/>
<path d="M300.441 302.397L299.726 299.455C299.726 299.455 299.211 296.737 303.642 296.822L308.035 297.572" stroke="#8E949B" stroke-width="0.869359" stroke-miterlimit="10" stroke-linecap="round"/>
<path d="M312.583 305.72L311.826 302.609C311.826 302.609 311.311 299.89 315.742 299.975L320.494 300.786" stroke="#8E949B" stroke-width="0.869359" stroke-miterlimit="10" stroke-linecap="round"/>
<path d="M323.984 308.593L323.226 305.482C323.226 305.482 322.711 302.764 327.142 302.849L331.895 303.66" stroke="#8E949B" stroke-width="0.869359" stroke-miterlimit="10" stroke-linecap="round"/>
<path d="M192.04 257.5L188.325 203.435C188.32 203.377 188.374 203.332 188.43 203.341L192.285 204.084C192.565 204.138 192.772 204.374 192.79 204.658L196.497 263.287" stroke="#8E949B" stroke-width="0.869359" stroke-miterlimit="10" stroke-linecap="round"/>
<path d="M201.845 260.513L198.071 205.566C198.066 205.488 198.134 205.427 198.212 205.441L202.043 206.18C202.313 206.231 202.513 206.459 202.532 206.734L206.302 266.366" stroke="#8E949B" stroke-width="0.869359" stroke-miterlimit="10" stroke-linecap="round"/>
<path d="M212.289 263.254L208.47 207.687C208.465 207.635 208.515 207.595 208.564 207.607L236.458 214.088" stroke="#8E949B" stroke-width="0.869359" stroke-miterlimit="10" stroke-linecap="round"/>
<path d="M313.87 293.661L310.559 231.178" stroke="#8E949B" stroke-width="0.869359" stroke-miterlimit="10" stroke-linecap="round"/>
<path d="M319.222 290.567L316.64 232.906" stroke="#8E949B" stroke-width="0.869359" stroke-miterlimit="10" stroke-linecap="round"/>
<path d="M331.563 293.661L328.666 235.643" stroke="#8E949B" stroke-width="0.869359" stroke-miterlimit="10" stroke-linecap="round"/>
<path d="M337.46 300.455L333.97 236.683" stroke="#8E949B" stroke-width="0.869359" stroke-miterlimit="10" stroke-linecap="round"/>
<path d="M343.795 296.685L340.98 238.399" stroke="#8E949B" stroke-width="0.869359" stroke-miterlimit="10" stroke-linecap="round"/>
<path d="M358.964 303.871C358.964 308.612 356.455 312.066 353.32 312.066C350.185 312.066 349.237 309.362 349.237 304.622C349.237 299.881 351.448 295.677 354.58 295.677C357.713 295.677 358.964 299.131 358.964 303.871Z" stroke="#8E949B" stroke-width="0.869359" stroke-miterlimit="10" stroke-linecap="round"/>
<path d="M355.985 304.69C355.985 305.842 355.498 306.681 354.891 306.681C354.284 306.681 354.099 306.025 354.099 304.873C354.099 303.721 354.527 302.7 355.133 302.7C355.74 302.7 355.982 303.54 355.982 304.692L355.985 304.69Z" stroke="#8E949B" stroke-width="0.869359" stroke-miterlimit="10" stroke-linecap="round"/>
<path d="M250.733 177.611L277.494 183.796" stroke="#8E949B" stroke-width="0.869359" stroke-miterlimit="10" stroke-linecap="round"/>
<path d="M289.763 192.172C290.542 192.172 291.174 191.54 291.174 190.761C291.174 189.982 290.542 189.35 289.763 189.35C288.983 189.35 288.352 189.982 288.352 190.761C288.352 191.54 288.983 192.172 289.763 192.172Z" stroke="#8E949B" stroke-width="0.869359" stroke-miterlimit="10" stroke-linecap="round"/>
<path d="M306.304 151.407C306.304 151.407 276.446 160.895 279.847 205.413" stroke="#8E949B" stroke-width="0.869359" stroke-miterlimit="10" stroke-linecap="round"/>
<path d="M220.48 279.705L225.073 281.144C225.621 281.396 226.247 280.999 226.252 280.394L226.268 277.243" stroke="#8E949B" stroke-width="0.869359" stroke-miterlimit="10" stroke-linecap="round"/>
<path d="M226.264 260.567L224.025 211.2" stroke="#8E949B" stroke-width="0.869359" stroke-miterlimit="10" stroke-linecap="round"/>
<path d="M303.22 398.593C303.22 398.593 302.035 396.912 302.214 394.81" stroke="#8E949B" stroke-width="0.869359" stroke-miterlimit="10" stroke-linecap="round"/>
<path d="M580.378 282.708L571.642 455.426C570.922 468.164 562.815 472.456 562.815 472.456" stroke="#8E949B" stroke-width="0.869359" stroke-miterlimit="10" stroke-linecap="round"/>
<path d="M595.844 272.009C595.844 272.009 582.691 294.174 539.938 278.61L519.358 275.007" stroke="#8E949B" stroke-width="0.869359" stroke-miterlimit="10" stroke-linecap="round"/>
<path d="M518.32 263.428C518.32 263.428 521.803 265.799 527.567 263.17L540.596 256.927" stroke="#8E949B" stroke-width="0.869359" stroke-miterlimit="10" stroke-linecap="round"/>
<path d="M526.034 253.087L537.417 255.06C537.417 255.06 541.078 255.389 540.598 259.563C540.119 263.734 539.999 264.877 539.999 264.877" stroke="#8E949B" stroke-width="0.869359" stroke-miterlimit="10" stroke-linecap="round"/>
<path d="M537.416 255.06L558.229 259.203C558.229 259.203 574.31 261.641 582.809 257.131C590.855 252.861 595.419 249.089 595.419 249.089" stroke="#8E949B" stroke-width="0.869359" stroke-miterlimit="10" stroke-linecap="round"/>
<path d="M578.188 477.05C578.188 477.05 596.411 480.201 598.008 458.039L608.981 264.052" stroke="#8E949B" stroke-width="0.869359" stroke-miterlimit="10" stroke-linecap="round"/>
<path d="M592.521 472.458C592.521 472.458 597.852 470.476 599.653 454.716L610.37 272.726L628.293 259.205L616.313 428.782" stroke="#8E949B" stroke-width="0.869359" stroke-miterlimit="10" stroke-linecap="round"/>
<path d="M619.435 432.201C619.435 432.201 614.423 424.528 601.618 421.311" stroke="#8E949B" stroke-width="0.869359" stroke-miterlimit="10" stroke-linecap="round"/>
<path d="M652.952 215.19V208.432C652.952 208.432 653.03 205.5 655.012 204.24C656.995 202.979 660.807 200.545 660.807 200.545" stroke="#8E949B" stroke-width="0.869359" stroke-miterlimit="10" stroke-linecap="round"/>
<path d="M732.075 164.013C732.075 164.013 740.736 166.202 743.777 164.013C745.529 162.753 746.192 148.613 746.192 148.613C746.192 148.613 746.768 146.549 743.777 145.058C740.788 143.569 726.489 136.995 726.489 136.995" stroke="#8E949B" stroke-width="0.869359" stroke-miterlimit="10" stroke-linecap="round"/>
<path d="M400.26 252.271C400.674 252.995 402.708 256.715 401.356 260.915C399.816 265.695 394.802 268.251 390.489 268.178C384.762 268.082 381.381 263.379 380.341 261.935C380.073 261.564 379.828 261.188 379.605 260.814C377.152 256.696 376.877 251.633 378.711 247.203" stroke="#8E949B" stroke-width="0.869359" stroke-miterlimit="10" stroke-linecap="round"/>
<path d="M382.592 250.963C382.592 250.963 380.386 254.114 382.366 257.357" stroke="#8E949B" stroke-width="0.869359" stroke-miterlimit="10" stroke-linecap="round"/>
<path d="M388.357 262.175C388.357 262.175 392.32 262.58 393.087 260.104" stroke="#8E949B" stroke-width="0.869359" stroke-miterlimit="10" stroke-linecap="round"/>
<path d="M397.603 252.052C397.935 252.692 399.565 255.974 398.481 259.68C397.246 263.899 393.229 266.154 389.774 266.09C385.189 266.006 382.477 261.855 381.644 260.581C381.43 260.252 381.233 259.922 381.054 259.591C379.09 255.955 378.869 251.49 380.337 247.582" stroke="#8E949B" stroke-width="0.869359" stroke-miterlimit="10" stroke-linecap="round"/>
<path d="M393.083 253.59C393.083 253.59 392.218 250.38 389.666 249.781" stroke="#8E949B" stroke-width="0.869359" stroke-miterlimit="10" stroke-linecap="round"/>
<path d="M290.273 309.404C285.551 309.713 281.678 312.969 280.786 317.11C279.7 322.159 283.216 327.737 289.024 329.016" stroke="#8E949B" stroke-width="0.869359" stroke-miterlimit="10" stroke-linecap="round"/>
<path d="M174.356 277.671C179.053 281.92 181.259 287.639 179.791 292.493C179.45 293.624 178.721 295.326 177.03 297.059" stroke="#8E949B" stroke-width="0.869359" stroke-miterlimit="10" stroke-linecap="round"/>
<path d="M276.969 390.236L269.674 387.415C269.674 387.415 267.242 386.364 267.242 383.182" stroke="#8E949B" stroke-width="0.869359" stroke-miterlimit="10" stroke-linecap="round"/>
<path d="M265.717 386.707C265.717 386.707 264.532 385.025 264.711 382.923" stroke="#8E949B" stroke-width="0.869359" stroke-miterlimit="10" stroke-linecap="round"/>
<path d="M275.064 268.249L278.966 267.007" stroke="#8E949B" stroke-width="0.869359" stroke-miterlimit="10" stroke-linecap="round"/>
<path d="M88.9316 169.226C88.9316 169.226 90.4156 170.228 93.0284 169.779L92.6686 164.735" stroke="#8E949B" stroke-width="0.869359" stroke-miterlimit="10" stroke-linecap="round"/>
<path d="M93.0283 169.776L235.393 202.198L235.513 197.695" stroke="#8E949B" stroke-width="0.869359" stroke-miterlimit="10" stroke-linecap="round"/>
<path d="M235.392 202.198C235.392 202.198 235.453 204.317 240.196 202.737C240.196 202.737 235.196 165.32 256.181 146.953C258.149 145.229 260.4 143.856 262.813 142.845L291.532 130.784C291.532 130.784 291.398 126.686 297.567 128.172L432.397 72.6981C432.397 72.6981 431.451 68.8699 438.777 69.9775L448.939 66.4338C450.811 65.7777 452.817 65.5896 454.781 65.8859L462.299 67.024" stroke="#8E949B" stroke-width="0.869359" stroke-miterlimit="10" stroke-linecap="round"/>
<path d="M498.147 72.4254L493.944 71.6753C493.944 71.6753 491.061 70.4455 486.619 72.0515C482.176 73.6576 306.306 151.407 306.306 151.407C306.306 151.407 291.175 159.331 292.257 192.473L281.178 203.729C281.178 203.729 279.377 204.63 279.466 207.873L279.647 212.797C279.647 212.797 278.746 213.794 277.335 213.102L275.743 212.585C275.743 212.585 274.031 211.445 275.593 210.335C275.593 210.335 272.695 178.324 288.894 157.829C292.165 153.69 296.434 150.447 301.269 148.336L480.765 69.907" stroke="#8E949B" stroke-width="0.869359" stroke-miterlimit="10" stroke-linecap="round"/>
<path d="M297.567 128.172L332.545 134.667" stroke="#8E949B" stroke-width="0.869359" stroke-miterlimit="10" stroke-linecap="round"/>
<path d="M290.957 131.026L325.64 137.684" stroke="#8E949B" stroke-width="0.869359" stroke-miterlimit="10" stroke-linecap="round"/>
<path d="M438.776 69.9751L469.568 74.7956" stroke="#8E949B" stroke-width="0.869359" stroke-miterlimit="10" stroke-linecap="round"/>
<path d="M432.396 72.6958L463.094 77.6245" stroke="#8E949B" stroke-width="0.869359" stroke-miterlimit="10" stroke-linecap="round"/>
<path d="M267.97 140.679C267.97 140.679 251.635 149.876 250.734 177.614C250.734 177.614 242.808 181.936 241.818 193.825L243.26 219.67C243.26 219.67 243.89 224.803 248.123 226.964L251.726 228.046" stroke="#8E949B" stroke-width="0.869359" stroke-miterlimit="10" stroke-linecap="round"/>
<path d="M275.997 193.251C275.997 193.251 274.242 193.371 273.972 200.665L274.936 227.608C274.936 227.608 275.065 230.068 276.156 231.093" stroke="#8E949B" stroke-width="0.869359" stroke-miterlimit="10" stroke-linecap="round"/>
<path d="M240.197 202.737L242.269 201.902" stroke="#8E949B" stroke-width="0.869359" stroke-miterlimit="10" stroke-linecap="round"/>
<path d="M242.189 203.922L239.953 205.053C239.807 205.126 239.673 205.218 239.556 205.328C239.099 205.754 237.604 206.843 235.755 204.912C235.522 204.667 235.217 204.501 234.887 204.425L93.6725 171.7C93.4209 171.641 93.1598 171.639 92.9059 171.693C92.0545 171.872 89.9262 172.168 89.0537 170.886" stroke="#8E949B" stroke-width="0.869359" stroke-miterlimit="10" stroke-linecap="round"/>
<path d="M102.453 183.946L176.666 201.357C176.666 201.357 180.869 201.956 180.509 209.161L181.379 232.725C181.379 232.725 181.4 236.544 178.496 235.876L105.272 217.685C105.272 217.685 102.511 216.514 102.45 211.741L99.2377 186.479C99.2377 186.479 98.6215 183.043 102.45 183.942L102.453 183.946Z" stroke="#8E949B" stroke-width="0.869359" stroke-miterlimit="10" stroke-linecap="round"/>
<path d="M351.205 315.601L354.94 316.226C355.488 316.318 355.989 315.895 355.989 315.34V312.4" stroke="#8E949B" stroke-width="0.869359" stroke-miterlimit="10" stroke-linecap="round"/>
<path d="M355.197 293.389L354.259 241.527" stroke="#8E949B" stroke-width="0.869359" stroke-miterlimit="10" stroke-linecap="round"/>
<path d="M636.947 93.8661L475.691 182.865C475.691 182.865 447.891 198.834 450.231 251.307C450.231 251.307 450.111 253.827 455.395 252.868C455.395 252.868 452.392 214.196 471.775 192.16C473.593 190.093 480.535 184.976 482.894 183.617L502.244 172.937C502.244 172.937 502.55 168.095 509.069 168.972L623.594 105.116C623.594 105.116 622.554 100.612 629.13 101.37L640.689 95.7496C642.535 94.8325 645.733 94.6679 648.113 94.9548L653.207 96.02" stroke="#8E949B" stroke-width="0.869359" stroke-miterlimit="10" stroke-linecap="round"/>
<path d="M496.706 261.458C496.706 261.458 494.389 232.805 508.594 209.041C511.463 204.242 516.665 196.364 521.382 193.552L678.504 99.9376" stroke="#8E949B" stroke-width="0.869359" stroke-miterlimit="10" stroke-linecap="round"/>
<path d="M694.132 102.534L689.72 102.216C689.72 102.216 686.609 101.233 682.232 103.46C677.856 105.687 525.886 195.897 525.886 195.897C525.886 195.897 498.867 212.797 501.929 262.899C499.309 263.765 497.254 263.765 496.706 261.46" stroke="#8E949B" stroke-width="0.869359" stroke-miterlimit="10" stroke-linecap="round"/>
<path d="M509.071 168.974L550.302 176.643" stroke="#8E949B" stroke-width="0.869359" stroke-miterlimit="10" stroke-linecap="round"/>
<path d="M543.303 180.831L502.246 172.937" stroke="#8E949B" stroke-width="0.869359" stroke-miterlimit="10" stroke-linecap="round"/>
<path d="M141.309 103.559C132.795 101.626 122.84 100.304 114.327 98.3716" stroke="#8E949B" stroke-width="0.869359" stroke-miterlimit="10" stroke-linecap="round"/>
<path d="M666.526 107.105L629.131 101.37" stroke="#8E949B" stroke-width="0.869359" stroke-miterlimit="10" stroke-linecap="round"/>
<path d="M623.596 105.118L660.325 110.769" stroke="#8E949B" stroke-width="0.869359" stroke-miterlimit="10" stroke-linecap="round"/>
<path d="M457.255 251.789L455.395 252.87" stroke="#8E949B" stroke-width="0.869359" stroke-miterlimit="10" stroke-linecap="round"/>
<path d="M279.645 212.794L450.23 251.309" stroke="#8E949B" stroke-width="0.869359" stroke-miterlimit="10" stroke-linecap="round"/>
<path d="M279.465 207.87L450.093 245.604" stroke="#8E949B" stroke-width="0.869359" stroke-miterlimit="10" stroke-linecap="round"/>
<path d="M292.256 192.47L451.405 227.359" stroke="#8E949B" stroke-width="0.869359" stroke-miterlimit="10" stroke-linecap="round"/>
<path d="M531.652 192.47C531.652 192.47 512.378 209.761 513.998 242.362C513.998 242.362 510.214 245.364 508.504 251.789L502.921 258.843C502.921 258.843 501.12 261.091 502.38 264.019L518.412 267.579C518.412 267.579 517.33 264.073 519.223 261.458L525.707 253.71C525.707 253.71 527.328 251.429 524.536 251.309L511.837 248.306C511.837 248.306 508.998 248.005 508.998 250.18" stroke="#8E949B" stroke-width="0.869359" stroke-miterlimit="10" stroke-linecap="round"/>
<path d="M519.764 255.057C519.343 256.948 516.103 258.239 512.469 257.249C512.352 257.216 510.423 256.12 510.548 254.787C510.731 252.835 515.31 250.7 518.174 252.325C518.911 252.741 520.006 253.976 519.767 255.057H519.764Z" stroke="#8E949B" stroke-width="0.869359" stroke-miterlimit="10" stroke-linecap="round"/>
<path d="M518.413 267.579C518.413 267.579 522.465 269.079 529.791 267.278L539.997 264.877C539.997 264.877 578.034 277.575 596.59 258.394L605.686 260.376C605.686 260.376 607.398 260.647 609.289 259.295L614.091 255.532" stroke="#8E949B" stroke-width="0.869359" stroke-miterlimit="10" stroke-linecap="round"/>
<path d="M606.509 260.374C612.496 214.997 575.896 202.095 573.074 201.171C573.048 201.161 573.032 201.197 573.055 201.211C574.8 202.342 590.917 213.65 586.143 242.54C586.143 242.54 599.472 245.783 596.591 258.389" stroke="#8E949B" stroke-width="0.869359" stroke-miterlimit="10" stroke-linecap="round"/>
<path d="M575.586 199.946C575.586 199.946 615.42 212.014 609.192 259.203" stroke="#8E949B" stroke-width="0.869359" stroke-miterlimit="10" stroke-linecap="round"/>
<path d="M586.143 242.543L582.39 245.273C579.219 247.577 575.565 249.129 571.701 249.783C566.591 250.646 558.863 250.989 548.496 248.847L514.001 242.364" stroke="#8E949B" stroke-width="0.869359" stroke-miterlimit="10" stroke-linecap="round"/>
<path d="M467.403 223.982L499.787 230.745" stroke="#8E949B" stroke-width="0.869359" stroke-miterlimit="10" stroke-linecap="round"/>
<path d="M450.052 253.261L450.233 312.069C450.233 312.069 451.072 318.552 456.326 321.075C461.58 323.596 461.399 328.099 461.399 328.099L463.65 448.414" stroke="#8E949B" stroke-width="0.869359" stroke-miterlimit="10" stroke-linecap="round"/>
<path d="M476.17 455.497C476.17 455.497 467.823 456.637 467.403 444.87C467.097 436.344 466.173 328.637 466.173 328.637C466.173 328.637 466.142 325.216 461.399 322.422C455.766 319.107 455.395 313.056 455.395 313.056L455.825 254.552" stroke="#8E949B" stroke-width="0.869359" stroke-miterlimit="10" stroke-linecap="round"/>
<path d="M471.667 266.137C471.667 266.137 467.643 266.617 467.043 280.966L461.759 279.045C457.149 277.222 457.255 271.398 457.255 271.398V242.663C457.796 229.934 467.403 223.983 467.403 223.983C468.003 194.272 487.945 180.831 487.945 180.831" stroke="#8E949B" stroke-width="0.869359" stroke-miterlimit="10" stroke-linecap="round"/>
<path d="M467.044 280.968V292.843C467.044 292.864 467.022 292.881 467.004 292.876L457.34 290.475C457.307 290.468 457.3 290.423 457.326 290.405L466.623 283.879" stroke="#8E949B" stroke-width="0.869359" stroke-miterlimit="10" stroke-linecap="round"/>
<path d="M457.255 290.454V311.617C457.255 311.617 457.255 315.13 460.5 316.043L489.768 323.73C489.768 323.73 494.946 325.442 495.306 321.569C495.623 318.154 495.661 304.177 495.666 300.911C495.666 300.504 495.395 300.151 495.005 300.041L486.271 297.6C486.207 297.581 486.162 297.525 486.162 297.459C486.148 295.963 486.028 279.771 486.974 278.612" stroke="#8E949B" stroke-width="0.869359" stroke-miterlimit="10" stroke-linecap="round"/>
<path d="M486.167 297.567L495.67 288.291" stroke="#8E949B" stroke-width="0.869359" stroke-miterlimit="10" stroke-linecap="round"/>
<path d="M496.301 256.682C496.301 256.682 493.914 282.678 496.301 286.927L489.681 285.05C489.681 285.05 486.214 281.989 487.115 275.414C488.016 268.839 484.457 269.38 484.457 269.38L468.875 265.373C468.875 265.373 465.587 264.428 465.813 268.164C466.039 271.901 465.599 276.799 467.283 277.434" stroke="#8E949B" stroke-width="0.869359" stroke-miterlimit="10" stroke-linecap="round"/>
<path d="M508.07 463.626L507.199 343.731C507.199 343.731 507.035 338.003 499.77 332.421C495.833 329.394 496.332 322.418 496.332 322.418L496.739 267.739C496.739 267.739 495.17 265.303 497.792 264.052" stroke="#8E949B" stroke-width="0.869359" stroke-miterlimit="10" stroke-linecap="round"/>
<path d="M496.452 266.572L500.398 267.579C500.398 267.579 502.517 265.966 502.741 265.058C502.964 264.15 502.381 264.021 502.381 264.021" stroke="#8E949B" stroke-width="0.869359" stroke-miterlimit="10" stroke-linecap="round"/>
<path d="M503.544 264.277C503.544 264.277 502.05 264.987 501.933 266.812C501.82 268.564 501.909 270.1 502.655 270.549L519.357 275.007C519.357 275.007 516.349 272.261 519.046 267.758" stroke="#8E949B" stroke-width="0.869359" stroke-miterlimit="10" stroke-linecap="round"/>
<path d="M518.726 469.126C518.726 469.126 513.277 470.925 512.195 460.117C511.114 449.31 512.195 343.404 512.195 343.404C512.195 343.404 512.134 340.162 506.027 333.97C501.013 328.889 501.883 320.95 501.883 320.95V268.997" stroke="#8E949B" stroke-width="0.869359" stroke-miterlimit="10" stroke-linecap="round"/>
<path d="M479.978 453.954L474.162 452.071C474.162 452.071 470.044 452.075 469.805 441.268L469.045 318.074" stroke="#8E949B" stroke-width="0.869359" stroke-miterlimit="10" stroke-linecap="round"/>
<path d="M518.062 270.161C518.062 270.161 520.82 272.289 528.409 270.549L539.999 268.421C539.999 268.421 573.682 281.518 596.379 262.032L604.784 264.054C604.784 264.054 607.23 265.705 609.85 263.431L619.915 255.535" stroke="#8E949B" stroke-width="0.869359" stroke-miterlimit="10" stroke-linecap="round"/>
<path d="M596.378 262.029L595.842 272.009" stroke="#8E949B" stroke-width="0.869359" stroke-miterlimit="10" stroke-linecap="round"/>
<path d="M600.527 439.831C600.527 439.831 622.13 454.135 611.026 476.717" stroke="#8E949B" stroke-width="0.869359" stroke-miterlimit="10" stroke-linecap="round"/>
<path d="M599.95 449.663C601.317 450.575 605.15 453.395 606.768 458.587C606.904 459.024 609.708 468.587 602.954 474.765C598.363 478.962 591.348 479.778 585.511 476.712" stroke="#8E949B" stroke-width="0.869359" stroke-miterlimit="10" stroke-linecap="round"/>
<path d="M599.949 452.374C606.588 458.309 606.974 467.807 602.263 472.907C598.839 476.615 592.91 477.791 587.391 475.898" stroke="#8E949B" stroke-width="0.869359" stroke-miterlimit="10" stroke-linecap="round"/>
<path d="M599.651 454.716C605.034 460.124 605.112 468.068 601.123 472.188C598.398 475.002 593.922 475.882 589.645 474.758" stroke="#8E949B" stroke-width="0.869359" stroke-miterlimit="10" stroke-linecap="round"/>
<path d="M595.422 473.493C595.966 473.493 596.407 472.899 596.407 472.166C596.407 471.434 595.966 470.84 595.422 470.84C594.878 470.84 594.437 471.434 594.437 472.166C594.437 472.899 594.878 473.493 595.422 473.493Z" stroke="#8E949B" stroke-width="0.869359" stroke-miterlimit="10" stroke-linecap="round"/>
<path d="M599.464 470.842C600.082 470.842 600.584 470.276 600.584 469.577C600.584 468.879 600.082 468.312 599.464 468.312C598.846 468.312 598.345 468.879 598.345 469.577C598.345 470.276 598.846 470.842 599.464 470.842Z" stroke="#8E949B" stroke-width="0.869359" stroke-miterlimit="10" stroke-linecap="round"/>
<path d="M601.925 466.422C602.534 466.422 603.028 465.817 603.028 465.072C603.028 464.327 602.534 463.722 601.925 463.722C601.316 463.722 600.822 464.327 600.822 465.072C600.822 465.817 601.316 466.422 601.925 466.422Z" stroke="#8E949B" stroke-width="0.869359" stroke-miterlimit="10" stroke-linecap="round"/>
<path d="M601.605 460.569C602.168 460.569 602.624 460.025 602.624 459.353C602.624 458.682 602.168 458.138 601.605 458.138C601.043 458.138 600.587 458.682 600.587 459.353C600.587 460.025 601.043 460.569 601.605 460.569Z" stroke="#8E949B" stroke-width="0.869359" stroke-miterlimit="10" stroke-linecap="round"/>
<path d="M598.346 463.137C598.346 463.137 600.009 466.558 596.408 468" stroke="#8E949B" stroke-width="0.869359" stroke-miterlimit="10" stroke-linecap="round"/>
<path d="M585.512 459.017L584.115 460.931C584.115 460.931 579.971 461.202 577.991 459.896L580.378 458.14L585.512 459.017ZM585.512 459.017L589.646 465.074L585.062 471.92L579.479 470.845L575.291 465.345L577.633 460.078" stroke="#8E949B" stroke-width="0.869359" stroke-miterlimit="10" stroke-linecap="round"/>
<path d="M584.114 460.929C584.114 460.929 586.553 466.869 588.194 467.501" stroke="#8E949B" stroke-width="0.869359" stroke-miterlimit="10" stroke-linecap="round"/>
<path d="M576.685 462.201C576.685 462.201 578.261 460.614 579.928 460.929C581.596 461.244 584.432 462.109 585.511 464.581C586.593 467.052 587.731 472.115 581.29 470.473C577.045 469.392 575.514 465.091 576.685 462.198V462.201Z" stroke="#8E949B" stroke-width="0.869359" stroke-miterlimit="10" stroke-linecap="round"/>
<path d="M727.908 355.249C727.908 355.249 737.815 336.202 718.992 323.504" stroke="#8E949B" stroke-width="0.869359" stroke-miterlimit="10" stroke-linecap="round"/>
<path d="M718.178 330.349C722.9 334.577 724.918 340.945 723.312 346.739C721.969 351.583 717.95 356.533 712.144 357.636C708.505 358.327 705.465 357.262 704.037 356.646" stroke="#8E949B" stroke-width="0.869359" stroke-miterlimit="10" stroke-linecap="round"/>
<path d="M718.359 328.816C719.257 329.486 725.282 334.125 725.743 342.233C725.868 344.434 725.823 351.051 720.699 355.472C715.963 359.559 708.736 360.173 702.506 357.003" stroke="#8E949B" stroke-width="0.869359" stroke-miterlimit="10" stroke-linecap="round"/>
<path d="M697.011 356.554C697.011 356.554 713.494 360.697 716.464 342.685C719.437 324.673 731.955 179.502 731.955 179.502L744.925 169.595L731.236 316.388" stroke="#8E949B" stroke-width="0.869359" stroke-miterlimit="10" stroke-linecap="round"/>
<path d="M732.86 317.74C732.86 317.74 729.788 313.712 720.066 310.369" stroke="#8E949B" stroke-width="0.869359" stroke-miterlimit="10" stroke-linecap="round"/>
<path d="M702.628 340.554C702.628 340.465 705.389 339.684 705.389 339.684L709.173 343.677L708.482 348.93L705.33 350.642C705.33 350.642 699.347 352.735 698.515 347.249C697.795 342.506 701.817 340.975 701.817 340.975L702.628 340.554Z" stroke="#8E949B" stroke-width="0.869359" stroke-miterlimit="10" stroke-linecap="round"/>
<path d="M700.735 341.594C700.975 341.566 703.913 341.269 705.839 343.527C707.337 345.281 707.602 347.853 706.495 350.007" stroke="#8E949B" stroke-width="0.869359" stroke-miterlimit="10" stroke-linecap="round"/>
<path d="M699.443 344.606C699.68 344.159 700.473 342.81 701.754 342.624C703.857 342.323 706.503 345.267 705.778 347.757C705.2 349.746 702.554 351.171 700.675 350.278C699.304 349.626 698.7 347.915 698.789 346.555C698.848 345.652 699.208 344.973 699.445 344.604L699.443 344.606Z" stroke="#8E949B" stroke-width="0.869359" stroke-miterlimit="10" stroke-linecap="round"/>
<path d="M701.205 350.007C702.39 350.007 703.35 348.966 703.35 347.682C703.35 346.397 702.39 345.356 701.205 345.356C700.021 345.356 699.061 346.397 699.061 347.682C699.061 348.966 700.021 350.007 701.205 350.007Z" stroke="#8E949B" stroke-width="0.869359" stroke-miterlimit="10" stroke-linecap="round"/>
<path d="M703.799 340.148C703.799 340.148 705.534 344.225 707.936 344.075M707.936 344.075L709.17 343.675M707.936 344.075C707.936 344.075 707.124 347.096 707.651 349.377" stroke="#8E949B" stroke-width="0.869359" stroke-miterlimit="10" stroke-linecap="round"/>
<path d="M685.936 353.582L689.447 319.991" stroke="#8E949B" stroke-width="0.869359" stroke-miterlimit="10" stroke-linecap="round"/>
<path d="M731.948 168.502L730.563 169.598C730.563 169.598 731.059 170.543 728.807 170.094C726.556 169.645 719.08 167.611 719.08 167.611L696.762 183.467" stroke="#8E949B" stroke-width="0.869359" stroke-miterlimit="10" stroke-linecap="round"/>
<path d="M736.373 165.005L731.947 168.502" stroke="#8E949B" stroke-width="0.869359" stroke-miterlimit="10" stroke-linecap="round"/>
<path d="M712.023 155.009L692.842 167.338" stroke="#8E949B" stroke-width="0.869359" stroke-miterlimit="10" stroke-linecap="round"/>
<path d="M622.047 212.354C612.779 194.994 595.875 189.04 593.97 188.414C593.944 188.405 593.927 188.442 593.951 188.456C595.124 189.218 602.598 194.455 606.102 206.321L595.839 212.999" stroke="#8E949B" stroke-width="0.869359" stroke-miterlimit="10" stroke-linecap="round"/>
<path d="M596.48 187.189C596.48 187.189 616.755 193.331 626.115 213.986" stroke="#8E949B" stroke-width="0.869359" stroke-miterlimit="10" stroke-linecap="round"/>
<path d="M626.491 213.986L651.53 196.433C654.416 171.726 643.581 159.573 642.321 158.254C642.29 158.224 642.321 158.174 642.363 158.188C644.922 159.089 677.159 171.295 671.795 212.521" stroke="#8E949B" stroke-width="0.869359" stroke-miterlimit="10" stroke-linecap="round"/>
<path d="M671.795 212.524C672.169 212.63 672.949 212.797 673.897 212.585C674.974 212.343 675.661 211.745 675.939 211.475C676.517 208.204 679.407 188.656 666.367 171.914C657.136 160.065 644.82 156.966 644.82 156.966" stroke="#8E949B" stroke-width="0.869359" stroke-miterlimit="10" stroke-linecap="round"/>
<path d="M693.651 198.043C699.479 153.062 664.062 144.837 662.103 144.418C662.086 144.413 662.077 144.437 662.091 144.444C663.055 145.048 673.356 152.011 673.974 173.478L669.515 176.161" stroke="#8E949B" stroke-width="0.869359" stroke-miterlimit="10" stroke-linecap="round"/>
<path d="M696.112 197.514C702.104 151.256 664.599 143.252 664.599 143.252" stroke="#8E949B" stroke-width="0.869359" stroke-miterlimit="10" stroke-linecap="round"/>
<path d="M729.797 170.214C731.168 127.779 705.795 120.544 703.368 119.949C703.328 119.939 703.305 119.991 703.338 120.014C704.596 120.95 713.072 128.28 711.738 155.193C711.738 155.193 721.512 157.516 719.08 167.608" stroke="#8E949B" stroke-width="0.869359" stroke-miterlimit="10" stroke-linecap="round"/>
<path d="M705.434 118.759C705.434 118.759 734.2 124.84 731.947 168.504" stroke="#8E949B" stroke-width="0.869359" stroke-miterlimit="10" stroke-linecap="round"/>
<path d="M739.973 129.235C731.895 115.803 720.134 111.091 718.93 110.637C718.911 110.63 718.897 110.653 718.911 110.667C719.579 111.222 724.16 115.304 727.333 125.352L721.35 129.237" stroke="#8E949B" stroke-width="0.869359" stroke-miterlimit="10" stroke-linecap="round"/>
<path d="M721.085 109.449C721.085 109.449 735.336 114.491 743.777 130.862" stroke="#8E949B" stroke-width="0.869359" stroke-miterlimit="10" stroke-linecap="round"/>
<path d="M673.975 173.478L680.369 175.422C681.263 175.693 682.166 175.921 683.073 176.142C685.533 176.737 692.005 180.026 691.956 191.45L690.155 213.147C690.155 213.147 690.169 217.977 684.235 222.513C684.216 222.527 684.191 222.506 684.205 222.487C684.804 221.702 687.923 217.295 687.116 211.449C687.079 211.169 686.756 211.028 686.524 211.19L679.433 216.161C679.28 216.27 679.188 216.444 679.188 216.632C679.188 217.013 679.174 217.742 679.083 218.678C678.807 221.497 677.829 226.193 674.44 228.918" stroke="#8E949B" stroke-width="0.869359" stroke-miterlimit="10" stroke-linecap="round"/>
<path d="M606.105 206.323L614.513 208.562L636.97 219.609C636.97 219.609 640.716 221.29 640.692 225.313C640.674 228.516 639.552 240.923 639.552 240.923C639.552 240.923 638.693 243.911 635.288 246.446C632.788 248.309 628.019 251.831 625.425 253.743C624.202 254.646 622.763 255.21 621.251 255.375C617.982 255.732 612.248 256.075 609.852 254.491" stroke="#8E949B" stroke-width="0.869359" stroke-miterlimit="10" stroke-linecap="round"/>
<path d="M603.44 223.216L622.05 233.177C622.05 233.177 624.78 234.917 624.599 238.881C624.418 242.844 623.15 254.947 623.15 254.947" stroke="#8E949B" stroke-width="0.869359" stroke-miterlimit="10" stroke-linecap="round"/>
<path d="M626.112 252.863L627.962 234.094C627.981 233.602 627.946 232.692 627.483 231.693C626.834 230.299 625.747 229.598 625.321 229.351C619.717 226.649 614.113 223.947 608.509 221.245" stroke="#8E949B" stroke-width="0.869359" stroke-miterlimit="10" stroke-linecap="round"/>
<path d="M629.477 250.754L631.328 231.985C631.346 231.493 631.311 230.583 630.848 229.584C630.199 228.189 629.112 227.489 628.687 227.242C623.082 224.54 617.478 221.838 611.874 219.136" stroke="#8E949B" stroke-width="0.869359" stroke-miterlimit="10" stroke-linecap="round"/>
<path d="M632.485 248.525L634.335 229.755C634.354 229.264 634.319 228.354 633.856 227.355C633.207 225.96 632.12 225.259 631.694 225.012C626.09 222.311 620.486 219.609 614.882 216.907" stroke="#8E949B" stroke-width="0.869359" stroke-miterlimit="10" stroke-linecap="round"/>
<path d="M635.357 246.032L637.13 228.039C637.149 227.547 637.114 226.637 636.651 225.638C636.001 224.244 634.915 223.543 634.489 223.296C628.885 220.594 623.281 217.892 617.677 215.19" stroke="#8E949B" stroke-width="0.869359" stroke-miterlimit="10" stroke-linecap="round"/>
<path d="M637.438 244.454L639.392 226.226C639.411 225.734 639.376 224.824 638.912 223.825C638.263 222.43 637.177 221.73 636.751 221.483C631.147 218.781 625.543 216.079 619.938 213.377" stroke="#8E949B" stroke-width="0.869359" stroke-miterlimit="10" stroke-linecap="round"/>
<path d="M747.012 161.537L748.261 147.933C748.273 147.534 748.252 146.788 747.946 145.972C747.52 144.834 746.808 144.26 746.528 144.061C742.852 141.855 734.442 138.563 730.767 136.357" stroke="#8E949B" stroke-width="0.869359" stroke-miterlimit="10" stroke-linecap="round"/>
<path d="M749.207 160.152L750.467 146.215C750.479 145.815 750.458 145.069 750.152 144.253C749.726 143.115 749.014 142.542 748.734 142.342C745.058 140.136 736.648 136.844 732.973 134.638" stroke="#8E949B" stroke-width="0.869359" stroke-miterlimit="10" stroke-linecap="round"/>
<path d="M751.052 159.014L752.44 144.392C752.452 143.992 752.43 143.247 752.125 142.431C751.699 141.293 750.987 140.719 750.707 140.519C747.031 138.314 738.621 135.022 734.945 132.816" stroke="#8E949B" stroke-width="0.869359" stroke-miterlimit="10" stroke-linecap="round"/>
<path d="M752.809 157.215L754.272 142.991C754.284 142.591 754.263 141.846 753.957 141.03C753.531 139.891 752.819 139.318 752.539 139.118C748.863 136.912 740.453 133.62 736.777 131.414" stroke="#8E949B" stroke-width="0.869359" stroke-miterlimit="10" stroke-linecap="round"/>
<path d="M754.275 156.295L755.759 141.514C755.771 141.114 755.75 140.369 755.444 139.553C755.018 138.415 754.306 137.841 754.026 137.641C750.35 135.435 741.94 132.143 738.265 129.938" stroke="#8E949B" stroke-width="0.869359" stroke-miterlimit="10" stroke-linecap="round"/>
<path d="M640.543 223.938L649.442 216.907C649.442 216.907 650.298 214.737 655.582 215.19C660.867 215.647 663.987 215.127 663.987 215.127L670.532 213.377C670.532 213.377 671.793 213.227 671.299 211.021L671.118 206.563C671.118 206.563 671.252 203.997 667.786 203.186L660.806 200.543C660.806 200.543 658.915 196.792 651.528 196.43" stroke="#8E949B" stroke-width="0.869359" stroke-miterlimit="10" stroke-linecap="round"/>
<path d="M739.516 165.005L730.768 171.879C730.768 171.879 728.778 172.18 727.577 171.879C726.375 171.578 721.213 170.214 721.213 170.214C721.213 170.214 718.755 169.238 716.679 170.858L696.762 185.357" stroke="#8E949B" stroke-width="0.869359" stroke-miterlimit="10" stroke-linecap="round"/>
<path d="M679.08 218.678C679.08 218.678 683.955 218.751 684.044 223.938C684.134 229.125 683.325 237.054 683.325 237.054L686.375 234.783C686.563 234.644 686.826 234.783 686.822 235.016L686.208 256.233L670.717 268.571H669.322" stroke="#8E949B" stroke-width="0.869359" stroke-miterlimit="10" stroke-linecap="round"/>
<path d="M672.97 244.454L675.846 242.724L676.123 227.171" stroke="#8E949B" stroke-width="0.869359" stroke-miterlimit="10" stroke-linecap="round"/>
<path d="M686.241 254.944C686.241 254.944 689.357 252.899 689.896 247.135C690.437 241.372 695.091 199.946 695.091 199.946C695.091 199.946 692.095 201.472 691.281 199.553" stroke="#8E949B" stroke-width="0.869359" stroke-miterlimit="10" stroke-linecap="round"/>
<path d="M675.846 213.986C675.846 213.986 676.637 212.837 674.546 212.38" stroke="#8E949B" stroke-width="0.869359" stroke-miterlimit="10" stroke-linecap="round"/>
<path d="M696.151 197.211C696.151 197.211 692.125 199.309 691.476 197.211" stroke="#8E949B" stroke-width="0.869359" stroke-miterlimit="10" stroke-linecap="round"/>
<path d="M695.091 198.043C695.091 198.043 697.363 199.372 695.091 199.946" stroke="#8E949B" stroke-width="0.869359" stroke-miterlimit="10" stroke-linecap="round"/>
<path d="M699.359 183.467L695.013 252.01L697.793 252.449L694.731 254.944L691.956 254.19L696.761 192.292" stroke="#8E949B" stroke-width="0.869359" stroke-miterlimit="10" stroke-linecap="round"/>
<path d="M727.336 125.35L734.001 126.791L743.777 131.414" stroke="#8E949B" stroke-width="0.869359" stroke-miterlimit="10" stroke-linecap="round"/>
<path d="M614.024 208.432L599.853 217.695" stroke="#8E949B" stroke-width="0.869359" stroke-miterlimit="10" stroke-linecap="round"/>
<path d="M734.001 126.791L724.392 133.331" stroke="#8E949B" stroke-width="0.869359" stroke-miterlimit="10" stroke-linecap="round"/>
<path d="M717.61 351.033C718.208 351.033 718.692 350.548 718.692 349.951C718.692 349.354 718.208 348.869 717.61 348.869C717.013 348.869 716.528 349.354 716.528 349.951C716.528 350.548 717.013 351.033 717.61 351.033Z" stroke="#8E949B" stroke-width="0.869359" stroke-miterlimit="10" stroke-linecap="round"/>
<path d="M719.672 346.579C720.174 346.579 720.58 346.173 720.58 345.671C720.58 345.17 720.174 344.764 719.672 344.764C719.171 344.764 718.765 345.17 718.765 345.671C718.765 346.173 719.171 346.579 719.672 346.579Z" stroke="#8E949B" stroke-width="0.869359" stroke-miterlimit="10" stroke-linecap="round"/>
<path d="M719.992 342.139C720.67 342.139 721.22 341.59 721.22 340.912C721.22 340.234 720.67 339.684 719.992 339.684C719.314 339.684 718.765 340.234 718.765 340.912C718.765 341.59 719.314 342.139 719.992 342.139Z" stroke="#8E949B" stroke-width="0.869359" stroke-miterlimit="10" stroke-linecap="round"/>
<path d="M719.259 337.881C719.774 337.881 720.191 337.384 720.191 336.771C720.191 336.158 719.774 335.661 719.259 335.661C718.745 335.661 718.328 336.158 718.328 336.771C718.328 337.384 718.745 337.881 719.259 337.881Z" stroke="#8E949B" stroke-width="0.869359" stroke-miterlimit="10" stroke-linecap="round"/>
<path d="M713.198 354.816C713.613 354.816 713.95 354.479 713.95 354.064C713.95 353.648 713.613 353.311 713.198 353.311C712.782 353.311 712.445 353.648 712.445 354.064C712.445 354.479 712.782 354.816 713.198 354.816Z" stroke="#8E949B" stroke-width="0.869359" stroke-miterlimit="10" stroke-linecap="round"/>
<path d="M730.768 171.879L714.578 344.764C714.578 344.764 713.377 355.301 700.738 356.963" stroke="#8E949B" stroke-width="0.869359" stroke-miterlimit="10" stroke-linecap="round"/>
<path d="M743.777 164.013L754.275 157.215" stroke="#8E949B" stroke-width="0.869359" stroke-miterlimit="10" stroke-linecap="round"/>
<path d="M631.33 249.381L620.276 417.372" stroke="#8E949B" stroke-width="0.869359" stroke-miterlimit="10" stroke-linecap="round"/>
<path d="M718.754 169.974C718.754 169.974 718.989 178.169 717.188 180.697L701.577 191.389L697.494 249.865C697.494 249.865 706.516 248.845 708.129 259.201L706.499 270.158L707.099 279.644L704.096 295.735L692.088 316.029L671.672 336.787L650.657 353.584L640.208 354.094C640.208 354.094 639.696 354.771 639.552 353.584C639.371 352.079 639.79 347.574 642.609 334.883C642.609 334.883 640.328 326.116 641.408 324.075L642.068 313.778C642.068 313.778 642.506 307.61 635.524 305.583C628.419 303.521 628.287 311.467 628.287 311.467L626.396 350.007C626.396 350.007 630.806 354.169 640.206 354.092" stroke="#8E949B" stroke-width="0.869359" stroke-miterlimit="10" stroke-linecap="round"/>
<path d="M628.836 308.718C628.836 308.718 632.345 301.511 637.559 302.938C637.566 302.938 637.57 302.943 637.577 302.943C637.876 303.039 644.889 305.369 644.654 312.186C644.607 313.531 644.517 314.862 644.4 316.137C643.941 321.127 643.087 325.218 642.984 325.707C642.977 325.74 642.977 325.773 642.982 325.808L644.172 334.368C644.174 334.391 644.176 334.415 644.172 334.438L642.89 347.32C642.871 347.508 643.031 347.665 643.219 347.644L652.111 346.609C652.245 346.593 652.353 346.49 652.37 346.356L655.575 322.443C655.58 322.413 655.578 322.382 655.575 322.354L654.27 314.883C654.265 314.85 654.263 314.818 654.27 314.787L656.041 303.653C656.086 303.371 655.742 303.194 655.54 303.396L650.267 308.624C650.211 308.68 650.18 308.755 650.18 308.833V311.455C650.18 311.542 650.143 311.624 650.074 311.681L644.684 316.245" stroke="#8E949B" stroke-width="0.869359" stroke-miterlimit="10" stroke-linecap="round"/>
<path d="M629.344 306.724C629.426 305.905 629.701 304.438 630.785 303.121C632.488 301.052 635.468 300.22 638.471 300.899C639.27 301.155 643.13 302.486 645.317 306.604C647.299 310.336 646.594 313.889 646.384 314.801" stroke="#8E949B" stroke-width="0.869359" stroke-miterlimit="10" stroke-linecap="round"/>
<path d="M637.391 300.18L639.399 242.362" stroke="#8E949B" stroke-width="0.869359" stroke-miterlimit="10" stroke-linecap="round"/>
<path d="M647.942 220.726L644.174 294.656L647.777 296.396L643.876 298.722L639.972 296.937L643.901 223.938" stroke="#8E949B" stroke-width="0.869359" stroke-miterlimit="10" stroke-linecap="round"/>
<path d="M654.982 341.02L654.38 347.138C654.349 347.43 654.577 347.684 654.869 347.684C655.556 347.684 656.078 347.066 655.962 346.391L655.793 341.323C655.772 341.196 654.996 340.895 654.982 341.022V341.02Z" stroke="#8E949B" stroke-width="0.869359" stroke-miterlimit="10" stroke-linecap="round"/>
<path d="M657.476 347.682L658.558 338.001C658.558 338.001 658.231 336.423 656.185 335.029C654.863 334.128 657.37 322.871 657.37 322.871C657.37 322.871 657.325 316.363 656.185 314.799L657.925 301.979C657.925 301.979 658.706 293.513 647.777 291.442L648.13 283.515L650.538 229.574C650.538 229.574 650.178 227.862 656.754 228.225C663.329 228.584 669.004 227.505 669.813 225.074C670.624 222.642 671.415 214.537 671.415 214.537C671.415 214.537 673.439 215.331 675.848 213.989L671.415 260.917C671.415 260.917 672.454 269.382 661.812 275.597C651.169 281.812 648.13 283.519 648.13 283.519" stroke="#8E949B" stroke-width="0.869359" stroke-miterlimit="10" stroke-linecap="round"/>
<path d="M640.693 226.423L648.83 220.03C648.83 220.03 651.892 216.307 657.746 216.907C663.599 217.507 670.405 216.427 671.416 214.534" stroke="#8E949B" stroke-width="0.869359" stroke-miterlimit="10" stroke-linecap="round"/>
<path d="M689.11 250.754L688.367 257.312C688.367 257.312 699.895 257.493 696.789 271.63L699.362 269.641C700.1 269.07 700.556 268.204 700.61 267.273L700.735 265.112L706.379 260.444C706.379 260.444 707.708 253.08 699.357 249.912" stroke="#8E949B" stroke-width="0.869359" stroke-miterlimit="10" stroke-linecap="round"/>
<path d="M706.38 260.442L704.699 271.24L705.538 280.834L703.137 293.633L693.951 309.183C693.951 309.183 692.571 309.884 692.749 307.733C692.928 305.581 695.633 288.709 695.633 288.709L694.671 280.832L696.051 269.437C696.051 269.437 697.554 262.993 689.027 260.44C682.421 258.462 682.122 267.017 682.122 267.017L678.46 292.791C678.46 292.791 672.635 295.253 671.675 302.458M671.675 302.458L656.185 314.799M671.675 302.458C671.675 302.458 682.844 300.236 688.547 310.084L686.67 321.538" stroke="#8E949B" stroke-width="0.869359" stroke-miterlimit="10" stroke-linecap="round"/>
<path d="M672.702 329.716C672.702 329.716 673.417 325.35 670.67 328.23C667.923 331.113 661.813 337.371 661.813 337.371C661.813 337.371 660.673 338.452 660.536 340.569L660.402 342.685C660.402 342.685 660.447 344.009 662.159 342.603C663.871 341.196 671.66 334.398 671.66 334.398C671.66 334.398 672.516 333.408 672.584 332.101C672.653 330.796 672.704 329.714 672.704 329.714L672.702 329.716Z" stroke="#8E949B" stroke-width="0.869359" stroke-miterlimit="10" stroke-linecap="round"/>
<path d="M685.035 318.145C685.035 318.145 685.08 316.254 683.415 317.515C681.75 318.775 675.038 324.268 675.038 324.268C675.038 324.268 674.003 325.213 673.956 326.25C673.912 327.285 673.956 331.113 673.956 331.113C673.956 331.113 673.956 332.24 675.262 331.113C676.567 329.987 684.177 322.648 684.177 322.648C684.177 322.648 684.897 322.018 685.033 321.206C685.167 320.395 685.033 318.145 685.033 318.145H685.035Z" stroke="#8E949B" stroke-width="0.869359" stroke-miterlimit="10" stroke-linecap="round"/>
<path d="M682.279 318.401C682.279 318.401 682.724 321.131 681.581 322.333C680.44 323.535 673.938 328.816 673.938 328.816" stroke="#8E949B" stroke-width="0.869359" stroke-miterlimit="10" stroke-linecap="round"/>
<path d="M669.053 329.916C669.053 329.916 669.754 332.24 668.253 333.86C666.753 335.48 660.537 340.569 660.537 340.569" stroke="#8E949B" stroke-width="0.869359" stroke-miterlimit="10" stroke-linecap="round"/>
<path d="M691.519 307.968C691.18 307.9 690.498 309.959 690.227 310.775C689.214 313.837 688.614 317.254 689.026 317.381C689.066 317.392 689.132 317.381 689.865 316.36C690.62 315.314 690.996 314.789 691.156 314.47C691.347 314.086 691.507 313.621 691.608 311.347C691.707 309.127 691.756 308.017 691.519 307.97V307.968Z" stroke="#8E949B" stroke-width="0.869359" stroke-miterlimit="10" stroke-linecap="round"/>
<path d="M678.46 292.794C678.46 292.794 687.051 291.837 691.691 298.498" stroke="#8E949B" stroke-width="0.869359" stroke-miterlimit="10" stroke-linecap="round"/>
<path d="M686.949 271.106C688.255 271.106 689.313 270.048 689.313 268.743C689.313 267.438 688.255 266.38 686.949 266.38C685.644 266.38 684.586 267.438 684.586 268.743C684.586 270.048 685.644 271.106 686.949 271.106Z" stroke="#8E949B" stroke-width="0.869359" stroke-miterlimit="10" stroke-linecap="round"/>
<path d="M682.121 249.799C682.121 254.773 679.504 258.693 678.076 258.693C676.649 258.693 675.847 256.522 675.847 251.549C675.847 246.575 678.652 241.703 680.08 241.703C681.507 241.703 682.121 244.826 682.121 249.799Z" stroke="#8E949B" stroke-width="0.869359" stroke-miterlimit="10" stroke-linecap="round"/>
<path d="M259.289 243.262C255.693 243.704 252.984 247.575 252.895 251.278C252.791 255.584 256.218 260.228 260.642 260.103C264.48 259.995 267.469 256.341 267.847 252.809C268.376 247.873 263.863 242.703 259.292 243.262H259.289Z" stroke="#8E949B" stroke-width="0.869359" stroke-miterlimit="10" stroke-linecap="round"/>
<path d="M475.81 297.057C471.603 296.975 467.828 300.3 467.162 304.382C466.325 309.527 470.622 314.723 475.81 314.707C479.888 314.695 483.521 311.464 484.215 307.502C485.102 302.439 481.014 297.158 475.81 297.055V297.057Z" stroke="#8E949B" stroke-width="0.869359" stroke-miterlimit="10" stroke-linecap="round"/>
<path d="M79.458 200.035C76.4572 200.197 74.1783 203.473 73.875 206.398C73.4564 210.419 76.6453 214.979 80.2388 214.802C83.289 214.652 85.7465 211.134 85.8829 207.898C86.0452 204.073 83.0021 199.842 79.458 200.033V200.035Z" stroke="#8E949B" stroke-width="0.869359" stroke-miterlimit="10" stroke-linecap="round"/>
<path d="M511.277 241.191C511.835 241.191 512.286 240.324 512.286 239.255C512.286 238.186 511.835 237.32 511.277 237.32C510.72 237.32 510.269 238.186 510.269 239.255C510.269 240.324 510.72 241.191 511.277 241.191Z" stroke="#8E949B" stroke-width="0.869359" stroke-miterlimit="10" stroke-linecap="round"/>
<path d="M591.915 241.082C592.954 241.082 593.796 240.24 593.796 239.201C593.796 238.162 592.954 237.32 591.915 237.32C590.876 237.32 590.033 238.162 590.033 239.201C590.033 240.24 590.876 241.082 591.915 241.082Z" stroke="#8E949B" stroke-width="0.869359" stroke-miterlimit="10" stroke-linecap="round"/>
<path d="M658.376 194.542C659.42 194.542 660.267 193.696 660.267 192.652C660.267 191.607 659.42 190.761 658.376 190.761C657.332 190.761 656.485 191.607 656.485 192.652C656.485 193.696 657.332 194.542 658.376 194.542Z" stroke="#8E949B" stroke-width="0.869359" stroke-miterlimit="10" stroke-linecap="round"/>
<path d="M322.508 234.204L325.466 297.062" stroke="#8E949B" stroke-width="0.869359" stroke-miterlimit="10" stroke-linecap="round"/>
<path d="M688.369 257.312C688.369 257.312 685.413 256.694 683.807 261.458C683.807 261.458 685.617 260.049 688.898 261.456C691.142 262.417 695.215 263.737 694.794 269.86L692.993 282.287L693.832 289.372L692.031 300.666L688.548 310.084" stroke="#8E949B" stroke-width="0.869359" stroke-miterlimit="10" stroke-linecap="round"/>
<path d="M703.21 293.257L695.294 290.842" stroke="#8E949B" stroke-width="0.869359" stroke-miterlimit="10" stroke-linecap="round"/>
<path d="M682.019 171.488C683.006 171.488 683.806 170.688 683.806 169.701C683.806 168.714 683.006 167.914 682.019 167.914C681.032 167.914 680.231 168.714 680.231 169.701C680.231 170.688 681.032 171.488 682.019 171.488Z" stroke="#8E949B" stroke-width="0.869359" stroke-miterlimit="10" stroke-linecap="round"/>
<path d="M717.876 153.855C718.717 153.855 719.399 153.172 719.399 152.331C719.399 151.489 718.717 150.807 717.876 150.807C717.034 150.807 716.352 151.489 716.352 152.331C716.352 153.172 717.034 153.855 717.876 153.855Z" stroke="#8E949B" stroke-width="0.869359" stroke-miterlimit="10" stroke-linecap="round"/>
<path d="M634.335 315.039C635.64 315.039 636.699 313.981 636.699 312.675C636.699 311.37 635.64 310.312 634.335 310.312C633.03 310.312 631.972 311.37 631.972 312.675C631.972 313.981 633.03 315.039 634.335 315.039Z" stroke="#8E949B" stroke-width="0.869359" stroke-miterlimit="10" stroke-linecap="round"/>
<path d="M652.11 346.605L643.228 343.919" stroke="#8E949B" stroke-width="0.869359" stroke-miterlimit="10" stroke-linecap="round"/>
<path d="M523.305 253.087L522.104 255.031" stroke="#8E949B" stroke-width="0.869359" stroke-miterlimit="10" stroke-linecap="round"/>
<path d="M511.225 250.453L510.023 252.395" stroke="#8E949B" stroke-width="0.869359" stroke-miterlimit="10" stroke-linecap="round"/>
<path d="M54.3561 148.884L51.748 150.565" stroke="#8E949B" stroke-width="0.869359" stroke-miterlimit="10" stroke-linecap="round"/>
<path d="M527.229 197.481L550.914 202.147C556.788 203.304 562.884 202.206 567.987 199.073L720.973 105.12" stroke="#8E949B" stroke-width="0.869359" stroke-miterlimit="10" stroke-linecap="round"/>
<path d="M480.243 188.226L518.261 195.713" stroke="#8E949B" stroke-width="0.869359" stroke-miterlimit="10" stroke-linecap="round"/>
<path d="M303.521 153.422L470.763 186.359" stroke="#8E949B" stroke-width="0.869359" stroke-miterlimit="10" stroke-linecap="round"/>
<path d="M262.691 145.38L295.214 151.785" stroke="#8E949B" stroke-width="0.869359" stroke-miterlimit="10" stroke-linecap="round"/>
<path d="M115.616 116.412L254.893 143.844" stroke="#8E949B" stroke-width="0.869359" stroke-miterlimit="10" stroke-linecap="round"/>
<path d="M81.3838 109.67L109.242 115.159" stroke="#8E949B" stroke-width="0.869359" stroke-miterlimit="10" stroke-linecap="round"/>
<path d="M53.959 104.269L77.0836 108.824" stroke="#8E949B" stroke-width="0.869359" stroke-miterlimit="10" stroke-linecap="round"/>
<path d="M23.9824 75.1697L30.7343 73.1239" stroke="#F84E4E" stroke-width="0.869359" stroke-miterlimit="10"/>
<path d="M35.3086 71.7388L234.313 11.4564" stroke="#F84E4E" stroke-width="0.869359" stroke-miterlimit="10"/>
<path d="M236.602 10.7628L243.353 8.71704" stroke="#F84E4E" stroke-width="0.869359" stroke-miterlimit="10"/>
<path d="M28.4907 78.8003L10.0225 79.3976L25.7156 69.646L28.4907 78.8003Z" fill="#F84E4E"/>
<path d="M241.617 14.2406L257.311 4.48901L238.845 5.08629L241.617 14.2406Z" fill="#F84E4E"/>
<path d="M764.07 70.3539L757.085 69.3545" stroke="#F84E4E" stroke-width="0.869359" stroke-miterlimit="10"/>
<path d="M752.468 68.6937L311.51 5.60132" stroke="#F84E4E" stroke-width="0.869359" stroke-miterlimit="10"/>
<path d="M309.202 5.27208L302.22 4.27271" stroke="#F84E4E" stroke-width="0.869359" stroke-miterlimit="10"/>
<path d="M761.519 65.1571L778.508 72.4185L760.164 74.6241L761.519 65.1571Z" fill="#F84E4E"/>
<path d="M306.125 0.00012207L287.781 2.2058L304.77 9.46715L306.125 0.00012207Z" fill="#F84E4E"/>
<path d="M794.104 104.754V111.808" stroke="#F84E4E" stroke-width="0.869359" stroke-miterlimit="10"/>
<path d="M794.104 116.464V300.382" stroke="#F84E4E" stroke-width="0.869359" stroke-miterlimit="10"/>
<path d="M794.104 302.71V309.764" stroke="#F84E4E" stroke-width="0.869359" stroke-miterlimit="10"/>
<path d="M789.32 108.015L794.104 90.1697L798.885 108.015H789.32Z" fill="#F84E4E"/>
<path d="M789.32 306.503L794.104 324.348L798.885 306.503H789.32Z" fill="#F84E4E"/>
<path d="M809.084 181.736H816.595V184.362C816.595 184.885 816.504 185.317 816.323 185.657C816.145 185.997 815.904 186.25 815.601 186.416C815.3 186.582 814.967 186.665 814.6 186.665C814.277 186.665 814.011 186.608 813.8 186.493C813.59 186.38 813.424 186.231 813.302 186.046C813.179 185.862 813.089 185.663 813.03 185.448H812.957C812.942 185.678 812.861 185.909 812.715 186.141C812.568 186.373 812.358 186.568 812.084 186.724C811.81 186.88 811.475 186.959 811.079 186.959C810.703 186.959 810.364 186.873 810.063 186.702C809.762 186.531 809.524 186.261 809.348 185.891C809.172 185.522 809.084 185.042 809.084 184.45V181.736ZM809.891 182.646V184.45C809.891 185.044 810.006 185.466 810.236 185.715C810.468 185.967 810.749 186.093 811.079 186.093C811.333 186.093 811.568 186.028 811.783 185.899C812.001 185.769 812.174 185.585 812.304 185.345C812.436 185.105 812.502 184.822 812.502 184.494V182.646H809.891ZM813.294 182.646V184.333C813.294 184.607 813.348 184.854 813.456 185.074C813.563 185.296 813.715 185.472 813.91 185.602C814.106 185.734 814.336 185.8 814.6 185.8C814.93 185.8 815.21 185.685 815.44 185.455C815.672 185.225 815.788 184.861 815.788 184.362V182.646H813.294ZM813.441 189.954V192.096C813.441 192.634 813.353 193.087 813.177 193.457C813.001 193.828 812.753 194.109 812.432 194.3C812.112 194.493 811.734 194.59 811.299 194.59C810.864 194.59 810.48 194.493 810.148 194.3C809.815 194.109 809.555 193.828 809.366 193.457C809.178 193.087 809.084 192.634 809.084 192.096V189.279H816.595V190.189H809.876V192.096C809.876 192.438 809.945 192.728 810.082 192.965C810.221 193.205 810.399 193.386 810.617 193.508C810.837 193.633 811.069 193.695 811.314 193.695C811.673 193.695 811.982 193.557 812.242 193.281C812.503 193.004 812.634 192.609 812.634 192.096V189.954H813.441ZM816.595 196.233H809.084V195.323H816.595V196.233ZM814.3 204.994V204.076C814.564 204.021 814.797 203.926 814.997 203.79C815.197 203.657 815.365 203.494 815.5 203.301C815.639 203.111 815.742 202.9 815.812 202.668C815.881 202.436 815.915 202.194 815.915 201.942C815.915 201.482 815.799 201.066 815.567 200.693C815.335 200.323 814.993 200.028 814.541 199.808C814.089 199.591 813.535 199.482 812.878 199.482C812.221 199.482 811.666 199.591 811.214 199.808C810.762 200.028 810.42 200.323 810.188 200.693C809.956 201.066 809.84 201.482 809.84 201.942C809.84 202.194 809.874 202.436 809.943 202.668C810.013 202.9 810.115 203.111 810.251 203.301C810.389 203.494 810.558 203.657 810.758 203.79C810.961 203.926 811.193 204.021 811.455 204.076V204.994C811.067 204.925 810.72 204.799 810.414 204.617C810.108 204.434 809.847 204.207 809.632 203.935C809.42 203.663 809.258 203.358 809.147 203.02C809.036 202.684 808.98 202.325 808.98 201.942C808.98 201.295 809.138 200.719 809.454 200.215C809.771 199.712 810.22 199.315 810.803 199.026C811.386 198.737 812.077 198.593 812.878 198.593C813.678 198.593 814.369 198.737 814.952 199.026C815.535 199.315 815.985 199.712 816.301 200.215C816.617 200.719 816.775 201.295 816.775 201.942C816.775 202.325 816.719 202.684 816.608 203.02C816.497 203.358 816.334 203.663 816.119 203.935C815.907 204.207 815.647 204.434 815.341 204.617C815.037 204.799 814.69 204.925 814.3 204.994ZM812.878 213.715C812.077 213.715 811.386 213.571 810.803 213.282C810.22 212.993 809.771 212.596 809.454 212.093C809.138 211.589 808.98 211.013 808.98 210.366C808.98 209.719 809.138 209.144 809.454 208.64C809.771 208.136 810.22 207.74 810.803 207.451C811.386 207.162 812.077 207.017 812.878 207.017C813.678 207.017 814.369 207.162 814.952 207.451C815.535 207.74 815.985 208.136 816.301 208.64C816.617 209.144 816.775 209.719 816.775 210.366C816.775 211.013 816.617 211.589 816.301 212.093C815.985 212.596 815.535 212.993 814.952 213.282C814.369 213.571 813.678 213.715 812.878 213.715ZM812.878 212.826C813.535 212.826 814.089 212.716 814.541 212.496C814.993 212.279 815.335 211.984 815.567 211.611C815.799 211.241 815.915 210.826 815.915 210.366C815.915 209.907 815.799 209.491 815.567 209.118C815.335 208.747 814.993 208.452 814.541 208.232C814.089 208.015 813.535 207.906 812.878 207.906C812.221 207.906 811.666 208.015 811.214 208.232C810.762 208.452 810.42 208.747 810.188 209.118C809.956 209.491 809.84 209.907 809.84 210.366C809.84 210.826 809.956 211.241 810.188 211.611C810.42 211.984 810.762 212.279 811.214 212.496C811.666 212.716 812.221 212.826 812.878 212.826ZM815.856 215.364H816.671V221.054H815.856V218.668H809.084V217.75H815.856V215.364ZM809.084 222.732V221.768L816.671 224.554V225.503L809.084 228.289V227.325L815.471 225.058V224.999L809.084 222.732ZM812.048 223.087V226.97H811.233V223.087H812.048Z" fill="#F84E4E"/>
<path d="M98.7854 30.4605L99.6319 30.2177L101.413 36.4306L103.87 35.7255L102.09 29.5126L102.936 29.2697L104.717 35.4826L107.174 34.7775L105.394 28.5646L106.24 28.3217L108.244 35.313L100.789 37.4518L98.7854 30.4605ZM108.707 27.6142L109.54 27.3752L111.117 32.8781L111.185 32.8585L113.431 26.2588L114.25 26.0238L116.254 33.015L115.407 33.2579L113.834 27.7687L113.766 27.7883L111.53 34.3704L110.71 34.6054L108.707 27.6142ZM118.717 32.3085L116.713 25.3172L119.075 24.6395C119.623 24.4822 120.1 24.4525 120.505 24.5507C120.912 24.6458 121.247 24.8365 121.511 25.1228C121.776 25.409 121.967 25.7581 122.085 26.17C122.203 26.5819 122.226 26.9804 122.154 27.3656C122.084 27.75 121.904 28.0924 121.614 28.3925C121.322 28.6904 120.904 28.9174 120.361 29.0734L118.668 29.5591L118.452 28.8081L120.118 28.3302C120.494 28.2225 120.776 28.0711 120.967 27.8761C121.157 27.6811 121.272 27.4586 121.311 27.2084C121.352 26.9554 121.332 26.6889 121.252 26.4089C121.172 26.129 121.048 25.8937 120.88 25.703C120.714 25.5116 120.498 25.3863 120.233 25.3271C119.966 25.2656 119.643 25.2893 119.263 25.3984L117.775 25.8253L119.563 32.0656L118.717 32.3085ZM123.583 23.3461L124.416 23.1071L125.993 28.61L126.062 28.5904L128.308 21.9907L129.127 21.7557L131.131 28.747L130.284 28.9898L128.711 23.5006L128.643 23.5202L126.406 30.1023L125.587 30.3373L123.583 23.3461ZM133.593 28.0404L131.59 21.0491L132.436 20.8062L133.329 23.9195L137.056 22.8501L136.164 19.7368L137.01 19.494L139.014 26.4852L138.167 26.7281L137.271 23.6011L133.544 24.6705L134.44 27.7975L133.593 28.0404ZM141.764 25.6961L140.877 25.9507L141.44 18.223L142.314 17.9723L146.885 24.2272L145.997 24.4818L142.221 19.1959L142.167 19.2116L141.764 25.6961ZM141.309 22.8711L144.887 21.8448L145.102 22.5959L141.525 23.6222L141.309 22.8711Z" fill="#F84E4E"/>
<path d="M506.765 15.3374L507.153 12.7404L507.632 12.8119C507.819 12.6866 508.005 12.4982 508.191 12.2466C508.38 11.993 508.559 11.6441 508.729 11.1998C508.902 10.7535 509.059 10.1774 509.199 9.47154L509.826 6.36152L514.237 7.02103L513.247 13.6515L514.103 13.7795L513.717 16.3621L512.861 16.2341L513.127 14.4495L507.89 13.6663L507.621 15.4654L506.765 15.3374ZM508.705 12.9725L512.391 13.5235L513.262 7.69101L510.52 7.28099L510.055 9.59954C509.945 10.1369 509.821 10.6201 509.682 11.0494C509.544 11.4762 509.393 11.8504 509.229 12.172C509.065 12.4911 508.891 12.7579 508.705 12.9725ZM515.524 14.8079L515.649 13.9725L515.869 14.0053C516.181 14.0521 516.439 13.9883 516.643 13.8139C516.846 13.6395 517.019 13.3345 517.161 12.8988C517.306 12.4635 517.447 11.879 517.584 11.1454L518.257 7.54504L522.83 8.22878L521.709 15.7327L520.8 15.5968L521.8 8.89899L519.001 8.48042L518.437 11.4527C518.291 12.2349 518.119 12.8934 517.921 13.4283C517.724 13.9631 517.46 14.3544 517.128 14.6019C516.796 14.8495 516.354 14.932 515.802 14.8495L515.524 14.8079ZM525.47 8.62367L526.364 8.75734L525.482 14.6637L525.555 14.6747L530.541 9.38191L531.421 9.5134L530.3 17.0173L529.391 16.8814L530.271 10.9897L530.198 10.9787L525.229 16.259L524.35 16.1275L525.47 8.62367ZM532.943 17.4126L534.064 9.9087L534.973 10.0446L534.474 13.3861L538.475 13.9844L538.974 10.6428L539.883 10.7787L538.762 18.2826L537.853 18.1467L538.354 14.7905L534.353 14.1922L533.852 17.5484L532.943 17.4126ZM541.714 18.724L540.761 18.5816L544.638 11.4897L545.575 11.63L547.21 19.5458L546.257 19.4034L544.958 12.7514L544.9 12.7426L541.714 18.724ZM542.504 15.8454L546.343 16.4196L546.223 17.2257L542.383 16.6515L542.504 15.8454Z" fill="#F84E4E"/>
</g>
<defs>
<clipPath id="clip0_270_41617">
<rect width="855" height="488" fill="white"/>
</clipPath>
</defs>
</svg>
