<svg width="367" height="214" viewBox="0 0 367 214" fill="none" xmlns="http://www.w3.org/2000/svg">
<g clip-path="url(#clip0_270_44942)">
<path d="M113.766 20.8018C114.229 20.8018 114.655 20.8432 115.036 20.905C117.03 21.2146 119.024 21.5253 121.019 21.8349C122.065 21.5769 123.112 21.3178 124.159 21.0598C124.361 21.0396 124.588 21.0264 124.837 21.0264C125.256 21.0264 125.735 21.0649 126.252 21.1762C127.966 21.5445 129.102 22.4937 129.625 22.9976C131.124 23.1919 132.623 23.3852 134.122 23.5784C135.615 22.9733 136.874 22.866 137.65 22.862C137.701 22.862 137.753 22.862 137.805 22.862C138.289 22.862 138.861 22.8822 139.549 23.0755C140.915 23.46 141.814 24.2685 142.263 24.7421C158.583 27.0928 174.904 29.4444 191.224 31.7951C192.128 31.5371 193.032 31.278 193.937 31.02C194.226 30.94 194.662 30.8479 195.19 30.8479C195.473 30.8479 195.782 30.8743 196.107 30.9421C197.794 31.2932 198.731 32.5024 198.976 32.8414C201.625 33.2543 204.274 33.6681 206.923 34.081C207.828 33.7835 208.732 33.487 209.637 33.1895C209.854 33.1541 210.129 33.1227 210.445 33.1227C210.792 33.1227 211.188 33.1591 211.614 33.2664C213.207 33.6671 214.114 34.7751 214.404 35.1657L274.18 44.3113C274.99 43.9541 275.8 43.5969 276.61 43.2387C276.84 43.1861 277.161 43.1325 277.542 43.1325C277.834 43.1325 278.161 43.1638 278.508 43.2519C280.159 43.6678 280.973 45.0197 281.144 45.3192C284.773 45.8808 288.402 46.4434 292.031 47.005C292.771 46.6509 293.509 46.2957 294.249 45.9405C294.422 45.9061 294.712 45.8596 295.074 45.8596C295.503 45.8596 296.037 45.9243 296.605 46.152C297.932 46.6832 298.55 47.7407 298.717 48.0513C302.568 48.6838 306.419 49.3172 310.27 49.9507C310.888 50.1035 311.914 50.4415 312.964 51.2297C314.098 52.0807 314.726 53.0603 315.038 53.632C315.975 54.3302 317.173 55.3725 318.314 56.8488C319.317 58.1461 319.978 59.3917 320.413 60.3824C321.826 61.0452 323.239 61.709 324.651 62.3718C324.818 62.4477 325.228 62.6622 325.517 63.1338C325.886 63.7369 325.802 64.343 325.775 64.5029C325.545 67.1854 325.365 69.1647 325.309 69.8892C325.299 70.0157 325.276 70.3325 325.115 70.7028C324.94 71.1066 324.681 71.3848 324.494 71.5559C323.538 72.2278 322.582 72.8997 321.626 73.5716C319.558 95.9579 317.491 118.345 315.423 140.732C316.064 141.478 318.864 144.904 318.253 149.373C318.063 150.764 317.591 151.901 317.128 152.745L312.787 157.589C312.105 158.268 310.602 159.564 308.329 160.031C307.759 160.148 307.208 160.199 306.675 160.199C303.001 160.199 300.32 157.743 299.995 157.434C298.406 157.008 296.816 156.581 295.226 156.155C285.807 165.306 276.386 174.455 266.966 183.606C266.846 185.733 266.725 187.86 266.605 189.987C267.33 190.924 270.874 195.693 269.422 200.916C269.211 201.672 268.866 202.548 268.285 203.474C266.38 205.512 264.641 207.372 262.782 209.36C261.976 210.222 261.004 210.916 259.918 211.376C258.87 211.82 257.509 212.219 255.975 212.219C255.816 212.219 255.655 212.215 255.492 212.206C251.806 212.002 249.455 209.871 248.85 209.286C246.644 208.627 244.44 207.969 242.234 207.31C241.668 207.688 240.721 208.216 239.443 208.473C238.903 208.581 238.392 208.623 237.922 208.623C236.842 208.623 235.983 208.399 235.489 208.24C231.935 207.129 228.382 206.018 224.828 204.907C224.659 205.076 223.646 206.055 222.178 206.055C222.091 206.055 222.002 206.052 221.912 206.044C220.354 205.919 218.983 204.703 218.548 203.007C214.452 201.755 210.355 200.501 206.26 199.248C206.133 199.33 205.093 199.984 203.709 199.984C203.212 199.984 202.672 199.9 202.113 199.674C200.268 198.931 199.644 197.222 199.554 196.961C178.065 190.296 156.576 183.63 135.087 176.964C134.883 177.029 134.422 177.155 133.821 177.155C133.417 177.155 132.949 177.097 132.452 176.924C131.252 176.508 130.606 175.672 130.397 175.374C126.611 174.198 122.825 173.024 119.039 171.848C118.84 171.904 118.356 172.03 117.729 172.03C117.161 172.03 116.476 171.927 115.783 171.577C115.01 171.187 114.528 170.643 114.27 170.298L59.779 153.143C59.5138 153.261 58.5917 153.649 57.3629 153.649C56.7849 153.649 56.1401 153.563 55.463 153.324C53.5813 152.658 52.6591 151.229 52.4132 150.817C50.3796 150.189 48.3471 149.56 46.3136 148.931C46.0727 149.006 45.1941 149.264 44.0756 149.264C43.0512 149.264 41.8254 149.046 40.7059 148.272C39.9741 147.766 39.4862 147.159 39.1684 146.657C37.3181 145.972 35.4688 145.288 33.6184 144.603C32.9646 144.354 31.7236 143.779 30.6334 142.53C29.7994 141.575 29.3864 140.607 29.1799 139.992C21.9507 95.7576 18.8382 76.2835 18.8037 75.3444C18.7926 75.0247 18.7794 74.8789 18.7531 74.5885C18.6772 73.7375 18.6175 73.1122 18.3452 72.4129C18.2652 72.2075 18.1326 71.909 17.9191 71.567C16.8026 71.2199 15.9655 70.9163 15.5799 70.7463C15.4645 70.6957 15.264 70.6016 15.1405 70.3911C15.0464 70.2303 15.0343 70.0653 15.0373 69.9581C14.6122 69.7 14.3541 69.4137 14.2073 69.2184C14.0281 68.9816 13.9897 68.85 13.9745 68.7802C13.8905 68.4017 14.0899 68.0709 14.1688 67.9545C14.0372 67.5872 13.9006 67.0822 13.8591 66.472C13.8024 65.6585 13.937 64.9896 14.0626 64.5525C14.0059 64.345 13.9127 63.8866 14.0858 63.3675C14.2346 62.9223 14.5069 62.6541 14.683 62.4851C15.0201 62.1613 15.345 62.0065 16.4271 61.5936C16.8542 61.4307 17.3624 61.2425 17.9393 61.0381C17.7693 60.0728 17.1417 55.8885 19.7998 52.099C21.1733 50.1419 22.8748 49.0703 23.9093 48.534C42.702 42.6346 110.469 21.3664 111.998 21.0062C112.564 20.8726 113.135 20.825 113.135 20.825C113.351 20.8068 113.562 20.7987 113.764 20.7987M113.764 18.9773C113.505 18.9773 113.242 18.9884 112.984 19.0097C112.911 19.0157 112.257 19.0724 111.578 19.2333C110.203 19.5581 62.847 34.4018 23.3627 46.7966L23.2109 46.8441L23.0692 46.917C21.1561 47.9097 19.5092 49.3395 18.3078 51.0537C16.0768 54.2341 15.8218 57.6452 15.9625 59.8218C15.9007 59.8451 15.839 59.8684 15.7772 59.8916C14.6921 60.3055 14.0474 60.5686 13.4188 61.1717C13.189 61.3923 12.6505 61.9094 12.356 62.7897C12.1727 63.3372 12.1191 63.92 12.195 64.4988C12.0422 65.1889 11.9906 65.8932 12.0391 66.5975C12.0685 67.0175 12.1333 67.4344 12.2335 67.8432C12.112 68.2813 12.0968 68.7347 12.194 69.1738C12.28 69.5644 12.4572 69.9267 12.7517 70.3163C12.9491 70.5784 13.1759 70.8182 13.4279 71.0357C13.4684 71.1298 13.5149 71.2219 13.5666 71.31C13.9927 72.0395 14.6355 72.3219 14.847 72.415C15.2418 72.588 15.8865 72.8238 16.6457 73.0727C16.6457 73.0727 16.6457 73.0727 16.6457 73.0737C16.8218 73.526 16.8664 73.9591 16.9372 74.7504C16.9625 75.0338 16.9716 75.14 16.9818 75.4122C16.999 75.8908 17.0395 77.0131 27.3802 140.287L27.4045 140.433L27.4521 140.574C27.8458 141.745 28.4541 142.806 29.2599 143.73C30.2569 144.871 31.5384 145.763 32.9686 146.307L32.9767 146.31L32.9848 146.313L37.7847 148.09L37.9993 148.17C38.474 148.797 39.0328 149.333 39.6674 149.772C40.9286 150.645 42.4115 151.087 44.0736 151.087C44.9532 151.087 45.7235 150.959 46.2761 150.828L51.2582 152.369C51.9162 153.258 53.0579 154.407 54.8526 155.042C55.6583 155.327 56.5015 155.471 57.3598 155.471C58.3579 155.471 59.2142 155.275 59.8316 155.071L113.212 171.876C113.713 172.422 114.308 172.876 114.958 173.204C115.811 173.634 116.742 173.852 117.726 173.852C118.138 173.852 118.559 173.812 118.967 173.735L126.068 175.94L129.323 176.951C129.837 177.529 130.661 178.234 131.851 178.647C132.484 178.866 133.146 178.978 133.819 178.978C134.224 178.978 134.635 178.936 135.034 178.855L166.78 188.702L198.233 198.459C198.731 199.382 199.698 200.666 201.431 201.363C202.157 201.655 202.924 201.804 203.708 201.804C204.843 201.804 205.796 201.498 206.443 201.208L208.411 201.81L217.142 204.481C218.002 206.382 219.756 207.695 221.766 207.858C221.903 207.87 222.041 207.876 222.179 207.876C223.465 207.876 224.495 207.406 225.208 206.932L234.94 209.975C235.908 210.286 236.911 210.444 237.922 210.444C238.553 210.444 239.185 210.381 239.803 210.257C240.744 210.067 241.642 209.741 242.484 209.284L247.924 210.909C248.583 211.497 249.337 212.033 250.124 212.476C251.771 213.401 253.543 213.921 255.392 214.023C255.584 214.034 255.78 214.039 255.975 214.039C257.516 214.039 259.082 213.707 260.629 213.051C261.941 212.496 263.113 211.671 264.113 210.602L264.661 210.015L269.615 204.715L269.735 204.588L269.828 204.44C270.428 203.483 270.882 202.461 271.177 201.402C271.902 198.798 271.68 196.025 270.518 193.159C269.892 191.613 269.11 190.341 268.461 189.432L268.6 186.987L268.746 184.417L279.509 173.963L295.755 158.182L299.107 159.082C300.169 159.982 302.98 162.02 306.676 162.02C307.352 162.02 308.032 161.951 308.697 161.815C311.225 161.296 313.017 159.933 314.073 158.88L314.11 158.844L314.144 158.805L316.316 156.383L318.487 153.96L318.627 153.803L318.729 153.619C319.422 152.352 319.87 151.007 320.06 149.62C320.648 145.326 318.622 141.886 317.306 140.163L321.505 94.7042L323.364 74.5774L324.109 74.0542L325.543 73.0464L325.636 72.9806L325.72 72.9037C326.186 72.4807 326.545 71.9839 326.786 71.4283C327.068 70.7797 327.111 70.2161 327.125 70.0299C327.154 69.6413 327.221 68.8804 327.313 67.828C327.389 66.9659 327.481 65.9125 327.583 64.7194C327.663 64.1689 327.68 63.1793 327.069 62.1816C326.574 61.3741 325.901 60.941 325.418 60.7194L323.305 59.7277L321.787 59.0153C321.224 57.8547 320.542 56.7547 319.754 55.7347C318.792 54.4911 317.676 53.3719 316.433 52.4056C315.819 51.3886 315.004 50.484 314.057 49.7736C313.054 49.0197 311.927 48.4844 310.706 48.1829L310.635 48.1657L310.563 48.1535L306.023 47.4078L299.798 46.3847C299.287 45.7159 298.481 44.9438 297.28 44.4631C296.578 44.1818 295.835 44.0401 295.071 44.0401C294.673 44.0401 294.277 44.0796 293.889 44.1565L293.664 44.201L293.458 44.3002L291.748 45.1198L287.831 44.5137L282.197 43.6415C281.586 42.8653 280.538 41.8878 278.95 41.4881C278.49 41.3728 278.016 41.3141 277.538 41.3141C277.091 41.3141 276.641 41.3657 276.2 41.4659L276.03 41.5043L275.87 41.5751L273.926 42.4332L215.35 33.4708C214.676 32.7534 213.593 31.8902 212.053 31.5027C211.529 31.3711 210.985 31.3033 210.439 31.3033C210.073 31.3033 209.701 31.3337 209.335 31.3944L209.196 31.4177L209.063 31.4612L207.706 31.9064L206.766 32.215L203.225 31.6625L199.935 31.1495C199.24 30.3966 198.111 29.5011 196.473 29.1601C196.051 29.0721 195.618 29.0275 195.184 29.0275C194.6 29.0275 194.015 29.1075 193.445 29.2653L193.438 29.2674L193.431 29.2694L192.346 29.579L191.093 29.9372L143.101 23.0239C142.205 22.2215 141.158 21.6376 140.038 21.3229C139.157 21.075 138.413 21.0416 137.801 21.0416C137.745 21.0416 137.691 21.0416 137.637 21.0416C136.379 21.0487 135.123 21.2743 133.897 21.7145L130.415 21.2642C129.556 20.5437 128.293 19.7534 126.63 19.3962C126.042 19.2697 125.438 19.206 124.832 19.206C124.547 19.206 124.259 19.2202 123.974 19.2485L123.844 19.2616L123.716 19.293L122.146 19.6806L120.932 19.9801L116.806 19.3385L115.317 19.1068C114.799 19.0228 114.275 18.9803 113.761 18.9803L113.764 18.9773Z" fill="#8E949B"/>
<path d="M17.9412 61.0423C17.3653 61.2467 16.8571 61.4349 16.429 61.5979C15.3469 62.0097 15.021 62.1655 14.6849 62.4894C14.5088 62.6583 14.2375 62.9255 14.0877 63.3717C13.9146 63.8898 14.0078 64.3492 14.0644 64.5567C13.9389 64.9948 13.8043 65.6637 13.861 66.4763C13.9035 67.0864 14.0402 67.5904 14.1707 67.9587C14.0918 68.0751 13.8934 68.406 13.9764 68.7844C13.9916 68.8542 14.03 68.9858 14.2092 69.2226C14.356 69.4179 14.6141 69.7042 15.0392 69.9623C15.0362 70.0685 15.0483 70.2345 15.1425 70.3954C15.2659 70.6058 15.4664 70.6999 15.5818 70.7505C15.9674 70.9195 16.8045 71.2241 17.921 71.5712C18.1356 71.9132 18.2671 72.2117 18.3471 72.4171C18.6194 73.1174 18.6801 73.7417 18.755 74.5927C18.7814 74.8842 18.7935 75.0299 18.8056 75.3486C18.8401 76.2877 21.9526 95.7618 29.1818 139.996C29.3883 140.611 29.8013 141.58 30.6353 142.535C31.7255 143.784 32.9665 144.36 33.6204 144.608C35.4707 145.294 37.32 145.978 39.1703 146.663C39.4891 147.165 39.977 147.771 40.7078 148.278C43.0491 149.899 45.8549 149.079 46.3155 148.936C48.349 149.565 50.3815 150.194 52.4151 150.823C52.661 151.234 53.5822 152.663 55.4649 153.329C57.5824 154.078 59.3912 153.322 59.7809 153.148L114.272 170.303C114.53 170.648 115.011 171.192 115.784 171.582C117.244 172.318 118.661 171.961 119.041 171.853C122.826 173.029 126.613 174.204 130.399 175.379C130.608 175.677 131.254 176.513 132.454 176.93C133.69 177.36 134.747 177.076 135.089 176.968C156.579 183.634 178.068 190.299 199.556 196.965C199.646 197.225 200.27 198.935 202.115 199.678C204.23 200.53 206.091 199.364 206.263 199.252C210.359 200.505 214.456 201.759 218.551 203.012C218.986 204.707 220.358 205.923 221.915 206.048C223.525 206.178 224.652 205.089 224.831 204.911C228.385 206.022 231.938 207.133 235.491 208.244C236.2 208.473 237.662 208.835 239.445 208.477C240.723 208.22 241.67 207.693 242.236 207.314C244.441 207.973 246.646 208.632 248.852 209.29C249.457 209.875 251.808 212.006 255.494 212.21C257.225 212.305 258.762 211.871 259.92 211.38C261.006 210.92 261.978 210.225 262.784 209.364C264.642 207.376 266.382 205.515 268.287 203.478C268.868 202.552 269.214 201.676 269.424 200.92C270.876 195.697 267.332 190.928 266.607 189.991C266.727 187.864 266.848 185.737 266.968 183.61C276.388 174.46 285.808 165.31 295.228 156.159C296.817 156.585 298.406 157.012 299.997 157.438C300.37 157.792 303.829 160.959 308.331 160.035C310.604 159.568 312.107 158.272 312.789 157.593C314.236 155.978 315.684 154.364 317.13 152.749C317.592 151.905 318.065 150.768 318.255 149.378C318.866 144.907 316.065 141.482 315.425 140.736C317.493 118.35 319.56 95.9621 321.628 73.5758C322.584 72.9039 323.54 72.232 324.496 71.5611C324.683 71.3911 324.94 71.1128 325.117 70.708C325.278 70.3377 325.301 70.0199 325.311 69.8945C325.367 69.1689 325.547 67.1897 325.777 64.5081C325.804 64.3482 325.888 63.7421 325.518 63.139C325.229 62.6664 324.819 62.4529 324.653 62.377L320.415 60.3876C319.98 59.398 319.319 58.1523 318.316 56.8551C317.175 55.3797 315.977 54.3364 315.04 53.6382C314.728 53.0655 314.1 52.087 312.966 51.236C311.916 50.4477 310.89 50.1097 310.272 49.9569C306.421 49.3235 302.57 48.691 298.719 48.0576C298.552 47.7479 297.934 46.6905 296.607 46.1582C295.559 45.7393 294.63 45.8708 294.251 45.9467C293.511 46.3019 292.772 46.6561 292.033 47.0113C288.404 46.4497 284.775 45.887 281.146 45.3254C280.975 45.0259 280.16 43.675 278.51 43.2581C277.71 43.0557 277.018 43.1519 276.611 43.245C275.801 43.6022 274.991 43.9594 274.181 44.3176L214.405 35.172C214.114 34.7814 213.207 33.6734 211.614 33.2726C210.8 33.0672 210.093 33.1198 209.638 33.1947C208.733 33.4922 207.829 33.7887 206.924 34.0862C204.275 33.6723 201.626 33.2595 198.977 32.8456C198.732 32.5076 197.795 31.2974 196.108 30.9463C195.169 30.751 194.381 30.9017 193.937 31.0242C193.032 31.2822 192.128 31.5413 191.223 31.7993C174.904 29.4487 158.583 27.097 142.263 24.7463C141.813 24.2728 140.916 23.4642 139.549 23.0797C138.787 22.8652 138.166 22.8642 137.65 22.8672C136.874 22.8713 135.615 22.9785 134.122 23.5837C132.623 23.3904 131.124 23.1961 129.624 23.0028C129.102 22.4989 127.965 21.5497 126.252 21.1814C125.428 21.0043 124.702 21.0114 124.158 21.065C123.112 21.3231 122.065 21.5821 121.019 21.8401C119.025 21.5305 117.031 21.2198 115.035 20.9102C114.488 20.8212 113.847 20.7736 113.136 20.8323C113.136 20.8323 112.565 20.8798 111.999 21.0134C110.47 21.3747 42.7029 42.6419 23.9102 48.5413C22.8768 49.0776 21.1742 50.1492 19.8006 52.1062C17.1416 55.8958 17.7691 60.08 17.9402 61.0454L17.9412 61.0423Z" stroke="#8E949B" stroke-width="0.376214" stroke-miterlimit="10"/>
<path d="M42.465 71.454C42.465 71.454 41.0631 71.7313 39.8809 74.8905" stroke="#8E949B" stroke-width="0.376214" stroke-miterlimit="10" stroke-linecap="round"/>
<path d="M50.2924 45.277C49.5717 45.2355 49.2376 45.617 49.2063 46.3324C45.0238 47.6975 40.8404 49.0635 36.6579 50.4286C34.6396 51.2644 31.4754 52.9665 29.0987 56.3189C26.5064 59.9759 26.1016 63.8343 25.804 66.6666C25.5519 69.0638 25.6501 71.0816 25.7908 72.4922L25.9457 74.0222" stroke="#8E949B" stroke-width="0.376214" stroke-miterlimit="10" stroke-linecap="round"/>
<path d="M129.622 22.9989C128.407 22.7621 127.193 22.5253 125.978 22.2885C125.423 22.1803 124.828 22.2177 124.195 22.3918L117.725 24.1565" stroke="#8E949B" stroke-width="0.376214" stroke-miterlimit="10" stroke-linecap="round"/>
<path d="M142.26 24.7423L139.634 24.2191C138.575 24.0441 137.721 24.1412 136.998 24.4124L51.5511 52.9936C47.3312 55.0832 45.3331 59.8382 44.998 65.9764" stroke="#8E949B" stroke-width="0.376214" stroke-miterlimit="10" stroke-linecap="round"/>
<path d="M49.3126 53.9439C42.4943 57.3743 39.7067 64.323 39.8828 74.8904L101.364 89.0742C100.984 79.1373 103.47 71.5541 109.069 66.526C110.299 65.422 111.713 64.5416 113.242 63.9122L191.223 31.7964" stroke="#8E949B" stroke-width="0.376214" stroke-miterlimit="10" stroke-linecap="round"/>
<path d="M51.5516 52.9937C50.761 53.2729 50.014 53.5897 49.3105 53.9428" stroke="#8E949B" stroke-width="0.376214" stroke-miterlimit="10" stroke-linecap="round"/>
<path d="M17.9404 61.0425C17.7694 63.5571 20.8353 64.317 24.4844 64.7622" stroke="#8E949B" stroke-width="0.376214" stroke-miterlimit="10" stroke-linecap="round"/>
<path d="M15.0394 69.9624L18.0568 70.7436C18.0568 70.7436 18.0568 69.7357 18.9485 69.5617L13.9766 68.4061" stroke="#8E949B" stroke-width="0.376214" stroke-miterlimit="10" stroke-linecap="round"/>
<path d="M24.2642 66.8699C22.4615 68.1226 20.6587 69.3743 18.856 70.6271C18.7578 70.7313 18.3377 71.1978 18.3519 71.893C18.36 72.3038 18.5169 72.6104 18.608 72.7602C18.609 72.7764 18.61 72.7915 18.6121 72.8077C20.5676 73.2348 22.5222 73.6618 24.4778 74.0888" stroke="#8E949B" stroke-width="0.376214" stroke-miterlimit="10" stroke-linecap="round"/>
<path d="M24.1527 75.3581L18.8416 74.1539C18.6483 73.7674 18.5815 73.3141 18.6129 72.8081" stroke="#8E949B" stroke-width="0.376214" stroke-miterlimit="10" stroke-linecap="round"/>
<path d="M24.7265 76.3527L18.9589 75.0251C18.9589 75.0251 18.6978 74.589 18.8425 74.1528" stroke="#8E949B" stroke-width="0.376214" stroke-miterlimit="10" stroke-linecap="round"/>
<path d="M24.0681 68.5436C24.1632 68.6044 22.0892 69.1204 22.406 69.849C22.7046 70.5381 24.1561 70.1677 24.0681 70.2629" stroke="#8E949B" stroke-width="0.376214" stroke-miterlimit="10" stroke-linecap="round"/>
<path d="M36.6563 50.4297C36.6563 50.4297 30.3462 53.9117 30.8118 63.7292C30.8118 63.7292 27.0656 64.1177 26.3672 69.5749L27.4006 80.6775C27.4006 80.6775 27.594 82.6022 29.5911 83.2609L30.8705 83.5908L31.1792 88.625C31.1792 88.6372 31.1691 88.6463 31.158 88.6432L28.3096 88.0108C28.2631 88.0007 28.2195 88.0381 28.2236 88.0867L28.8552 95.6436C28.8552 95.6436 28.8744 96.4764 29.7854 97.0583C30.6964 97.6391 39.7091 99.4605 39.7091 99.4605C39.7091 99.4605 40.9106 99.6366 40.8914 98.5407" stroke="#8E949B" stroke-width="0.376214" stroke-miterlimit="10" stroke-linecap="round"/>
<path d="M39.7697 90.3884C39.7697 90.3884 37.3586 89.7904 37.2929 89.7904C37.2271 89.7904 36.9355 83.803 36.9355 83.803" stroke="#8E949B" stroke-width="0.376214" stroke-miterlimit="10" stroke-linecap="round"/>
<path d="M39.2095 85.7625L38.1558 85.5348C38.0009 85.5014 37.8642 85.4093 37.7752 85.2788C37.4492 84.7981 36.6658 83.5839 36.5281 82.8351C36.3803 82.0306 36.2325 80.3771 36.191 79.8914C36.184 79.8095 36.1242 79.7427 36.0443 79.7265L29.8809 78.4495C29.8516 78.4434 29.8243 78.4667 29.8263 78.497L30.0156 81.2858C30.0156 81.2858 30.3253 82.5841 30.9073 82.9332" stroke="#8E949B" stroke-width="0.376214" stroke-miterlimit="10" stroke-linecap="round"/>
<path d="M30.8692 83.5904C30.8692 83.5904 30.85 81.0131 31.5666 80.4131C32.2843 79.812 33.3582 79.1694 33.3582 79.1694" stroke="#8E949B" stroke-width="0.376214" stroke-miterlimit="10" stroke-linecap="round"/>
<path d="M28.2129 87.9884L31.0258 86.1528" stroke="#8E949B" stroke-width="0.376214" stroke-miterlimit="10" stroke-linecap="round"/>
<path d="M37.293 89.7903L39.4277 87.6016" stroke="#8E949B" stroke-width="0.376214" stroke-miterlimit="10" stroke-linecap="round"/>
<path d="M24.3241 71.9194L24.3858 72.73C24.3858 72.73 23.6489 73.3988 24.4344 73.7955L25.7695 74.0758C25.7695 74.0758 26.2969 74.007 26.7139 73.2997" stroke="#8E949B" stroke-width="0.376214" stroke-miterlimit="10" stroke-linecap="round"/>
<path d="M45.905 65.5506L43.579 66.5837C43.579 66.5837 42.3906 67.0097 42.3906 69.1418L42.4686 71.454C42.4686 71.454 42.7014 71.8153 43.3735 71.5319L46.5002 69.749V65.7185C46.5002 65.7185 46.316 65.3684 45.906 65.5506" stroke="#8E949B" stroke-width="0.376214" stroke-miterlimit="10" stroke-linecap="round"/>
<path d="M46.4982 65.7181L43.9717 66.81C43.9717 66.81 42.8988 67.4556 42.9899 68.8571L43.0445 71.6287" stroke="#8E949B" stroke-width="0.376214" stroke-miterlimit="10" stroke-linecap="round"/>
<path d="M44.5983 69.3522C44.823 69.3522 45.0052 69.1265 45.0052 68.8482C45.0052 68.5699 44.823 68.3443 44.5983 68.3443C44.3736 68.3443 44.1914 68.5699 44.1914 68.8482C44.1914 69.1265 44.3736 69.3522 44.5983 69.3522Z" stroke="#8E949B" stroke-width="0.376214" stroke-miterlimit="10" stroke-linecap="round"/>
<path d="M46.498 69.7488L101.657 81.7672" stroke="#8E949B" stroke-width="0.376214" stroke-miterlimit="10" stroke-linecap="round"/>
<path d="M114.697 25.0784C114.697 24.9712 114.709 24.6494 114.939 24.3549C115.273 23.9269 115.788 23.9107 115.86 23.9097C119.943 24.4824 124.026 25.0541 128.108 25.6269" stroke="#8E949B" stroke-width="0.376214" stroke-miterlimit="10" stroke-linecap="round"/>
<path d="M52.3771 150.744C52.1989 150.447 51.9418 149.975 51.7252 149.36C51.3902 148.406 51.3294 147.605 51.3072 147.223C51.3072 147.223 51.3821 142.342 47.0529 106.306C47.0529 106.306 46.9223 105.329 46.4982 104.71C46.32 104.451 46.153 104.293 46.0771 104.209C45.6165 103.694 45.2714 103.6 43.3057 102.457C41.9371 101.66 42.2236 101.756 42.0394 101.552C41.2701 100.707 41.0687 99.6751 40.9796 99.1185C40.6678 97.1736 39.6334 90.1439 38.524 79.5543C38.4865 79.5331 38.0918 74.6507 38.0665 74.2034C38.0452 73.828 37.9369 71.7839 38.1748 69.5102C38.3043 68.2676 38.5715 65.7115 39.767 62.6727C40.5676 60.6378 41.8997 57.2499 45.1145 54.7768C46.7867 53.4907 48.3546 52.923 49.0297 52.6842C53.9055 50.963 87.6961 39.3817 134.12 23.5798" stroke="#8E949B" stroke-width="0.376214" stroke-miterlimit="10" stroke-linecap="round"/>
<path d="M39.1701 146.662C38.9838 146.36 38.7915 146 38.6225 145.58C38.2975 144.772 38.1741 144.036 38.1305 143.479C36.6213 130.071 35.1111 116.665 33.6019 103.257C33.4551 101.954 32.7881 101.376 32.613 101.184C32.1524 100.677 31.8073 100.585 29.8415 99.4594C28.473 98.6762 28.2817 98.5153 28.0975 98.3159C27.3282 97.4841 27.1399 96.4793 27.0509 95.9329C26.7391 94.0194 25.7947 86.3916 24.6864 75.9751C24.6489 75.9538 24.1286 75.6574 24.0841 75.0452C24.0426 74.4835 24.4353 74.1274 24.4799 74.0889C24.4272 74.0424 23.8108 73.4777 23.9343 72.6925C23.996 72.2988 24.2157 72.0337 24.325 71.9184C24.1833 70.5078 24.0861 68.49 24.3382 66.0928C24.6357 63.2605 25.0406 59.4031 27.6329 55.7451C30.0096 52.3927 33.1737 50.6896 35.1921 49.8548L121.018 21.8362" stroke="#8E949B" stroke-width="0.376214" stroke-miterlimit="10" stroke-linecap="round"/>
<path d="M135.349 177.045L132.209 175.831C132.209 175.831 131.162 175.379 131.162 174.01" stroke="#8E949B" stroke-width="0.376214" stroke-miterlimit="10" stroke-linecap="round"/>
<path d="M224.83 204.909L222.788 204.25C222.788 204.25 221.186 204.004 221.199 201.421C221.212 198.837 221.226 121.728 221.226 121.728" stroke="#8E949B" stroke-width="0.376214" stroke-miterlimit="10" stroke-linecap="round"/>
<path d="M51.5527 45.5664C72.6016 38.7371 93.6506 31.9077 114.699 25.0784C118.265 25.5691 121.833 26.0589 125.399 26.5497" stroke="#8E949B" stroke-width="0.376214" stroke-miterlimit="10" stroke-linecap="round"/>
<path d="M26.0957 75.1948L26.1514 76.5488C27.2597 86.9663 28.2041 94.594 28.5159 96.5065C28.605 97.053 28.525 97.1451 29.2953 97.9768C29.4795 98.1762 29.6708 98.3371 31.0393 99.1203C33.0061 100.246 33.3502 100.338 33.8108 100.845C33.9849 101.037 34.9202 102.528 35.0669 103.832C36.5761 117.239 38.0863 130.646 39.5955 144.054C39.6401 144.61 39.7626 145.347 40.0875 146.155C40.0875 146.155 41.1604 148.841 43.7972 149.263" stroke="#8E949B" stroke-width="0.376214" stroke-miterlimit="10" stroke-linecap="round"/>
<path d="M50.2676 45.2771C54.3893 46.1817 59.2206 46.8425 63.3433 47.7472" stroke="#8E949B" stroke-width="0.376214" stroke-miterlimit="10" stroke-linecap="round"/>
<path d="M24.6855 75.9752L24.5586 74.9866" stroke="#8E949B" stroke-width="0.376214" stroke-miterlimit="10" stroke-linecap="round"/>
<path d="M14.0625 64.5559L24.2757 66.7325" stroke="#8E949B" stroke-width="0.376214" stroke-miterlimit="10" stroke-linecap="round"/>
<path d="M30.8105 63.7292L38.9264 65.24" stroke="#8E949B" stroke-width="0.376214" stroke-miterlimit="10" stroke-linecap="round"/>
<path d="M35.7109 98.6145L40.7426 144.658C40.8712 145.837 41.4775 146.927 42.4492 147.608C42.8673 147.9 43.3835 148.152 44.0181 148.302L46.5052 148.993" stroke="#8E949B" stroke-width="0.376214" stroke-miterlimit="10" stroke-linecap="round"/>
<path d="M26.8411 74.6637L26.2379 75.1484C26.2379 75.1484 24.1497 75.4185 24.5616 74.6637L25.2844 73.9745" stroke="#8E949B" stroke-width="0.376214" stroke-miterlimit="10" stroke-linecap="round"/>
<path d="M50.0371 100.705L54.671 149.764C54.7449 150.546 55.1518 151.267 55.8027 151.708C56.1802 151.963 56.6833 152.212 57.3513 152.398L59.9406 153.198" stroke="#8E949B" stroke-width="0.376214" stroke-miterlimit="10" stroke-linecap="round"/>
<path d="M110.242 96.9023C110.242 96.9023 108.227 99.7316 108.42 101.514C108.605 103.207 108.614 106.961 108.614 107.335C108.614 107.351 108.599 107.362 108.583 107.358L105.217 106.602C105.189 106.596 105.164 106.618 105.164 106.645L105.356 114.573C105.356 114.573 105.395 116.009 106.829 116.512C108.263 117.015 117.451 119.34 117.451 119.34C117.451 119.34 119.08 120.115 119.157 117.984C119.235 115.853 118.964 109.924 118.964 109.924L115.394 109.009C115.359 109 115.334 108.967 115.334 108.931V102.134" stroke="#8E949B" stroke-width="0.376214" stroke-miterlimit="10" stroke-linecap="round"/>
<path d="M108.439 100.833C108.439 100.833 107.567 100.041 107.684 98.9179L107.673 97.0095C107.673 97.0095 107.577 96.1473 108.517 96.3801L114.48 97.7947C114.48 97.7947 115.385 97.8726 115.165 99.2802L115.199 101.153C115.199 101.153 115.191 103.311 116.689 103.763C118.189 104.215 118.927 104.38 118.927 104.38" stroke="#8E949B" stroke-width="0.376214" stroke-miterlimit="10" stroke-linecap="round"/>
<path d="M115.334 108.993L119.037 105.844" stroke="#8E949B" stroke-width="0.376214" stroke-miterlimit="10" stroke-linecap="round"/>
<path d="M105.164 106.59L108.555 103.762" stroke="#8E949B" stroke-width="0.376214" stroke-miterlimit="10" stroke-linecap="round"/>
<path d="M110.771 120.619V117.615" stroke="#8E949B" stroke-width="0.376214" stroke-miterlimit="10" stroke-linecap="round"/>
<path d="M103.342 92.206C103.342 92.206 104.904 113.575 105.135 115.255C105.335 116.716 106.592 117.94 106.8 118.135C106.818 118.152 106.837 118.167 106.857 118.183C107.129 118.384 109.345 120.01 110.564 120.611C110.638 120.649 110.627 120.758 110.546 120.78C110.214 120.87 109.56 120.978 108.91 120.698C107.755 120.2 105.285 118.387 104.996 118.173C104.976 118.158 104.958 118.143 104.94 118.126C104.731 117.932 103.475 116.707 103.275 115.246C103.044 113.566 101.467 92.1797 101.467 92.1797" stroke="#8E949B" stroke-width="0.376214" stroke-miterlimit="10" stroke-linecap="round"/>
<path d="M127.622 124.911L126.67 101.839" stroke="#8E949B" stroke-width="0.376214" stroke-miterlimit="10" stroke-linecap="round"/>
<path d="M118.536 95.4626C118.536 95.4626 117.722 95.8765 118.536 96.263C119.078 96.521 119.633 96.4735 119.942 96.4128C120.075 96.3865 120.201 96.4836 120.211 96.6192C120.393 99.1115 121.783 118.027 121.998 119.595C122.199 121.058 123.457 122.282 123.664 122.475C123.683 122.493 123.701 122.508 123.72 122.522C123.985 122.717 126.117 124.283 127.351 124.912C127.453 124.965 127.436 125.114 127.325 125.142C126.973 125.225 126.372 125.297 125.774 125.039C124.618 124.54 122.146 122.725 121.86 122.514C121.839 122.499 121.821 122.484 121.804 122.467C121.596 122.274 120.339 121.05 120.138 119.587C119.907 117.908 118.33 96.3409 118.33 96.3409" stroke="#8E949B" stroke-width="0.376214" stroke-miterlimit="10" stroke-linecap="round"/>
<path d="M120.193 96.3477L193.704 112.984C193.704 112.984 194.402 114.418 196.806 113.294" stroke="#8E949B" stroke-width="0.376214" stroke-miterlimit="10" stroke-linecap="round"/>
<path d="M120.49 100.386L193.781 117.615" stroke="#8E949B" stroke-width="0.376214" stroke-miterlimit="10" stroke-linecap="round"/>
<path d="M134.753 126.562L125.139 132.401C125.139 132.401 120.539 133.434 119.919 132.71C119.299 131.987 96.7115 125.011 86.8394 123.462C86.8394 123.462 84.5589 123.12 85.9932 121.104L96.8674 116.021C96.8674 116.021 99.1934 116.117 99.3999 119.247C99.6064 122.377 97.3846 123.307 97.3846 123.307L93.6981 124.875" stroke="#8E949B" stroke-width="0.376214" stroke-miterlimit="10" stroke-linecap="round"/>
<path d="M96.6346 120.877C96.8772 120.877 97.0739 120.536 97.0739 120.115C97.0739 119.695 96.8772 119.354 96.6346 119.354C96.392 119.354 96.1953 119.695 96.1953 120.115C96.1953 120.536 96.392 120.877 96.6346 120.877Z" stroke="#8E949B" stroke-width="0.376214" stroke-miterlimit="10" stroke-linecap="round"/>
<path d="M96.8669 116.021L95.3668 115.647C95.0014 115.556 94.6137 115.601 94.2797 115.774L80.2747 123.049C80.2747 123.049 78.5428 124.026 77.3545 123.075C77.3545 123.075 76.7209 122.558 77.1865 122.08L88.6467 116.352" stroke="#8E949B" stroke-width="0.376214" stroke-miterlimit="10" stroke-linecap="round"/>
<path d="M88.574 115.222L77.2919 121.082C77.2919 121.082 75.5601 122.059 74.3717 121.108C74.3363 121.061 74.1126 120.762 74.1997 120.388C74.2422 120.204 74.3414 120.079 74.4011 120.015C78.376 118.029 80.448 116.974 84.423 114.988" stroke="#8E949B" stroke-width="0.376214" stroke-miterlimit="10" stroke-linecap="round"/>
<path d="M80.1628 116.128L79.6071 109.326C79.6071 109.326 79.5423 108.201 77.858 107.677L43.1797 98.9851C43.038 98.9497 42.9003 99.0569 42.9024 99.2037C42.9105 99.8432 43.0441 101.377 44.0958 101.953L47.2488 103.826C47.2488 103.826 49.0576 104.808 49.3167 107.908L53.1662 148.652C53.1783 148.785 53.1884 148.917 53.1976 149.049C53.2421 149.664 53.6854 152.596 58.1159 153.714" stroke="#8E949B" stroke-width="0.376214" stroke-miterlimit="10" stroke-linecap="round"/>
<path d="M84.366 114.029L74.2995 119.055C74.2995 119.055 72.5676 120.032 71.3793 119.081C71.3277 119.021 71.2103 118.869 71.2052 118.656C71.1991 118.367 71.4036 118.087 71.7224 117.959C75.0071 116.281 77.2177 115.183 79.8636 113.858" stroke="#8E949B" stroke-width="0.376214" stroke-miterlimit="10" stroke-linecap="round"/>
<path d="M139.877 127.477L126.355 135.992C126.355 135.992 125.542 136.548 123.241 135.889C123.241 135.889 122.382 135.507 122.906 134.804L134.951 127.438" stroke="#8E949B" stroke-width="0.376214" stroke-miterlimit="10" stroke-linecap="round"/>
<path d="M145.004 128.923C139.301 132.514 138.515 133.009 132.812 136.602C132.494 136.72 131.971 136.869 131.314 136.859C130.586 136.846 130.021 136.643 129.698 136.498C129.698 136.498 128.839 136.116 129.363 135.414L139.944 128.942" stroke="#8E949B" stroke-width="0.376214" stroke-miterlimit="10" stroke-linecap="round"/>
<path d="M153.487 130.31L151.345 129.962C151.127 129.951 150.301 130.215 150.116 130.331C145.02 133.516 145.322 133.327 140.025 136.639C139.496 136.842 138.737 137.067 137.803 137.13C137.063 137.179 136.428 137.113 135.942 137.026C135.713 136.995 135.53 136.828 135.484 136.613C135.422 136.326 135.64 136.12 135.65 136.11C140.409 133.198 140.317 133.16 145.076 130.249" stroke="#8E949B" stroke-width="0.376214" stroke-miterlimit="10" stroke-linecap="round"/>
<path d="M79.812 112.633L70.0412 117.53C70.0412 117.53 68.5684 118.565 69.5371 120.114C69.5371 120.114 73.9949 123.454 75.0415 123.489L82.4458 126.258C82.4458 126.258 104.672 134.562 115.334 135.344L124.933 137.145L136.614 138.239C136.614 138.239 138.113 138.652 140.904 137.618L151.758 130.712C151.758 130.712 153.877 129.404 154.549 131.34C155.221 133.277 155.272 136.636 154.29 137.617C153.309 138.599 143.023 144.955 143.023 144.955C143.023 144.955 139.56 147.486 136.2 146.608C136.2 146.608 120.022 145.833 116.3 143.714C116.3 143.714 84.9773 136.583 83.1169 134.309L76.1903 131.831L70.8661 128.005C70.8661 128.005 69.8843 127.566 69.9359 126.029L69.2051 119.182" stroke="#8E949B" stroke-width="0.376214" stroke-miterlimit="10" stroke-linecap="round"/>
<path d="M87.0208 123.49C87.0208 123.49 82.7301 124.767 82.4466 126.259C82.1622 127.75 80.8959 131.134 83.1187 134.312" stroke="#8E949B" stroke-width="0.376214" stroke-miterlimit="10" stroke-linecap="round"/>
<path d="M119.921 132.711C119.921 132.711 115.957 134.111 115.626 135.4C115.295 136.69 114.287 142.27 116.303 143.717" stroke="#8E949B" stroke-width="0.376214" stroke-miterlimit="10" stroke-linecap="round"/>
<path d="M84.9256 125.658L87.1737 124.365L101.776 127.93L98.4933 130.126C98.4933 130.126 84.7444 126.251 84.9256 125.657V125.658Z" stroke="#8E949B" stroke-width="0.376214" stroke-miterlimit="10" stroke-linecap="round"/>
<path d="M103.767 128.499L100.537 130.713C100.537 130.713 114.906 135.035 115.294 134.519L117.5 132.968C117.5 132.968 110.251 130.165 103.768 128.499H103.767Z" stroke="#8E949B" stroke-width="0.376214" stroke-miterlimit="10" stroke-linecap="round"/>
<path d="M101.971 131.141L103.61 130.127L103.766 128.499" stroke="#8E949B" stroke-width="0.376214" stroke-miterlimit="10" stroke-linecap="round"/>
<path d="M103.611 130.127L116.163 133.908" stroke="#8E949B" stroke-width="0.376214" stroke-miterlimit="10" stroke-linecap="round"/>
<path d="M87.1759 124.365L86.9421 125.761L86.1738 126.314" stroke="#8E949B" stroke-width="0.376214" stroke-miterlimit="10" stroke-linecap="round"/>
<path d="M86.9434 125.761L100.105 129.05" stroke="#8E949B" stroke-width="0.376214" stroke-miterlimit="10" stroke-linecap="round"/>
<path d="M75.0721 118.662L74.9132 117.622C74.9132 117.622 74.8231 116.717 76.2696 116.873L77.8021 117.275" stroke="#8E949B" stroke-width="0.376214" stroke-miterlimit="10" stroke-linecap="round"/>
<path d="M82.0706 118.533L80.7071 118.176C79.2597 118.021 79.3507 118.924 79.3507 118.924L79.5006 119.907" stroke="#8E949B" stroke-width="0.376214" stroke-miterlimit="10" stroke-linecap="round"/>
<path d="M83.4081 121.304L83.2492 120.264C83.2492 120.264 83.1591 119.36 84.6055 119.515L86.138 119.917" stroke="#8E949B" stroke-width="0.376214" stroke-miterlimit="10" stroke-linecap="round"/>
<path d="M129.31 134.13L129.002 132.864C129.002 132.864 128.78 131.695 130.687 131.731L132.578 132.054" stroke="#8E949B" stroke-width="0.376214" stroke-miterlimit="10" stroke-linecap="round"/>
<path d="M134.535 135.56L134.209 134.221C134.209 134.221 133.987 133.052 135.894 133.088L137.94 133.437" stroke="#8E949B" stroke-width="0.376214" stroke-miterlimit="10" stroke-linecap="round"/>
<path d="M139.441 136.797L139.115 135.458C139.115 135.458 138.894 134.288 140.801 134.325L142.846 134.674" stroke="#8E949B" stroke-width="0.376214" stroke-miterlimit="10" stroke-linecap="round"/>
<path d="M82.6522 114.81L81.0529 91.5444C81.0508 91.5191 81.0741 91.4998 81.0984 91.5039L82.7574 91.8237C82.8779 91.8469 82.9669 91.9481 82.975 92.0706L84.5703 117.3" stroke="#8E949B" stroke-width="0.376214" stroke-miterlimit="10" stroke-linecap="round"/>
<path d="M86.8727 116.106L85.2481 92.461C85.2461 92.4276 85.2755 92.4013 85.3089 92.4074L86.9578 92.7251C87.0742 92.7474 87.1602 92.8455 87.1683 92.9639L88.7909 118.625" stroke="#8E949B" stroke-width="0.376214" stroke-miterlimit="10" stroke-linecap="round"/>
<path d="M91.3666 117.286L89.7228 93.3739C89.7208 93.3517 89.742 93.3345 89.7633 93.3395L101.769 96.1283" stroke="#8E949B" stroke-width="0.376214" stroke-miterlimit="10" stroke-linecap="round"/>
<path d="M135.091 130.371L133.666 103.482" stroke="#8E949B" stroke-width="0.376214" stroke-miterlimit="10" stroke-linecap="round"/>
<path d="M137.393 129.039L136.281 104.227" stroke="#8E949B" stroke-width="0.376214" stroke-miterlimit="10" stroke-linecap="round"/>
<path d="M142.706 130.371L141.459 105.404" stroke="#8E949B" stroke-width="0.376214" stroke-miterlimit="10" stroke-linecap="round"/>
<path d="M145.244 133.294L143.742 105.852" stroke="#8E949B" stroke-width="0.376214" stroke-miterlimit="10" stroke-linecap="round"/>
<path d="M147.969 131.672L146.758 106.59" stroke="#8E949B" stroke-width="0.376214" stroke-miterlimit="10" stroke-linecap="round"/>
<path d="M154.497 134.765C154.497 136.805 153.417 138.291 152.068 138.291C150.718 138.291 150.311 137.128 150.311 135.088C150.311 133.048 151.262 131.238 152.61 131.238C153.959 131.238 154.497 132.725 154.497 134.765Z" stroke="#8E949B" stroke-width="0.376214" stroke-miterlimit="10" stroke-linecap="round"/>
<path d="M153.216 135.117C153.216 135.613 153.007 135.974 152.745 135.974C152.484 135.974 152.404 135.692 152.404 135.196C152.404 134.7 152.589 134.261 152.85 134.261C153.111 134.261 153.215 134.622 153.215 135.118L153.216 135.117Z" stroke="#8E949B" stroke-width="0.376214" stroke-miterlimit="10" stroke-linecap="round"/>
<path d="M107.916 80.4315L119.434 83.0928" stroke="#8E949B" stroke-width="0.376214" stroke-miterlimit="10" stroke-linecap="round"/>
<path d="M124.713 86.6972C125.048 86.6972 125.32 86.4254 125.32 86.0901C125.32 85.7547 125.048 85.4829 124.713 85.4829C124.377 85.4829 124.105 85.7547 124.105 86.0901C124.105 86.4254 124.377 86.6972 124.713 86.6972Z" stroke="#8E949B" stroke-width="0.376214" stroke-miterlimit="10" stroke-linecap="round"/>
<path d="M131.834 69.1549C131.834 69.1549 118.983 73.2379 120.446 92.3953" stroke="#8E949B" stroke-width="0.376214" stroke-miterlimit="10" stroke-linecap="round"/>
<path d="M94.8945 124.365L96.8714 124.985C97.1072 125.093 97.3765 124.922 97.3785 124.662L97.3856 123.306" stroke="#8E949B" stroke-width="0.376214" stroke-miterlimit="10" stroke-linecap="round"/>
<path d="M97.3835 116.129L96.4199 94.8855" stroke="#8E949B" stroke-width="0.376214" stroke-miterlimit="10" stroke-linecap="round"/>
<path d="M130.506 175.526C130.506 175.526 129.995 174.803 130.072 173.898" stroke="#8E949B" stroke-width="0.376214" stroke-miterlimit="10" stroke-linecap="round"/>
<path d="M249.797 125.658L246.037 199.983C245.727 205.465 242.238 207.311 242.238 207.311" stroke="#8E949B" stroke-width="0.376214" stroke-miterlimit="10" stroke-linecap="round"/>
<path d="M256.453 121.053C256.453 121.053 250.792 130.592 232.391 123.894L223.533 122.344" stroke="#8E949B" stroke-width="0.376214" stroke-miterlimit="10" stroke-linecap="round"/>
<path d="M223.086 117.361C223.086 117.361 224.585 118.381 227.066 117.25L232.674 114.563" stroke="#8E949B" stroke-width="0.376214" stroke-miterlimit="10" stroke-linecap="round"/>
<path d="M226.406 112.91L231.305 113.759C231.305 113.759 232.881 113.901 232.675 115.697C232.468 117.492 232.417 117.984 232.417 117.984" stroke="#8E949B" stroke-width="0.376214" stroke-miterlimit="10" stroke-linecap="round"/>
<path d="M231.307 113.76L240.265 115.543C240.265 115.543 247.186 116.592 250.844 114.651C254.307 112.814 256.272 111.19 256.272 111.19" stroke="#8E949B" stroke-width="0.376214" stroke-miterlimit="10" stroke-linecap="round"/>
<path d="M248.854 209.288C248.854 209.288 256.697 210.644 257.384 201.107L262.107 117.629" stroke="#8E949B" stroke-width="0.376214" stroke-miterlimit="10" stroke-linecap="round"/>
<path d="M255.023 207.312C255.023 207.312 257.318 206.459 258.093 199.677L262.706 121.362L270.42 115.544L265.264 188.517" stroke="#8E949B" stroke-width="0.376214" stroke-miterlimit="10" stroke-linecap="round"/>
<path d="M266.608 189.988C266.608 189.988 264.451 186.687 258.939 185.302" stroke="#8E949B" stroke-width="0.376214" stroke-miterlimit="10" stroke-linecap="round"/>
<path d="M281.033 96.6027V93.6945C281.033 93.6945 281.067 92.4326 281.92 91.8902C282.773 91.3479 284.414 90.3005 284.414 90.3005" stroke="#8E949B" stroke-width="0.376214" stroke-miterlimit="10" stroke-linecap="round"/>
<path d="M315.09 74.5797C315.09 74.5797 318.818 75.5217 320.126 74.5797C320.88 74.0373 321.166 67.9527 321.166 67.9527C321.166 67.9527 321.414 67.0642 320.126 66.4227C318.84 65.7822 312.686 62.9529 312.686 62.9529" stroke="#8E949B" stroke-width="0.376214" stroke-miterlimit="10" stroke-linecap="round"/>
<path d="M172.274 112.56C172.452 112.871 173.327 114.472 172.745 116.279C172.082 118.337 169.924 119.436 168.068 119.405C165.603 119.364 164.148 117.34 163.7 116.718C163.585 116.559 163.48 116.397 163.383 116.236C162.328 114.464 162.209 112.285 162.999 110.379" stroke="#8E949B" stroke-width="0.376214" stroke-miterlimit="10" stroke-linecap="round"/>
<path d="M164.669 111.997C164.669 111.997 163.72 113.353 164.572 114.748" stroke="#8E949B" stroke-width="0.376214" stroke-miterlimit="10" stroke-linecap="round"/>
<path d="M167.15 116.822C167.15 116.822 168.856 116.996 169.186 115.93" stroke="#8E949B" stroke-width="0.376214" stroke-miterlimit="10" stroke-linecap="round"/>
<path d="M171.131 112.465C171.273 112.741 171.975 114.153 171.508 115.748C170.977 117.563 169.248 118.534 167.761 118.506C165.787 118.47 164.62 116.684 164.262 116.136C164.17 115.994 164.085 115.852 164.008 115.71C163.162 114.145 163.067 112.224 163.699 110.542" stroke="#8E949B" stroke-width="0.376214" stroke-miterlimit="10" stroke-linecap="round"/>
<path d="M169.184 113.127C169.184 113.127 168.811 111.746 167.713 111.488" stroke="#8E949B" stroke-width="0.376214" stroke-miterlimit="10" stroke-linecap="round"/>
<path d="M124.935 137.146C122.903 137.279 121.236 138.68 120.852 140.462C120.384 142.635 121.898 145.035 124.398 145.585" stroke="#8E949B" stroke-width="0.376214" stroke-miterlimit="10" stroke-linecap="round"/>
<path d="M75.041 123.49C77.0624 125.319 78.0119 127.779 77.3802 129.868C77.2335 130.355 76.9197 131.087 76.1919 131.833" stroke="#8E949B" stroke-width="0.376214" stroke-miterlimit="10" stroke-linecap="round"/>
<path d="M119.208 171.93L116.068 170.715C116.068 170.715 115.021 170.263 115.021 168.894" stroke="#8E949B" stroke-width="0.376214" stroke-miterlimit="10" stroke-linecap="round"/>
<path d="M114.363 170.411C114.363 170.411 113.853 169.688 113.93 168.783" stroke="#8E949B" stroke-width="0.376214" stroke-miterlimit="10" stroke-linecap="round"/>
<path d="M118.387 119.435L120.066 118.901" stroke="#8E949B" stroke-width="0.376214" stroke-miterlimit="10" stroke-linecap="round"/>
<path d="M38.2734 76.8231C38.2734 76.8231 38.9121 77.2542 40.0367 77.0609L39.8818 74.8904" stroke="#8E949B" stroke-width="0.376214" stroke-miterlimit="10" stroke-linecap="round"/>
<path d="M40.0371 77.0601L101.312 91.0122L101.364 89.0744" stroke="#8E949B" stroke-width="0.376214" stroke-miterlimit="10" stroke-linecap="round"/>
<path d="M101.312 91.012C101.312 91.012 101.339 91.9237 103.38 91.2437C103.38 91.2437 101.228 75.1423 110.26 67.2383C111.108 66.4966 112.076 65.9056 113.115 65.4705L125.476 60.2804C125.476 60.2804 125.418 58.5167 128.073 59.1562L186.105 35.2844C186.105 35.2844 185.698 33.637 188.851 34.1136L193.225 32.5887C194.031 32.3063 194.894 32.2254 195.74 32.3529L198.976 32.8426" stroke="#8E949B" stroke-width="0.376214" stroke-miterlimit="10" stroke-linecap="round"/>
<path d="M214.406 35.167L212.597 34.8442C212.597 34.8442 211.356 34.315 209.444 35.0061C207.532 35.6972 131.836 69.1548 131.836 69.1548C131.836 69.1548 125.324 72.565 125.789 86.8267L121.021 91.6707C121.021 91.6707 120.245 92.0583 120.284 93.4537L120.362 95.5726C120.362 95.5726 119.974 96.0017 119.367 95.7042L118.682 95.4816C118.682 95.4816 117.945 94.9908 118.617 94.5132C118.617 94.5132 117.37 80.7381 124.342 71.9184C125.75 70.1374 127.587 68.742 129.668 67.8333L206.925 34.0833" stroke="#8E949B" stroke-width="0.376214" stroke-miterlimit="10" stroke-linecap="round"/>
<path d="M128.072 59.156L143.127 61.9509" stroke="#8E949B" stroke-width="0.376214" stroke-miterlimit="10" stroke-linecap="round"/>
<path d="M125.227 60.3848L140.155 63.2495" stroke="#8E949B" stroke-width="0.376214" stroke-miterlimit="10" stroke-linecap="round"/>
<path d="M188.85 34.1127L202.102 36.1871" stroke="#8E949B" stroke-width="0.376214" stroke-miterlimit="10" stroke-linecap="round"/>
<path d="M186.105 35.2834L199.318 37.4044" stroke="#8E949B" stroke-width="0.376214" stroke-miterlimit="10" stroke-linecap="round"/>
<path d="M115.334 64.5386C115.334 64.5386 108.303 68.4961 107.915 80.4326C107.915 80.4326 104.504 82.2924 104.078 87.4086L104.699 98.5305C104.699 98.5305 104.97 100.739 106.792 101.669L108.343 102.135" stroke="#8E949B" stroke-width="0.376214" stroke-miterlimit="10" stroke-linecap="round"/>
<path d="M118.789 87.1616C118.789 87.1616 118.034 87.2132 117.918 90.3522L118.333 101.947C118.333 101.947 118.389 103.005 118.858 103.446" stroke="#8E949B" stroke-width="0.376214" stroke-miterlimit="10" stroke-linecap="round"/>
<path d="M103.379 91.2435L104.271 90.8843" stroke="#8E949B" stroke-width="0.376214" stroke-miterlimit="10" stroke-linecap="round"/>
<path d="M104.239 91.7536L103.277 92.2403C103.214 92.2717 103.156 92.3112 103.106 92.3587C102.909 92.5419 102.265 93.0104 101.47 92.1796C101.37 92.0744 101.238 92.0025 101.096 91.9701L40.3161 77.8875C40.2078 77.8622 40.0954 77.8612 39.9861 77.8844C39.6197 77.9613 38.7037 78.0888 38.3281 77.5374" stroke="#8E949B" stroke-width="0.376214" stroke-miterlimit="10" stroke-linecap="round"/>
<path d="M44.0947 83.1575L76.037 90.6497C76.037 90.6497 77.8459 90.9077 77.691 94.0082L78.0655 104.148C78.0655 104.148 78.0746 105.792 76.8245 105.504L45.3084 97.6763C45.3084 97.6763 44.12 97.1724 44.0937 95.1183L42.711 84.2474C42.711 84.2474 42.4458 82.769 44.0937 83.1555L44.0947 83.1575Z" stroke="#8E949B" stroke-width="0.376214" stroke-miterlimit="10" stroke-linecap="round"/>
<path d="M151.16 139.812L152.768 140.081C153.003 140.121 153.219 139.939 153.219 139.7V138.435" stroke="#8E949B" stroke-width="0.376214" stroke-miterlimit="10" stroke-linecap="round"/>
<path d="M152.878 130.254L152.475 107.936" stroke="#8E949B" stroke-width="0.376214" stroke-miterlimit="10" stroke-linecap="round"/>
<path d="M274.145 44.3936L204.739 82.6921C204.739 82.6921 192.774 89.564 193.781 112.145C193.781 112.145 193.729 113.229 196.004 112.817C196.004 112.817 194.711 96.1747 203.054 86.6922C203.836 85.8027 206.824 83.6008 207.839 83.0159L216.168 78.4199C216.168 78.4199 216.3 76.3363 219.105 76.7138L268.398 49.2345C268.398 49.2345 267.951 47.2967 270.781 47.6225L275.756 45.2041C276.55 44.8094 277.927 44.7386 278.951 44.8621L281.144 45.3205" stroke="#8E949B" stroke-width="0.376214" stroke-miterlimit="10" stroke-linecap="round"/>
<path d="M213.785 116.513C213.785 116.513 212.788 104.183 218.902 93.9567C220.137 91.8914 222.376 88.5015 224.406 87.2913L292.033 47.0063" stroke="#8E949B" stroke-width="0.376214" stroke-miterlimit="10" stroke-linecap="round"/>
<path d="M298.759 48.1234L296.86 47.9868C296.86 47.9868 295.521 47.5638 293.637 48.5221C291.754 49.4804 226.345 88.3001 226.345 88.3001C226.345 88.3001 214.715 95.5726 216.033 117.133C214.906 117.506 214.021 117.506 213.785 116.514" stroke="#8E949B" stroke-width="0.376214" stroke-miterlimit="10" stroke-linecap="round"/>
<path d="M219.107 76.7148L236.853 80.0147" stroke="#8E949B" stroke-width="0.376214" stroke-miterlimit="10" stroke-linecap="round"/>
<path d="M233.839 81.8169L216.168 78.4199" stroke="#8E949B" stroke-width="0.376214" stroke-miterlimit="10" stroke-linecap="round"/>
<path d="M60.8162 48.5645C57.152 47.7328 52.8673 47.1641 49.2031 46.3323" stroke="#8E949B" stroke-width="0.376214" stroke-miterlimit="10" stroke-linecap="round"/>
<path d="M286.876 50.0906L270.781 47.6226" stroke="#8E949B" stroke-width="0.376214" stroke-miterlimit="10" stroke-linecap="round"/>
<path d="M268.4 49.2355L284.209 51.6671" stroke="#8E949B" stroke-width="0.376214" stroke-miterlimit="10" stroke-linecap="round"/>
<path d="M196.805 112.352L196.004 112.818" stroke="#8E949B" stroke-width="0.376214" stroke-miterlimit="10" stroke-linecap="round"/>
<path d="M120.357 95.5717L193.779 112.146" stroke="#8E949B" stroke-width="0.376214" stroke-miterlimit="10" stroke-linecap="round"/>
<path d="M120.281 93.4526L193.721 109.691" stroke="#8E949B" stroke-width="0.376214" stroke-miterlimit="10" stroke-linecap="round"/>
<path d="M125.785 86.8257L194.284 101.839" stroke="#8E949B" stroke-width="0.376214" stroke-miterlimit="10" stroke-linecap="round"/>
<path d="M228.825 86.8257C228.825 86.8257 220.529 94.2662 221.226 108.295C221.226 108.295 219.598 109.587 218.862 112.352L216.459 115.388C216.459 115.388 215.683 116.355 216.226 117.615L223.126 119.147C223.126 119.147 222.661 117.638 223.475 116.513L226.266 113.179C226.266 113.179 226.963 112.197 225.762 112.146L220.296 110.853C220.296 110.853 219.074 110.724 219.074 111.66" stroke="#8E949B" stroke-width="0.376214" stroke-miterlimit="10" stroke-linecap="round"/>
<path d="M223.71 113.759C223.528 114.572 222.134 115.128 220.57 114.702C220.519 114.688 219.689 114.216 219.743 113.642C219.822 112.802 221.792 111.884 223.025 112.583C223.342 112.762 223.814 113.293 223.711 113.759H223.71Z" stroke="#8E949B" stroke-width="0.376214" stroke-miterlimit="10" stroke-linecap="round"/>
<path d="M223.127 119.147C223.127 119.147 224.871 119.793 228.024 119.018L232.417 117.985C232.417 117.985 248.788 123.449 256.775 115.195L260.69 116.048C260.69 116.048 261.427 116.164 262.241 115.582L264.308 113.963" stroke="#8E949B" stroke-width="0.376214" stroke-miterlimit="10" stroke-linecap="round"/>
<path d="M261.044 116.047C263.621 96.5198 247.868 90.9675 246.654 90.5698C246.642 90.5658 246.635 90.581 246.646 90.587C247.397 91.0738 254.333 95.94 252.278 108.372C252.278 108.372 258.016 109.768 256.776 115.192" stroke="#8E949B" stroke-width="0.376214" stroke-miterlimit="10" stroke-linecap="round"/>
<path d="M247.734 90.0425C247.734 90.0425 264.879 95.2356 262.199 115.542" stroke="#8E949B" stroke-width="0.376214" stroke-miterlimit="10" stroke-linecap="round"/>
<path d="M252.277 108.373L250.662 109.548C249.297 110.54 247.724 111.208 246.061 111.489C243.862 111.86 240.535 112.008 236.074 111.086L221.227 108.297" stroke="#8E949B" stroke-width="0.376214" stroke-miterlimit="10" stroke-linecap="round"/>
<path d="M201.172 100.386L215.11 103.296" stroke="#8E949B" stroke-width="0.376214" stroke-miterlimit="10" stroke-linecap="round"/>
<path d="M193.703 112.985L193.781 138.292C193.781 138.292 194.142 141.082 196.404 142.168C198.665 143.252 198.587 145.19 198.587 145.19L199.556 196.965" stroke="#8E949B" stroke-width="0.376214" stroke-miterlimit="10" stroke-linecap="round"/>
<path d="M204.946 200.014C204.946 200.014 201.353 200.504 201.172 195.441C201.041 191.772 200.643 145.422 200.643 145.422C200.643 145.422 200.63 143.95 198.588 142.748C196.164 141.321 196.004 138.717 196.004 138.717L196.189 113.541" stroke="#8E949B" stroke-width="0.376214" stroke-miterlimit="10" stroke-linecap="round"/>
<path d="M203.008 118.527C203.008 118.527 201.276 118.733 201.018 124.908L198.743 124.081C196.759 123.297 196.805 120.79 196.805 120.79V108.425C197.038 102.947 201.172 100.386 201.172 100.386C201.431 87.6009 210.014 81.8168 210.014 81.8168" stroke="#8E949B" stroke-width="0.376214" stroke-miterlimit="10" stroke-linecap="round"/>
<path d="M201.017 124.909V130.019C201.017 130.028 201.008 130.035 201 130.033L196.841 129C196.827 128.997 196.824 128.978 196.835 128.969L200.836 126.161" stroke="#8E949B" stroke-width="0.376214" stroke-miterlimit="10" stroke-linecap="round"/>
<path d="M196.805 128.991V138.098C196.805 138.098 196.805 139.61 198.202 140.002L210.798 143.31C210.798 143.31 213.027 144.047 213.182 142.38C213.319 140.911 213.335 134.896 213.337 133.491C213.337 133.316 213.221 133.164 213.053 133.116L209.293 132.066C209.266 132.058 209.247 132.034 209.247 132.005C209.241 131.362 209.189 124.394 209.596 123.895" stroke="#8E949B" stroke-width="0.376214" stroke-miterlimit="10" stroke-linecap="round"/>
<path d="M209.248 132.052L213.338 128.06" stroke="#8E949B" stroke-width="0.376214" stroke-miterlimit="10" stroke-linecap="round"/>
<path d="M213.609 114.458C213.609 114.458 212.582 125.645 213.609 127.473L210.76 126.666C210.76 126.666 209.268 125.348 209.656 122.519C210.043 119.69 208.512 119.922 208.512 119.922L201.805 118.198C201.805 118.198 200.39 117.791 200.487 119.399C200.584 121.007 200.395 123.115 201.12 123.388" stroke="#8E949B" stroke-width="0.376214" stroke-miterlimit="10" stroke-linecap="round"/>
<path d="M218.675 203.512L218.3 151.918C218.3 151.918 218.229 149.453 215.103 147.05C213.408 145.748 213.623 142.746 213.623 142.746L213.798 119.216C213.798 119.216 213.123 118.167 214.251 117.629" stroke="#8E949B" stroke-width="0.376214" stroke-miterlimit="10" stroke-linecap="round"/>
<path d="M213.676 118.714L215.374 119.147C215.374 119.147 216.286 118.453 216.382 118.062C216.479 117.672 216.228 117.616 216.228 117.616" stroke="#8E949B" stroke-width="0.376214" stroke-miterlimit="10" stroke-linecap="round"/>
<path d="M216.726 117.726C216.726 117.726 216.084 118.032 216.033 118.817C215.984 119.571 216.023 120.232 216.344 120.425L223.532 122.344C223.532 122.344 222.238 121.162 223.399 119.224" stroke="#8E949B" stroke-width="0.376214" stroke-miterlimit="10" stroke-linecap="round"/>
<path d="M223.261 205.879C223.261 205.879 220.915 206.653 220.45 202.002C219.984 197.351 220.45 151.777 220.45 151.777C220.45 151.777 220.423 150.382 217.795 147.717C215.637 145.531 216.011 142.114 216.011 142.114V119.757" stroke="#8E949B" stroke-width="0.376214" stroke-miterlimit="10" stroke-linecap="round"/>
<path d="M206.583 199.349L204.08 198.539C204.08 198.539 202.307 198.541 202.204 193.89L201.877 140.876" stroke="#8E949B" stroke-width="0.376214" stroke-miterlimit="10" stroke-linecap="round"/>
<path d="M222.975 120.258C222.975 120.258 224.162 121.174 227.428 120.425L232.417 119.509C232.417 119.509 246.914 125.145 256.683 116.76L260.301 117.63C260.301 117.63 261.354 118.34 262.481 117.362L266.813 113.964" stroke="#8E949B" stroke-width="0.376214" stroke-miterlimit="10" stroke-linecap="round"/>
<path d="M256.685 116.759L256.453 121.053" stroke="#8E949B" stroke-width="0.376214" stroke-miterlimit="10" stroke-linecap="round"/>
<path d="M258.469 193.272C258.469 193.272 267.767 199.427 262.987 209.145" stroke="#8E949B" stroke-width="0.376214" stroke-miterlimit="10" stroke-linecap="round"/>
<path d="M258.223 197.503C258.811 197.896 260.461 199.109 261.157 201.343C261.216 201.531 262.422 205.647 259.515 208.305C257.54 210.111 254.52 210.462 252.008 209.143" stroke="#8E949B" stroke-width="0.376214" stroke-miterlimit="10" stroke-linecap="round"/>
<path d="M258.22 198.669C261.077 201.223 261.243 205.31 259.216 207.505C257.742 209.101 255.19 209.607 252.814 208.792" stroke="#8E949B" stroke-width="0.376214" stroke-miterlimit="10" stroke-linecap="round"/>
<path d="M258.094 199.677C260.411 202.005 260.444 205.423 258.728 207.196C257.555 208.407 255.628 208.786 253.787 208.302" stroke="#8E949B" stroke-width="0.376214" stroke-miterlimit="10" stroke-linecap="round"/>
<path d="M256.272 207.757C256.506 207.757 256.696 207.502 256.696 207.187C256.696 206.871 256.506 206.616 256.272 206.616C256.038 206.616 255.848 206.871 255.848 207.187C255.848 207.502 256.038 207.757 256.272 207.757Z" stroke="#8E949B" stroke-width="0.376214" stroke-miterlimit="10" stroke-linecap="round"/>
<path d="M258.013 206.617C258.279 206.617 258.495 206.373 258.495 206.072C258.495 205.772 258.279 205.528 258.013 205.528C257.747 205.528 257.531 205.772 257.531 206.072C257.531 206.373 257.747 206.617 258.013 206.617Z" stroke="#8E949B" stroke-width="0.376214" stroke-miterlimit="10" stroke-linecap="round"/>
<path d="M259.07 204.715C259.333 204.715 259.545 204.455 259.545 204.134C259.545 203.813 259.333 203.553 259.07 203.553C258.808 203.553 258.596 203.813 258.596 204.134C258.596 204.455 258.808 204.715 259.07 204.715Z" stroke="#8E949B" stroke-width="0.376214" stroke-miterlimit="10" stroke-linecap="round"/>
<path d="M258.934 202.196C259.176 202.196 259.373 201.962 259.373 201.673C259.373 201.384 259.176 201.15 258.934 201.15C258.692 201.15 258.496 201.384 258.496 201.673C258.496 201.962 258.692 202.196 258.934 202.196Z" stroke="#8E949B" stroke-width="0.376214" stroke-miterlimit="10" stroke-linecap="round"/>
<path d="M257.531 203.301C257.531 203.301 258.247 204.773 256.697 205.394" stroke="#8E949B" stroke-width="0.376214" stroke-miterlimit="10" stroke-linecap="round"/>
<path d="M252.006 201.528L251.405 202.352C251.405 202.352 249.622 202.468 248.769 201.907L249.797 201.151L252.006 201.528ZM252.006 201.528L253.786 204.135L251.813 207.08L249.41 206.618L247.607 204.251L248.616 201.984" stroke="#8E949B" stroke-width="0.376214" stroke-miterlimit="10" stroke-linecap="round"/>
<path d="M251.404 202.351C251.404 202.351 252.454 204.907 253.16 205.179" stroke="#8E949B" stroke-width="0.376214" stroke-miterlimit="10" stroke-linecap="round"/>
<path d="M248.209 202.898C248.209 202.898 248.887 202.215 249.605 202.351C250.322 202.486 251.543 202.859 252.008 203.922C252.473 204.986 252.963 207.164 250.191 206.458C248.364 205.992 247.705 204.142 248.209 202.897V202.898Z" stroke="#8E949B" stroke-width="0.376214" stroke-miterlimit="10" stroke-linecap="round"/>
<path d="M313.296 156.874C313.296 156.874 317.561 148.678 309.459 143.213" stroke="#8E949B" stroke-width="0.376214" stroke-miterlimit="10" stroke-linecap="round"/>
<path d="M309.108 146.159C311.14 147.978 312.009 150.719 311.318 153.212C310.74 155.296 309.01 157.426 306.511 157.901C304.945 158.199 303.636 157.74 303.021 157.475" stroke="#8E949B" stroke-width="0.376214" stroke-miterlimit="10" stroke-linecap="round"/>
<path d="M309.187 145.499C309.573 145.787 312.167 147.784 312.365 151.273C312.419 152.22 312.399 155.067 310.194 156.97C308.155 158.728 305.045 158.993 302.363 157.628" stroke="#8E949B" stroke-width="0.376214" stroke-miterlimit="10" stroke-linecap="round"/>
<path d="M299.998 157.435C299.998 157.435 307.093 159.218 308.371 151.467C309.651 143.716 315.038 81.2451 315.038 81.2451L320.621 76.9819L314.729 140.151" stroke="#8E949B" stroke-width="0.376214" stroke-miterlimit="10" stroke-linecap="round"/>
<path d="M315.426 140.733C315.426 140.733 314.104 138.999 309.92 137.561" stroke="#8E949B" stroke-width="0.376214" stroke-miterlimit="10" stroke-linecap="round"/>
<path d="M302.415 150.55C302.415 150.512 303.603 150.176 303.603 150.176L305.232 151.894L304.934 154.155L303.578 154.891C303.578 154.891 301.003 155.792 300.645 153.431C300.335 151.39 302.066 150.732 302.066 150.732L302.415 150.55Z" stroke="#8E949B" stroke-width="0.376214" stroke-miterlimit="10" stroke-linecap="round"/>
<path d="M301.602 150.998C301.705 150.985 302.969 150.858 303.798 151.829C304.443 152.584 304.557 153.691 304.08 154.618" stroke="#8E949B" stroke-width="0.376214" stroke-miterlimit="10" stroke-linecap="round"/>
<path d="M301.043 152.294C301.145 152.101 301.486 151.521 302.038 151.441C302.943 151.311 304.082 152.578 303.77 153.65C303.521 154.506 302.382 155.119 301.573 154.734C300.983 154.454 300.723 153.717 300.762 153.133C300.787 152.744 300.942 152.452 301.044 152.293L301.043 152.294Z" stroke="#8E949B" stroke-width="0.376214" stroke-miterlimit="10" stroke-linecap="round"/>
<path d="M301.802 154.618C302.312 154.618 302.725 154.17 302.725 153.617C302.725 153.065 302.312 152.617 301.802 152.617C301.292 152.617 300.879 153.065 300.879 153.617C300.879 154.17 301.292 154.618 301.802 154.618Z" stroke="#8E949B" stroke-width="0.376214" stroke-miterlimit="10" stroke-linecap="round"/>
<path d="M302.918 150.375C302.918 150.375 303.665 152.13 304.698 152.065M304.698 152.065L305.23 151.893M304.698 152.065C304.698 152.065 304.349 153.365 304.576 154.347" stroke="#8E949B" stroke-width="0.376214" stroke-miterlimit="10" stroke-linecap="round"/>
<path d="M295.229 156.157L296.74 141.701" stroke="#8E949B" stroke-width="0.376214" stroke-miterlimit="10" stroke-linecap="round"/>
<path d="M315.033 76.5114L314.437 76.983C314.437 76.983 314.651 77.3898 313.681 77.1965C312.712 77.0032 309.495 76.1279 309.495 76.1279L299.889 82.9512" stroke="#8E949B" stroke-width="0.376214" stroke-miterlimit="10" stroke-linecap="round"/>
<path d="M316.94 75.0068L315.035 76.5115" stroke="#8E949B" stroke-width="0.376214" stroke-miterlimit="10" stroke-linecap="round"/>
<path d="M306.459 70.7051L298.203 76.0105" stroke="#8E949B" stroke-width="0.376214" stroke-miterlimit="10" stroke-linecap="round"/>
<path d="M267.733 95.3822C263.743 87.9113 256.468 85.3492 255.648 85.08C255.637 85.0759 255.63 85.0921 255.64 85.0982C256.145 85.4261 259.362 87.6796 260.87 92.7856L256.452 95.6594" stroke="#8E949B" stroke-width="0.376214" stroke-miterlimit="10" stroke-linecap="round"/>
<path d="M256.727 84.553C256.727 84.553 265.453 87.1961 269.481 96.0846" stroke="#8E949B" stroke-width="0.376214" stroke-miterlimit="10" stroke-linecap="round"/>
<path d="M269.645 96.0848L280.422 88.5309C281.664 77.8989 277 72.6693 276.458 72.1017C276.445 72.0885 276.458 72.0673 276.476 72.0733C277.577 72.4609 291.453 77.7137 289.144 95.4544" stroke="#8E949B" stroke-width="0.376214" stroke-miterlimit="10" stroke-linecap="round"/>
<path d="M289.145 95.4553C289.306 95.5009 289.642 95.5727 290.05 95.4816C290.514 95.3774 290.809 95.1204 290.929 95.004C291.178 93.5965 292.422 85.1845 286.809 77.9797C282.836 72.8807 277.535 71.5471 277.535 71.5471" stroke="#8E949B" stroke-width="0.376214" stroke-miterlimit="10" stroke-linecap="round"/>
<path d="M298.552 89.2241C301.06 69.8674 285.816 66.3277 284.973 66.1476C284.966 66.1456 284.962 66.1557 284.968 66.1587C285.383 66.4188 289.816 69.415 290.083 78.6527L288.163 79.8073" stroke="#8E949B" stroke-width="0.376214" stroke-miterlimit="10" stroke-linecap="round"/>
<path d="M299.61 88.9962C302.19 69.09 286.047 65.6455 286.047 65.6455" stroke="#8E949B" stroke-width="0.376214" stroke-miterlimit="10" stroke-linecap="round"/>
<path d="M314.108 77.2481C314.698 58.9873 303.777 55.8737 302.733 55.6177C302.716 55.6136 302.705 55.6359 302.72 55.646C303.261 56.0487 306.909 59.2028 306.335 70.7841C306.335 70.7841 310.542 71.7839 309.495 76.127" stroke="#8E949B" stroke-width="0.376214" stroke-miterlimit="10" stroke-linecap="round"/>
<path d="M303.623 55.1055C303.623 55.1055 316.004 57.7223 315.035 76.5124" stroke="#8E949B" stroke-width="0.376214" stroke-miterlimit="10" stroke-linecap="round"/>
<path d="M318.488 59.6136C315.011 53.8336 309.949 51.8057 309.43 51.6104C309.422 51.6074 309.416 51.6175 309.422 51.6236C309.71 51.8624 311.682 53.6191 313.047 57.9429L310.472 59.6146" stroke="#8E949B" stroke-width="0.376214" stroke-miterlimit="10" stroke-linecap="round"/>
<path d="M310.359 51.0995C310.359 51.0995 316.493 53.269 320.126 60.3139" stroke="#8E949B" stroke-width="0.376214" stroke-miterlimit="10" stroke-linecap="round"/>
<path d="M290.082 78.6523L292.834 79.4892C293.219 79.6056 293.608 79.7037 293.998 79.7988C295.057 80.0548 297.843 81.4705 297.821 86.3863L297.046 95.7232C297.046 95.7232 297.052 97.8016 294.498 99.7536C294.49 99.7597 294.479 99.7506 294.485 99.7425C294.743 99.4045 296.085 97.5082 295.738 94.9926C295.722 94.8722 295.583 94.8114 295.483 94.8813L292.431 97.0204C292.366 97.067 292.326 97.1419 292.326 97.2228C292.326 97.3867 292.32 97.7004 292.281 98.1032C292.162 99.3164 291.741 101.337 290.282 102.51" stroke="#8E949B" stroke-width="0.376214" stroke-miterlimit="10" stroke-linecap="round"/>
<path d="M260.871 92.7871L264.49 93.7504L274.155 98.5044C274.155 98.5044 275.768 99.2279 275.758 100.959C275.75 102.337 275.267 107.676 275.267 107.676C275.267 107.676 274.897 108.962 273.432 110.053C272.356 110.855 270.303 112.37 269.186 113.193C268.66 113.582 268.041 113.825 267.39 113.895C265.983 114.049 263.515 114.197 262.484 113.515" stroke="#8E949B" stroke-width="0.376214" stroke-miterlimit="10" stroke-linecap="round"/>
<path d="M259.725 100.056L267.734 104.343C267.734 104.343 268.909 105.092 268.831 106.798C268.754 108.503 268.208 113.711 268.208 113.711" stroke="#8E949B" stroke-width="0.376214" stroke-miterlimit="10" stroke-linecap="round"/>
<path d="M269.483 112.814L270.279 104.737C270.287 104.526 270.272 104.134 270.073 103.704C269.793 103.104 269.326 102.803 269.143 102.696C266.73 101.534 264.318 100.371 261.906 99.2083" stroke="#8E949B" stroke-width="0.376214" stroke-miterlimit="10" stroke-linecap="round"/>
<path d="M270.93 111.907L271.727 103.83C271.735 103.618 271.719 103.227 271.52 102.797C271.241 102.197 270.773 101.895 270.59 101.789C268.178 100.626 265.766 99.4636 263.354 98.3009" stroke="#8E949B" stroke-width="0.376214" stroke-miterlimit="10" stroke-linecap="round"/>
<path d="M272.223 110.948L273.019 102.871C273.028 102.659 273.012 102.268 272.813 101.837C272.534 101.237 272.066 100.936 271.883 100.83C269.471 99.6669 267.059 98.5042 264.646 97.3416" stroke="#8E949B" stroke-width="0.376214" stroke-miterlimit="10" stroke-linecap="round"/>
<path d="M273.459 109.875L274.223 102.132C274.231 101.92 274.216 101.529 274.016 101.099C273.737 100.499 273.269 100.197 273.086 100.091C270.674 98.9281 268.262 97.7655 265.85 96.6028" stroke="#8E949B" stroke-width="0.376214" stroke-miterlimit="10" stroke-linecap="round"/>
<path d="M274.356 109.196L275.197 101.352C275.205 101.14 275.19 100.749 274.991 100.319C274.711 99.7186 274.244 99.417 274.061 99.3108C271.648 98.1481 269.236 96.9854 266.824 95.8228" stroke="#8E949B" stroke-width="0.376214" stroke-miterlimit="10" stroke-linecap="round"/>
<path d="M321.518 73.5139L322.055 67.6601C322.06 67.488 322.051 67.1673 321.92 66.8161C321.736 66.3264 321.43 66.0795 321.309 65.9935C319.727 65.0443 316.107 63.6276 314.525 62.6785" stroke="#8E949B" stroke-width="0.376214" stroke-miterlimit="10" stroke-linecap="round"/>
<path d="M322.462 72.9181L323.004 66.9206C323.009 66.7485 323 66.4278 322.869 66.0766C322.686 65.5869 322.379 65.34 322.258 65.254C320.676 64.3048 317.057 62.8881 315.475 61.939" stroke="#8E949B" stroke-width="0.376214" stroke-miterlimit="10" stroke-linecap="round"/>
<path d="M323.257 72.4283L323.854 66.1363C323.859 65.9643 323.85 65.6435 323.718 65.2924C323.535 64.8026 323.229 64.5557 323.108 64.4697C321.526 63.5206 317.906 62.1039 316.324 61.1547" stroke="#8E949B" stroke-width="0.376214" stroke-miterlimit="10" stroke-linecap="round"/>
<path d="M324.014 71.6541L324.643 65.5331C324.648 65.3611 324.639 65.0403 324.507 64.6892C324.324 64.1994 324.018 63.9525 323.897 63.8665C322.315 62.9173 318.695 61.5007 317.113 60.5515" stroke="#8E949B" stroke-width="0.376214" stroke-miterlimit="10" stroke-linecap="round"/>
<path d="M324.643 71.2585L325.282 64.8977C325.287 64.7257 325.278 64.4049 325.146 64.0537C324.963 63.564 324.656 63.3171 324.536 63.2311C322.954 62.2819 319.334 60.8652 317.752 59.9161" stroke="#8E949B" stroke-width="0.376214" stroke-miterlimit="10" stroke-linecap="round"/>
<path d="M275.691 100.367L279.522 97.3415C279.522 97.3415 279.89 96.4075 282.164 96.6028C284.439 96.7991 285.782 96.5754 285.782 96.5754L288.599 95.8226C288.599 95.8226 289.142 95.7578 288.929 94.8087L288.851 92.8901C288.851 92.8901 288.909 91.7861 287.417 91.437L284.413 90.2996C284.413 90.2996 283.599 88.6856 280.419 88.5298" stroke="#8E949B" stroke-width="0.376214" stroke-miterlimit="10" stroke-linecap="round"/>
<path d="M318.291 75.0068L314.525 77.9646C314.525 77.9646 313.669 78.0942 313.152 77.9646C312.634 77.8351 310.413 77.2482 310.413 77.2482C310.413 77.2482 309.355 76.8283 308.461 77.5255L299.889 83.7649" stroke="#8E949B" stroke-width="0.376214" stroke-miterlimit="10" stroke-linecap="round"/>
<path d="M292.28 98.1033C292.28 98.1033 294.378 98.1346 294.417 100.367C294.455 102.599 294.107 106.011 294.107 106.011L295.42 105.034C295.501 104.974 295.614 105.034 295.612 105.134L295.348 114.264L288.68 119.574H288.08" stroke="#8E949B" stroke-width="0.376214" stroke-miterlimit="10" stroke-linecap="round"/>
<path d="M289.65 109.196L290.888 108.451L291.008 101.759" stroke="#8E949B" stroke-width="0.376214" stroke-miterlimit="10" stroke-linecap="round"/>
<path d="M295.361 113.71C295.361 113.71 296.702 112.83 296.934 110.349C297.167 107.869 299.17 90.0425 299.17 90.0425C299.17 90.0425 297.881 90.6992 297.53 89.8735" stroke="#8E949B" stroke-width="0.376214" stroke-miterlimit="10" stroke-linecap="round"/>
<path d="M290.888 96.0847C290.888 96.0847 291.228 95.5899 290.328 95.3936" stroke="#8E949B" stroke-width="0.376214" stroke-miterlimit="10" stroke-linecap="round"/>
<path d="M299.627 88.8656C299.627 88.8656 297.895 89.7682 297.615 88.8656" stroke="#8E949B" stroke-width="0.376214" stroke-miterlimit="10" stroke-linecap="round"/>
<path d="M299.17 89.2239C299.17 89.2239 300.148 89.7956 299.17 90.0425" stroke="#8E949B" stroke-width="0.376214" stroke-miterlimit="10" stroke-linecap="round"/>
<path d="M301.009 82.9512L299.138 112.447L300.335 112.636L299.017 113.71L297.822 113.385L299.89 86.7489" stroke="#8E949B" stroke-width="0.376214" stroke-miterlimit="10" stroke-linecap="round"/>
<path d="M313.047 57.9419L315.915 58.5622L320.123 60.5516" stroke="#8E949B" stroke-width="0.376214" stroke-miterlimit="10" stroke-linecap="round"/>
<path d="M264.277 93.6943L258.178 97.6802" stroke="#8E949B" stroke-width="0.376214" stroke-miterlimit="10" stroke-linecap="round"/>
<path d="M315.917 58.5625L311.781 61.3766" stroke="#8E949B" stroke-width="0.376214" stroke-miterlimit="10" stroke-linecap="round"/>
<path d="M308.864 155.059C309.121 155.059 309.33 154.851 309.33 154.594C309.33 154.337 309.121 154.129 308.864 154.129C308.607 154.129 308.398 154.337 308.398 154.594C308.398 154.851 308.607 155.059 308.864 155.059Z" stroke="#8E949B" stroke-width="0.376214" stroke-miterlimit="10" stroke-linecap="round"/>
<path d="M309.75 153.143C309.966 153.143 310.141 152.968 310.141 152.752C310.141 152.537 309.966 152.362 309.75 152.362C309.534 152.362 309.359 152.537 309.359 152.752C309.359 152.968 309.534 153.143 309.75 153.143Z" stroke="#8E949B" stroke-width="0.376214" stroke-miterlimit="10" stroke-linecap="round"/>
<path d="M309.888 151.232C310.18 151.232 310.416 150.996 310.416 150.704C310.416 150.412 310.18 150.176 309.888 150.176C309.596 150.176 309.359 150.412 309.359 150.704C309.359 150.996 309.596 151.232 309.888 151.232Z" stroke="#8E949B" stroke-width="0.376214" stroke-miterlimit="10" stroke-linecap="round"/>
<path d="M309.573 149.4C309.794 149.4 309.974 149.186 309.974 148.922C309.974 148.658 309.794 148.445 309.573 148.445C309.351 148.445 309.172 148.658 309.172 148.922C309.172 149.186 309.351 149.4 309.573 149.4Z" stroke="#8E949B" stroke-width="0.376214" stroke-miterlimit="10" stroke-linecap="round"/>
<path d="M306.965 156.688C307.143 156.688 307.288 156.543 307.288 156.364C307.288 156.185 307.143 156.04 306.965 156.04C306.786 156.04 306.641 156.185 306.641 156.364C306.641 156.543 306.786 156.688 306.965 156.688Z" stroke="#8E949B" stroke-width="0.376214" stroke-miterlimit="10" stroke-linecap="round"/>
<path d="M314.526 77.9644L307.558 152.362C307.558 152.362 307.041 156.896 301.602 157.611" stroke="#8E949B" stroke-width="0.376214" stroke-miterlimit="10" stroke-linecap="round"/>
<path d="M320.127 74.5795L324.645 71.6541" stroke="#8E949B" stroke-width="0.376214" stroke-miterlimit="10" stroke-linecap="round"/>
<path d="M271.728 111.316L266.971 183.607" stroke="#8E949B" stroke-width="0.376214" stroke-miterlimit="10" stroke-linecap="round"/>
<path d="M309.357 77.1448C309.357 77.1448 309.458 80.6713 308.683 81.7591L301.964 86.3602L300.207 111.524C300.207 111.524 304.089 111.085 304.784 115.542L304.082 120.257L304.34 124.339L303.048 131.264L297.88 139.996L289.093 148.929L280.047 156.157L275.55 156.377C275.55 156.377 275.33 156.668 275.268 156.157C275.19 155.51 275.37 153.571 276.584 148.11C276.584 148.11 275.602 144.337 276.066 143.459L276.351 139.028C276.351 139.028 276.539 136.374 273.534 135.501C270.476 134.614 270.419 138.033 270.419 138.033L269.605 154.618C269.605 154.618 271.503 156.409 275.549 156.376" stroke="#8E949B" stroke-width="0.376214" stroke-miterlimit="10" stroke-linecap="round"/>
<path d="M270.652 136.85C270.652 136.85 272.163 133.749 274.407 134.363C274.41 134.363 274.412 134.365 274.415 134.365C274.543 134.407 277.562 135.409 277.46 138.343C277.44 138.922 277.402 139.494 277.351 140.043C277.154 142.19 276.786 143.951 276.742 144.161C276.739 144.175 276.739 144.19 276.741 144.205L277.253 147.888C277.254 147.898 277.255 147.908 277.253 147.918L276.701 153.462C276.693 153.543 276.762 153.61 276.843 153.601L280.67 153.156C280.728 153.149 280.774 153.104 280.782 153.047L282.161 142.757C282.163 142.744 282.162 142.73 282.161 142.718L281.599 139.503C281.597 139.489 281.596 139.475 281.599 139.462L282.362 134.671C282.381 134.549 282.233 134.473 282.146 134.56L279.877 136.81C279.852 136.834 279.839 136.866 279.839 136.9V138.028C279.839 138.066 279.823 138.101 279.794 138.125L277.474 140.089" stroke="#8E949B" stroke-width="0.376214" stroke-miterlimit="10" stroke-linecap="round"/>
<path d="M270.871 135.992C270.907 135.64 271.025 135.009 271.492 134.442C272.224 133.551 273.507 133.193 274.799 133.486C275.144 133.596 276.805 134.169 277.746 135.941C278.599 137.546 278.296 139.075 278.206 139.468" stroke="#8E949B" stroke-width="0.376214" stroke-miterlimit="10" stroke-linecap="round"/>
<path d="M274.336 133.176L275.2 108.295" stroke="#8E949B" stroke-width="0.376214" stroke-miterlimit="10" stroke-linecap="round"/>
<path d="M278.878 98.9851L277.256 130.799L278.807 131.548L277.128 132.549L275.447 131.781L277.139 100.367" stroke="#8E949B" stroke-width="0.376214" stroke-miterlimit="10" stroke-linecap="round"/>
<path d="M281.907 150.751L281.648 153.384C281.635 153.509 281.733 153.618 281.858 153.618C282.154 153.618 282.378 153.352 282.329 153.062L282.256 150.881C282.247 150.827 281.913 150.697 281.907 150.752V150.751Z" stroke="#8E949B" stroke-width="0.376214" stroke-miterlimit="10" stroke-linecap="round"/>
<path d="M282.979 153.618L283.445 149.452C283.445 149.452 283.304 148.773 282.423 148.172C281.854 147.785 282.933 142.941 282.933 142.941C282.933 142.941 282.914 140.14 282.423 139.467L283.172 133.95C283.172 133.95 283.508 130.307 278.805 129.416L278.957 126.005L279.993 102.793C279.993 102.793 279.838 102.056 282.668 102.212C285.498 102.367 287.941 101.902 288.289 100.856C288.638 99.8095 288.978 96.3215 288.978 96.3215C288.978 96.3215 289.85 96.6635 290.886 96.0857L288.978 116.28C288.978 116.28 289.426 119.923 284.846 122.598C280.264 125.272 278.957 126.007 278.957 126.007" stroke="#8E949B" stroke-width="0.376214" stroke-miterlimit="10" stroke-linecap="round"/>
<path d="M275.758 101.437L279.26 98.6854C279.26 98.6854 280.578 97.0835 283.097 97.3416C285.617 97.5996 288.546 97.1351 288.981 96.3206" stroke="#8E949B" stroke-width="0.376214" stroke-miterlimit="10" stroke-linecap="round"/>
<path d="M296.595 111.906L296.275 114.729C296.275 114.729 301.237 114.807 299.9 120.89L301.007 120.034C301.325 119.788 301.522 119.416 301.545 119.015L301.599 118.085L304.028 116.077C304.028 116.077 304.6 112.907 301.005 111.544" stroke="#8E949B" stroke-width="0.376214" stroke-miterlimit="10" stroke-linecap="round"/>
<path d="M304.028 116.076L303.305 120.723L303.666 124.851L302.633 130.359L298.679 137.051C298.679 137.051 298.085 137.352 298.162 136.426C298.239 135.5 299.403 128.24 299.403 128.24L298.989 124.85L299.583 119.946C299.583 119.946 300.23 117.174 296.559 116.075C293.716 115.224 293.587 118.905 293.587 118.905L292.011 129.997C292.011 129.997 289.504 131.056 289.091 134.157M289.091 134.157L282.424 139.467M289.091 134.157C289.091 134.157 293.898 133.2 296.353 137.438L295.545 142.367" stroke="#8E949B" stroke-width="0.376214" stroke-miterlimit="10" stroke-linecap="round"/>
<path d="M289.534 145.887C289.534 145.887 289.842 144.007 288.66 145.247C287.477 146.488 284.848 149.18 284.848 149.18C284.848 149.18 284.357 149.646 284.298 150.556L284.24 151.467C284.24 151.467 284.259 152.037 284.996 151.432C285.733 150.827 289.086 147.901 289.086 147.901C289.086 147.901 289.454 147.475 289.483 146.913C289.513 146.351 289.535 145.886 289.535 145.886L289.534 145.887Z" stroke="#8E949B" stroke-width="0.376214" stroke-miterlimit="10" stroke-linecap="round"/>
<path d="M294.842 140.907C294.842 140.907 294.861 140.093 294.144 140.636C293.427 141.178 290.539 143.542 290.539 143.542C290.539 143.542 290.093 143.949 290.073 144.395C290.054 144.84 290.073 146.488 290.073 146.488C290.073 146.488 290.073 146.972 290.635 146.488C291.197 146.003 294.472 142.845 294.472 142.845C294.472 142.845 294.782 142.573 294.84 142.224C294.898 141.875 294.84 140.907 294.84 140.907H294.842Z" stroke="#8E949B" stroke-width="0.376214" stroke-miterlimit="10" stroke-linecap="round"/>
<path d="M293.657 141.017C293.657 141.017 293.848 142.192 293.356 142.709C292.865 143.226 290.066 145.499 290.066 145.499" stroke="#8E949B" stroke-width="0.376214" stroke-miterlimit="10" stroke-linecap="round"/>
<path d="M287.962 145.973C287.962 145.973 288.264 146.972 287.618 147.67C286.972 148.367 284.297 150.557 284.297 150.557" stroke="#8E949B" stroke-width="0.376214" stroke-miterlimit="10" stroke-linecap="round"/>
<path d="M297.633 136.527C297.488 136.498 297.194 137.384 297.078 137.736C296.641 139.053 296.383 140.523 296.56 140.578C296.578 140.583 296.606 140.578 296.922 140.139C297.247 139.689 297.409 139.463 297.477 139.325C297.559 139.16 297.628 138.96 297.672 137.981C297.714 137.026 297.736 136.549 297.633 136.528V136.527Z" stroke="#8E949B" stroke-width="0.376214" stroke-miterlimit="10" stroke-linecap="round"/>
<path d="M292.012 129.998C292.012 129.998 295.709 129.586 297.706 132.452" stroke="#8E949B" stroke-width="0.376214" stroke-miterlimit="10" stroke-linecap="round"/>
<path d="M295.666 120.665C296.228 120.665 296.683 120.21 296.683 119.648C296.683 119.086 296.228 118.631 295.666 118.631C295.104 118.631 294.648 119.086 294.648 119.648C294.648 120.21 295.104 120.665 295.666 120.665Z" stroke="#8E949B" stroke-width="0.376214" stroke-miterlimit="10" stroke-linecap="round"/>
<path d="M293.587 111.496C293.587 113.636 292.461 115.323 291.846 115.323C291.232 115.323 290.887 114.389 290.887 112.249C290.887 110.108 292.094 108.012 292.709 108.012C293.323 108.012 293.587 109.356 293.587 111.496Z" stroke="#8E949B" stroke-width="0.376214" stroke-miterlimit="10" stroke-linecap="round"/>
<path d="M111.599 108.683C110.051 108.873 108.885 110.539 108.847 112.132C108.802 113.985 110.277 115.984 112.181 115.93C113.833 115.884 115.119 114.311 115.282 112.791C115.51 110.667 113.568 108.442 111.6 108.683H111.599Z" stroke="#8E949B" stroke-width="0.376214" stroke-miterlimit="10" stroke-linecap="round"/>
<path d="M204.79 131.832C202.98 131.797 201.355 133.228 201.069 134.984C200.708 137.198 202.558 139.435 204.79 139.428C206.546 139.423 208.109 138.032 208.408 136.327C208.79 134.149 207.03 131.876 204.79 131.831V131.832Z" stroke="#8E949B" stroke-width="0.376214" stroke-miterlimit="10" stroke-linecap="round"/>
<path d="M34.1963 90.0811C32.9047 90.1509 31.9239 91.5605 31.7933 92.8193C31.6131 94.5496 32.9857 96.5117 34.5323 96.4358C35.8452 96.3711 36.9029 94.8573 36.9616 93.4649C37.0315 91.8185 35.7217 89.9981 34.1963 90.0801V90.0811Z" stroke="#8E949B" stroke-width="0.376214" stroke-miterlimit="10" stroke-linecap="round"/>
<path d="M220.055 107.792C220.295 107.792 220.49 107.419 220.49 106.959C220.49 106.499 220.295 106.126 220.055 106.126C219.816 106.126 219.621 106.499 219.621 106.959C219.621 107.419 219.816 107.792 220.055 107.792Z" stroke="#8E949B" stroke-width="0.376214" stroke-miterlimit="10" stroke-linecap="round"/>
<path d="M254.763 107.745C255.21 107.745 255.573 107.383 255.573 106.936C255.573 106.488 255.21 106.126 254.763 106.126C254.316 106.126 253.953 106.488 253.953 106.936C253.953 107.383 254.316 107.745 254.763 107.745Z" stroke="#8E949B" stroke-width="0.376214" stroke-miterlimit="10" stroke-linecap="round"/>
<path d="M283.369 87.7172C283.818 87.7172 284.182 87.353 284.182 86.9037C284.182 86.4543 283.818 86.0901 283.369 86.0901C282.919 86.0901 282.555 86.4543 282.555 86.9037C282.555 87.353 282.919 87.7172 283.369 87.7172Z" stroke="#8E949B" stroke-width="0.376214" stroke-miterlimit="10" stroke-linecap="round"/>
<path d="M138.807 104.785L140.08 131.834" stroke="#8E949B" stroke-width="0.376214" stroke-miterlimit="10" stroke-linecap="round"/>
<path d="M296.278 114.729C296.278 114.729 295.006 114.463 294.314 116.513C294.314 116.513 295.094 115.907 296.506 116.512C297.472 116.926 299.225 117.494 299.043 120.129L298.268 125.477L298.63 128.525L297.854 133.386L296.355 137.438" stroke="#8E949B" stroke-width="0.376214" stroke-miterlimit="10" stroke-linecap="round"/>
<path d="M302.665 130.197L299.258 129.158" stroke="#8E949B" stroke-width="0.376214" stroke-miterlimit="10" stroke-linecap="round"/>
<path d="M293.545 77.7966C293.97 77.7966 294.314 77.4523 294.314 77.0276C294.314 76.6029 293.97 76.2585 293.545 76.2585C293.12 76.2585 292.775 76.6029 292.775 77.0276C292.775 77.4523 293.12 77.7966 293.545 77.7966Z" stroke="#8E949B" stroke-width="0.376214" stroke-miterlimit="10" stroke-linecap="round"/>
<path d="M308.978 70.2084C309.34 70.2084 309.634 69.9148 309.634 69.5527C309.634 69.1905 309.34 68.897 308.978 68.897C308.616 68.897 308.322 69.1905 308.322 69.5527C308.322 69.9148 308.616 70.2084 308.978 70.2084Z" stroke="#8E949B" stroke-width="0.376214" stroke-miterlimit="10" stroke-linecap="round"/>
<path d="M273.021 139.57C273.583 139.57 274.038 139.115 274.038 138.553C274.038 137.992 273.583 137.536 273.021 137.536C272.459 137.536 272.004 137.992 272.004 138.553C272.004 139.115 272.459 139.57 273.021 139.57Z" stroke="#8E949B" stroke-width="0.376214" stroke-miterlimit="10" stroke-linecap="round"/>
<path d="M280.671 153.154L276.848 151.999" stroke="#8E949B" stroke-width="0.376214" stroke-miterlimit="10" stroke-linecap="round"/>
<path d="M225.234 112.91L224.717 113.747" stroke="#8E949B" stroke-width="0.376214" stroke-miterlimit="10" stroke-linecap="round"/>
<path d="M220.033 111.777L219.516 112.613" stroke="#8E949B" stroke-width="0.376214" stroke-miterlimit="10" stroke-linecap="round"/>
<path d="M23.394 68.0691L22.2715 68.7926" stroke="#8E949B" stroke-width="0.376214" stroke-miterlimit="10" stroke-linecap="round"/>
<path d="M226.924 88.9822L237.118 90.9898C239.646 91.4876 242.27 91.0151 244.466 89.6672L310.313 49.2366" stroke="#8E949B" stroke-width="0.376214" stroke-miterlimit="10" stroke-linecap="round"/>
<path d="M206.697 84.9995L223.061 88.2214" stroke="#8E949B" stroke-width="0.376214" stroke-miterlimit="10" stroke-linecap="round"/>
<path d="M130.635 70.022L202.617 84.1957" stroke="#8E949B" stroke-width="0.376214" stroke-miterlimit="10" stroke-linecap="round"/>
<path d="M113.062 66.5615L127.06 69.318" stroke="#8E949B" stroke-width="0.376214" stroke-miterlimit="10" stroke-linecap="round"/>
<path d="M49.7598 54.0957L109.706 65.9006" stroke="#8E949B" stroke-width="0.376214" stroke-miterlimit="10" stroke-linecap="round"/>
<path d="M35.0254 51.1946L47.016 53.5564" stroke="#8E949B" stroke-width="0.376214" stroke-miterlimit="10" stroke-linecap="round"/>
<path d="M23.2227 48.8704L33.1757 50.8304" stroke="#8E949B" stroke-width="0.376214" stroke-miterlimit="10" stroke-linecap="round"/>
<path d="M10.3203 36.3483L13.2264 35.4679" stroke="#F84E4E" stroke-width="0.376214" stroke-miterlimit="10"/>
<path d="M15.1934 34.8716L100.847 8.93042" stroke="#F84E4E" stroke-width="0.376214" stroke-miterlimit="10"/>
<path d="M101.834 8.63188L104.74 7.75153" stroke="#F84E4E" stroke-width="0.376214" stroke-miterlimit="10"/>
<path d="M12.2614 37.9104L4.3125 38.1674L11.067 33.9711L12.2614 37.9104Z" fill="#F84E4E"/>
<path d="M103.994 10.1284L110.749 5.93207L102.801 6.18909L103.994 10.1284Z" fill="#F84E4E"/>
<path d="M328.862 34.2756L325.855 33.8456" stroke="#F84E4E" stroke-width="0.376214" stroke-miterlimit="10"/>
<path d="M323.869 33.5611L134.076 6.41064" stroke="#F84E4E" stroke-width="0.376214" stroke-miterlimit="10"/>
<path d="M133.081 6.26911L130.076 5.83905" stroke="#F84E4E" stroke-width="0.376214" stroke-miterlimit="10"/>
<path d="M327.765 32.0396L335.077 35.1643L327.182 36.1135L327.765 32.0396Z" fill="#F84E4E"/>
<path d="M131.757 4.00043L123.861 4.94959L131.174 8.07435L131.757 4.00043Z" fill="#F84E4E"/>
<path d="M341.789 49.0786V52.1143" stroke="#F84E4E" stroke-width="0.376214" stroke-miterlimit="10"/>
<path d="M341.789 54.1182V133.263" stroke="#F84E4E" stroke-width="0.376214" stroke-miterlimit="10"/>
<path d="M341.789 134.265V137.3" stroke="#F84E4E" stroke-width="0.376214" stroke-miterlimit="10"/>
<path d="M339.729 50.4823L341.787 42.8029L343.845 50.4823H339.729Z" fill="#F84E4E"/>
<path d="M339.729 135.897L341.787 143.576L343.845 135.897H339.729Z" fill="#F84E4E"/>
<path d="M348.055 71.9305H355.327V74.4731C355.327 74.9797 355.24 75.3976 355.065 75.7267C354.892 76.0557 354.659 76.3008 354.365 76.4617C354.074 76.6227 353.751 76.7032 353.396 76.7032C353.083 76.7032 352.825 76.6476 352.621 76.5363C352.418 76.4274 352.257 76.283 352.138 76.1031C352.02 75.9255 351.933 75.7326 351.876 75.5242H351.805C351.79 75.7468 351.712 75.9705 351.57 76.1954C351.428 76.4203 351.225 76.6085 350.96 76.76C350.694 76.9115 350.37 76.9873 349.987 76.9873C349.622 76.9873 349.294 76.9044 349.003 76.7387C348.712 76.573 348.481 76.3114 348.31 75.9539C348.14 75.5964 348.055 75.1312 348.055 74.5583V71.9305ZM348.836 72.8112V74.5583C348.836 75.1336 348.947 75.542 349.17 75.7835C349.395 76.0273 349.667 76.1492 349.987 76.1492C350.233 76.1492 350.46 76.0865 350.668 75.961C350.879 75.8356 351.047 75.6568 351.173 75.4248C351.3 75.1928 351.364 74.9182 351.364 74.6009V72.8112H348.836ZM352.131 72.8112V74.4447C352.131 74.7098 352.183 74.949 352.288 75.162C352.392 75.3775 352.539 75.5479 352.728 75.6734C352.917 75.8012 353.14 75.8651 353.396 75.8651C353.715 75.8651 353.986 75.7539 354.209 75.5313C354.434 75.3088 354.546 74.9561 354.546 74.4731V72.8112H352.131ZM352.273 79.8878V81.9617C352.273 82.4825 352.188 82.9217 352.018 83.2791C351.847 83.639 351.607 83.9112 351.297 84.0959C350.987 84.2829 350.621 84.3764 350.2 84.3764C349.778 84.3764 349.406 84.2829 349.085 84.0959C348.763 83.9112 348.51 83.639 348.328 83.2791C348.146 82.9217 348.055 82.4825 348.055 81.9617V79.2344H355.327V80.1151H348.822V81.9617C348.822 82.2931 348.888 82.5736 349.021 82.8033C349.156 83.0353 349.328 83.2105 349.539 83.3289C349.752 83.4496 349.977 83.51 350.214 83.51C350.562 83.51 350.861 83.3762 351.112 83.1087C351.366 82.8412 351.492 82.4588 351.492 81.9617V79.8878H352.273ZM355.327 85.9673H348.055V85.0867H355.327V85.9673ZM353.055 94.3828V93.5021C353.308 93.45 353.531 93.3588 353.722 93.2286C353.914 93.1008 354.075 92.9445 354.205 92.7599C354.338 92.5776 354.437 92.3752 354.504 92.1526C354.57 91.9301 354.603 91.6981 354.603 91.4566C354.603 91.0163 354.492 90.6174 354.269 90.2599C354.047 89.9048 353.719 89.6219 353.286 89.4112C352.852 89.2028 352.321 89.0987 351.691 89.0987C351.061 89.0987 350.53 89.2028 350.097 89.4112C349.663 89.6219 349.335 89.9048 349.113 90.2599C348.89 90.6174 348.779 91.0163 348.779 91.4566C348.779 91.6981 348.812 91.9301 348.879 92.1526C348.945 92.3752 349.043 92.5776 349.173 92.7599C349.306 92.9445 349.468 93.1008 349.66 93.2286C349.854 93.3588 350.076 93.45 350.327 93.5021V94.3828C349.956 94.3165 349.623 94.1957 349.33 94.0205C349.036 93.8454 348.786 93.6276 348.58 93.3671C348.377 93.1067 348.222 92.8143 348.115 92.49C348.009 92.168 347.955 91.8236 347.955 91.4566C347.955 90.8364 348.107 90.2847 348.41 89.8018C348.713 89.3188 349.144 88.9389 349.702 88.6619C350.261 88.3849 350.924 88.2464 351.691 88.2464C352.458 88.2464 353.121 88.3849 353.68 88.6619C354.238 88.9389 354.669 89.3188 354.972 89.8018C355.275 90.2847 355.427 90.8364 355.427 91.4566C355.427 91.8236 355.374 92.168 355.267 92.49C355.161 92.8143 355.004 93.1067 354.798 93.3671C354.595 93.6276 354.346 93.8454 354.053 94.0205C353.761 94.1957 353.429 94.3165 353.055 94.3828ZM351.691 102.742C350.924 102.742 350.261 102.604 349.702 102.327C349.144 102.05 348.713 101.67 348.41 101.187C348.107 100.704 347.955 100.152 347.955 99.532C347.955 98.9117 348.107 98.3601 348.41 97.8772C348.713 97.3942 349.144 97.0143 349.702 96.7373C350.261 96.4603 350.924 96.3218 351.691 96.3218C352.458 96.3218 353.121 96.4603 353.68 96.7373C354.238 97.0143 354.669 97.3942 354.972 97.8772C355.275 98.3601 355.427 98.9117 355.427 99.532C355.427 100.152 355.275 100.704 354.972 101.187C354.669 101.67 354.238 102.05 353.68 102.327C353.121 102.604 352.458 102.742 351.691 102.742ZM351.691 101.89C352.321 101.89 352.852 101.785 353.286 101.574C353.719 101.366 354.047 101.083 354.269 100.725C354.492 100.37 354.603 99.9724 354.603 99.532C354.603 99.0917 354.492 98.6928 354.269 98.3353C354.047 97.9802 353.719 97.6973 353.286 97.4866C352.852 97.2782 352.321 97.1741 351.691 97.1741C351.061 97.1741 350.53 97.2782 350.097 97.4866C349.663 97.6973 349.335 97.9802 349.113 98.3353C348.89 98.6928 348.779 99.0917 348.779 99.532C348.779 99.9724 348.89 100.37 349.113 100.725C349.335 101.083 349.663 101.366 350.097 101.574C350.53 101.785 351.061 101.89 351.691 101.89ZM354.546 104.323H355.327V109.777H354.546V107.49H348.055V106.61H354.546V104.323ZM348.055 111.385V110.462L355.327 113.132V114.041L348.055 116.712V115.788L354.177 113.615V113.558L348.055 111.385ZM350.896 111.726V115.448H350.114V111.726H350.896Z" fill="#F84E4E"/>
<path d="M34.4203 15.5429L35.2669 15.3001L37.0478 21.513L39.5055 20.808L37.7246 14.5951L38.5711 14.3523L40.352 20.5652L42.8097 19.8602L41.0288 13.6473L41.8754 13.4045L43.8794 20.3957L36.4243 22.5341L34.4203 15.5429ZM44.3417 12.6971L45.1746 12.4582L46.752 17.961L46.8202 17.9414L49.066 11.3419L49.8852 11.107L51.8892 18.0981L51.0427 18.3409L49.4692 12.8518L49.4009 12.8714L47.165 19.4532L46.3457 19.6882L44.3417 12.6971ZM54.3522 17.3917L52.3481 10.4005L54.7103 9.72292C55.2587 9.56561 55.7354 9.53601 56.1403 9.63414C56.5469 9.72933 56.8823 9.92004 57.1466 10.2063C57.4109 10.4925 57.6021 10.8416 57.7201 11.2535C57.8382 11.6654 57.8613 12.0639 57.7895 12.449C57.7199 12.8335 57.5397 13.1758 57.249 13.476C56.9575 13.7738 56.5399 14.0008 55.996 14.1568L54.3029 14.6424L54.0876 13.8914L55.7534 13.4136C56.1289 13.3059 56.4118 13.1545 56.6022 12.9595C56.7926 12.7645 56.9074 12.542 56.9465 12.2919C56.9872 12.0388 56.9675 11.7723 56.8872 11.4924C56.807 11.2125 56.6829 10.9772 56.515 10.7864C56.3493 10.5951 56.1336 10.4698 55.8678 10.4105C55.6015 10.349 55.2783 10.3728 54.8982 10.4818L53.41 10.9087L55.1987 17.1488L54.3522 17.3917ZM59.2187 8.42971L60.0516 8.1908L61.629 13.6936L61.6973 13.674L63.943 7.07459L64.7622 6.8396L66.7662 13.8308L65.9197 14.0736L64.3462 8.58444L64.278 8.60402L62.042 15.1859L61.2227 15.4209L59.2187 8.42971ZM69.2292 13.1243L67.2252 6.13313L68.0717 5.89031L68.9641 9.00356L72.6916 7.93436L71.7992 4.8211L72.6458 4.57827L74.6498 11.5694L73.8032 11.8123L72.9069 8.68536L69.1794 9.75457L70.0757 12.8815L69.2292 13.1243ZM77.4003 10.7805L76.5128 11.0351L77.0757 3.30758L77.9496 3.05692L82.5205 9.31179L81.633 9.56636L77.857 4.28044L77.8024 4.29611L77.4003 10.7805ZM76.9452 7.95556L80.5225 6.92943L80.7378 7.68044L77.1605 8.70657L76.9452 7.95556Z" fill="#F84E4E"/>
<path d="M213.122 12.1171L213.498 9.60238L213.962 9.67169C214.143 9.55032 214.323 9.36785 214.503 9.12427C214.686 8.8787 214.86 8.54083 215.024 8.11066C215.192 7.6785 215.343 7.12067 215.479 6.43719L216.087 3.42579L220.358 4.06427L219.398 10.4845L220.227 10.6084L219.854 13.1091L219.025 12.9851L219.283 11.2572L214.212 10.499L213.951 12.241L213.122 12.1171ZM215.001 9.82711L218.57 10.3606L219.413 4.71303L216.758 4.31608L216.308 6.56111C216.201 7.08139 216.081 7.54935 215.947 7.96499C215.814 8.37829 215.668 8.74061 215.508 9.05196C215.35 9.36097 215.181 9.61935 215.001 9.82711ZM221.601 11.6037L221.721 10.803L221.931 10.8345C222.231 10.8793 222.478 10.8181 222.673 10.6509C222.868 10.4838 223.034 10.1914 223.171 9.77378C223.31 9.3565 223.445 8.79623 223.576 8.09296L224.221 4.64185L228.604 5.29713L227.53 12.49L226.659 12.3598L227.618 5.93959L224.934 5.53844L224.394 8.38756C224.253 9.1373 224.088 9.76853 223.899 10.2812C223.71 10.794 223.457 11.169 223.139 11.4063C222.821 11.6436 222.397 11.7227 221.868 11.6436L221.601 11.6037ZM231.136 5.67559L231.993 5.80371L231.147 11.4653L231.217 11.4758L235.996 6.40228L236.839 6.52829L235.765 13.7212L234.894 13.591L235.737 7.94343L235.667 7.93292L230.904 12.9945L230.061 12.8685L231.136 5.67559ZM238.299 14.1L239.373 6.90714L240.244 7.03736L239.766 10.2404L243.601 10.8138L244.08 7.61073L244.951 7.74094L243.876 14.9338L243.005 14.8036L243.486 11.5865L239.65 11.0131L239.17 14.2303L238.299 14.1ZM246.706 15.3569L245.793 15.2204L249.509 8.42236L250.408 8.55678L251.974 16.1445L251.061 16.008L249.816 9.63171L249.76 9.62331L246.706 15.3569ZM247.463 12.5976L251.144 13.1479L251.028 13.9205L247.347 13.3703L247.463 12.5976Z" fill="#F84E4E"/>
</g>
<defs>
<clipPath id="clip0_270_44942">
<rect width="368" height="214" fill="white"/>
</clipPath>
</defs>
</svg>
