<svg width="142" height="140" viewBox="0 0 142 140" fill="none" xmlns="http://www.w3.org/2000/svg">
<g id="No image">
<path id="Vector" d="M139.108 37.6264C138.379 41.257 137.537 44.8051 136.553 48.3222C135.824 50.9884 135.038 53.6289 134.166 56.2384C133.182 59.1882 132.116 62.1381 130.969 65.0364C125.078 79.9868 117.051 93.8078 107.29 106.175V106.205C106.337 107.428 105.327 108.619 104.343 109.81C103.333 111.033 102.323 112.193 101.283 113.384C100.385 114.405 99.4572 115.426 98.5342 116.422C97.5805 117.417 96.6269 118.438 95.6732 119.402C93.0927 122.012 90.4561 124.539 87.7329 126.947C85.6267 128.819 83.4949 130.635 81.3071 132.367C77.9668 135.065 74.5193 137.586 70.9801 140C68.3435 138.185 65.7324 136.313 63.1826 134.353C62.3411 133.698 61.4996 133.048 60.6582 132.367C64.2229 130.124 67.6449 127.716 70.9852 125.189C73.173 123.513 75.3353 121.785 77.4109 119.996C80.1342 117.67 82.7963 115.256 85.3512 112.734C87.2586 110.862 89.1404 108.903 90.961 106.917C93.0366 104.648 95.0306 102.322 96.9634 99.9087C106.755 87.7637 114.726 74.0613 120.417 59.1934C121.539 56.326 122.549 53.4329 123.477 50.4521C124.293 47.8993 125.022 45.2899 125.696 42.6804C123.283 41.5458 120.815 40.4937 118.291 39.5036C116.944 38.9621 115.567 38.4515 114.165 37.9977C113.915 37.8843 113.629 37.7966 113.38 37.7141C112.819 37.5129 112.227 37.317 111.666 37.1468C110.57 36.7755 109.448 36.4351 108.356 36.0947C105.832 35.3263 103.277 34.6456 100.671 34.0525C97.7233 33.3718 94.7501 32.7736 91.7209 32.3197C85.0708 31.2419 78.2524 30.7004 71.2963 30.7004C64.1413 30.7004 57.1291 31.2677 50.2802 32.4022C47.2764 32.887 44.3032 33.4801 41.3556 34.1918C41.2434 33.7947 41.1566 33.4234 41.075 33.0263C40.9935 32.655 40.9068 32.2578 40.8252 31.8917C40.6008 30.9531 40.4019 29.9887 40.2081 29.0553C39.8715 27.2967 39.5604 25.5639 39.3105 23.8054C42.2582 23.0937 45.2314 22.5006 48.2351 22.0159C55.7522 20.7679 63.4426 20.1129 71.2963 20.1129C78.9561 20.1129 86.4477 20.7111 93.771 21.9024C96.7747 22.3872 99.7479 22.9802 102.721 23.661C105.302 24.2592 107.882 24.909 110.437 25.6774C113.833 26.6727 117.199 27.7763 120.484 29.0243C123.039 29.9629 125.563 31.0098 128.031 32.0877C131.815 33.7998 135.518 35.6409 139.108 37.6264Z" fill="#8E949B" fill-opacity="0.25"/>
<path id="Vector_2" d="M64.558 119.995C61.2176 122.466 57.7957 124.792 54.231 126.947C51.5077 124.534 48.8456 122.012 46.2906 119.402C44.3833 117.443 42.5015 115.431 40.6809 113.389C38.6053 111.032 36.6112 108.65 34.6784 106.211C24.9685 93.8954 17.0026 80.162 11.1124 65.356C9.95985 62.4629 8.89401 59.5388 7.91485 56.5632C7.04279 53.9537 6.23192 51.3132 5.50266 48.647C4.5184 45.1299 3.65144 41.5818 2.92217 37.9512C2.3612 35.1973 1.85631 32.4486 1.43303 29.6379C0.785363 25.4091 0.311086 21.1287 0 16.8122C3.78913 14.9093 7.68536 13.1507 11.6428 11.5623C11.8417 15.8169 12.2038 20.02 12.7392 24.1611C13.0758 26.9408 13.5246 29.6637 14.004 32.3609C14.6771 35.9348 15.437 39.4519 16.3346 42.9432C17.0383 45.5527 17.7676 48.1622 18.6091 50.7459C19.5372 53.6958 20.547 56.5889 21.6689 59.4563C27.3654 74.2107 35.2751 87.8306 45.0106 99.9137C46.9485 102.296 48.9374 104.653 51.013 106.922C52.8387 108.908 54.7154 110.867 56.6228 112.739C58.8106 111.177 60.9728 109.532 63.0485 107.861C65.7972 105.617 68.4338 103.292 70.9888 100.883C72.9267 99.037 74.8034 97.1392 76.5985 95.1795C78.6741 92.9671 80.6682 90.6412 82.601 88.2587C91.2145 77.6196 98.2267 65.5881 103.224 52.5355C104.321 49.6991 105.331 46.8059 106.228 43.8561C109.594 44.8514 112.904 46.0117 116.132 47.2907C115.234 50.2406 114.225 53.1337 113.128 56.001C107.687 70.3017 100.027 83.5245 90.5413 95.1847C88.6034 97.5673 86.6145 99.8673 84.5389 102.105C82.7132 104.091 80.8364 105.994 78.9291 107.866C76.3742 110.336 73.7121 112.719 70.9888 114.988C68.9081 116.705 66.7509 118.376 64.558 119.995Z" fill="#8E949B" fill-opacity="0.25"/>
<path id="Vector_3" d="M41.3623 34.1968H41.3318C41.2456 33.8256 41.1644 33.4287 41.0781 33.0318C41.1644 33.4287 41.2507 33.7999 41.3623 34.1968Z" fill="#8E949B" fill-opacity="0.25"/>
<path id="Vector_4" d="M141.998 16.4924C141.687 20.8347 141.213 25.0893 140.596 29.3181C136.894 27.3584 133.135 25.574 129.259 23.898C126.76 22.8459 124.21 21.8248 121.63 20.8914C118.29 19.7001 114.898 18.5913 111.446 17.627C108.891 16.8895 106.285 16.2345 103.674 15.6415C100.7 14.9865 97.6967 14.4192 94.6674 13.9396C87.0637 12.7174 79.2355 12.0934 71.2952 12.0934C63.1305 12.0934 55.134 12.7483 47.3365 14.0222C44.3072 14.5327 41.3035 15.1 38.3303 15.7807C35.7192 16.3789 33.1132 17.0597 30.5582 17.7972C30.8132 20.4943 31.1498 23.1863 31.568 25.8525C32.129 29.3697 32.8328 32.8301 33.6742 36.2647C34.2913 38.8742 35.0206 41.4579 35.8059 44.0107C36.7035 46.9605 37.7132 49.8537 38.8097 52.6901C43.833 65.686 50.789 77.6555 59.377 88.2431C61.315 90.6256 63.3039 92.9515 65.3795 95.1639C62.8245 97.6032 60.1879 99.9033 57.4391 102.085C55.3635 99.8414 53.3695 97.5465 51.4367 95.1639C42.0072 83.5604 34.378 70.4253 28.9365 56.1814C27.8401 53.345 26.8303 50.4519 25.9072 47.4969C25.1219 44.9441 24.3926 42.3346 23.7449 39.7251C22.8729 36.2905 22.1436 32.7733 21.5266 29.2562C21.0778 26.559 20.6851 23.8361 20.374 21.1132C19.8946 16.9978 19.6141 12.8257 19.502 8.62782C22.8984 7.43653 26.3764 6.38449 29.9106 5.45106C32.5217 4.73938 35.1838 4.08956 37.8509 3.52228C40.8547 2.86732 43.9095 2.33099 46.9693 1.84622C54.9097 0.623986 63.0183 0 71.2952 0C79.3477 0 87.2575 0.59821 95.004 1.75856C98.0639 2.21238 101.119 2.75388 104.122 3.40367C106.79 3.94517 109.452 4.56918 112.063 5.2757C115.597 6.18335 119.075 7.23539 122.502 8.39574C125.139 9.30339 127.75 10.2678 130.356 11.2889C134.308 12.8876 138.184 14.6204 141.998 16.4924Z" fill="#8E949B" fill-opacity="0.25"/>
<path id="Vector_5" d="M41.3623 34.1968H41.3318C41.2456 33.8256 41.1644 33.4287 41.0781 33.0318C41.1644 33.4287 41.2507 33.7999 41.3623 34.1968Z" fill="#8E949B" fill-opacity="0.25"/>
<path id="Vector_6" d="M60.8915 65.134C60.7181 68.1973 60.5753 71.2607 60.4937 74.3291C60.4631 75.4276 60.4631 76.526 60.4631 77.6245C55.6336 70.8326 51.4875 63.5198 48.0859 55.7687C52.1454 58.4556 56.2048 61.1166 60.2948 63.7468C60.8354 64.1232 60.9527 64.4739 60.8915 65.134Z" fill="#8E949B" fill-opacity="0.25"/>
<path id="Vector_7" d="M81.6139 77.7118C81.6445 76.469 81.6445 75.2261 81.6445 73.9832C81.6445 70.8322 81.3895 67.6503 81.1855 64.4993C81.1855 64.0094 81.3844 63.865 81.7312 63.6587C85.8212 60.9409 89.9929 58.1974 94.139 55.5054C90.7068 63.3751 86.5352 70.8013 81.6139 77.7118Z" fill="#8E949B" fill-opacity="0.25"/>
<path id="Vector_8" d="M96.2854 41.7777C93.8835 43.3094 91.4254 44.7843 88.9367 46.1406C85.7952 47.8785 82.562 49.4102 79.2165 50.6788C78.5026 50.9676 77.7886 51.2307 77.0746 51.4318C76.5289 51.5762 76.2179 51.9217 76.0445 52.4426C75.5294 54.1805 75.5039 55.9443 75.5855 57.7338C75.8456 62.535 76.733 67.2177 77.7886 71.8694C77.8192 72.1324 77.8192 72.4779 77.6764 72.6533C75.5294 75.0771 73.3314 77.5061 71.0722 80.0227V80.2548C70.042 79.0996 69.0986 78.0579 68.1551 76.9852C66.9567 75.6856 65.7531 74.386 64.6108 73.0246C64.4119 72.8234 64.3558 72.4212 64.4119 72.1324C65.0392 68.2594 65.7837 64.3555 66.3855 60.4516C66.7272 58.167 66.7272 55.8256 66.3549 53.4843C66.1254 52.4426 65.697 51.8392 64.5802 51.4627C58.0066 49.2658 51.9736 45.8828 46.17 42.18C46.0017 42.0974 45.8589 41.9788 45.6855 41.8654C53.9472 40.1017 62.525 39.1734 71.2711 39.1734C79.8183 39.1734 88.2227 40.0707 96.2854 41.7777Z" fill="#8E949B" fill-opacity="0.25"/>
</g>
</svg>
