<svg width="205" height="37" viewBox="0 0 205 37" fill="none" xmlns="http://www.w3.org/2000/svg">
<path d="M57.1967 25.7952H59.7143V10.9744H56.0463C52.3617 10.9744 50.4194 12.9112 50.4194 15.7696C50.4194 18.0563 51.4864 19.3959 53.3787 20.7867L50.0859 25.7952H52.8202L56.4798 20.1894L55.2127 19.3105C53.6705 18.244 52.9203 17.4163 52.9203 15.6245C52.9203 14.046 54.004 12.9795 56.063 12.9795H57.1967V25.7952ZM105.814 26.0085C106.964 26.0085 107.773 25.7952 108.381 25.3515V23.2781C107.756 23.7303 107.006 24.0034 105.964 24.0034C104.188 24.0034 103.463 22.5955 103.463 20.3771C103.463 18.0563 104.355 16.8617 105.98 16.8617C106.939 16.8617 107.881 17.203 108.381 17.5187V15.3686C107.856 15.0699 106.939 14.8566 105.714 14.8566C102.546 14.8566 100.895 17.1774 100.895 20.4454C100.895 24.029 102.496 26.0085 105.814 26.0085ZM90.3082 25.0699V23.0051C89.5413 23.5341 88.2492 24.0034 87.0404 24.0034C85.2231 24.0034 84.5396 23.1331 84.4312 21.3413H90.4166V19.9931C90.4166 16.2645 88.8077 14.8566 86.3319 14.8566C83.3058 14.8566 81.872 17.2201 81.872 20.4624C81.872 24.1996 83.6643 26.0085 86.832 26.0085C88.4159 26.0085 89.583 25.5819 90.3082 25.0699ZM98.2277 25.7952H101.045L97.0606 20.1041L100.562 15.0699H98.0609L94.5597 20.1041V15.0699H92.0839V25.7952H94.5597V20.616L98.2277 25.7952ZM81.2634 23.7901H80.163V15.0699H72.9272V15.9829C72.9272 18.6109 72.7605 21.9983 71.8852 23.7901H71.1182V28.2525H73.4107V25.7952H78.971V28.2525H81.2634V23.7901ZM67.592 15.0699V19.3105H64.2742V15.0699H61.7983V25.7952H64.2742V21.3157H67.592V25.7952H70.0762V15.0699H67.592ZM86.2902 16.8617C87.5156 16.8617 87.8907 17.9027 87.8907 19.2508V19.4641H84.4312C84.4979 17.7576 85.0981 16.8617 86.2902 16.8617ZM77.6789 23.7901H74.1776C74.8695 22.1689 75.0529 19.2508 75.0529 17.3907V17.075H77.6789V23.7901Z" fill="#303030"/>
<path d="M57.1967 25.7952H59.7143V10.9744H56.0463C52.3617 10.9744 50.4194 12.9112 50.4194 15.7696C50.4194 18.0563 51.4864 19.3959 53.3787 20.7867L50.0859 25.7952H52.8202L56.4798 20.1894L55.2127 19.3105C53.6705 18.244 52.9203 17.4163 52.9203 15.6245C52.9203 14.046 54.004 12.9795 56.063 12.9795H57.1967V25.7952Z" fill="#EC2327"/>
<path d="M116.281 10.9744V25.7952H118.84V19.3532H123.612V25.7952H126.163V10.9744H123.612V17.3481H118.84V10.9744H116.281ZM136.213 18.4829C136.213 15.8805 134.904 14.8993 132.244 14.8993C130.58 14.8993 129.271 15.4283 128.511 15.8805V17.988C129.186 17.4761 130.664 16.9215 131.948 16.9215C133.156 16.9215 133.705 17.3481 133.705 18.5V19.0972H133.299C129.456 19.0972 127.75 20.3771 127.75 22.5529C127.75 24.7286 129.06 25.9488 131.002 25.9488C132.48 25.9488 133.113 25.4539 133.595 24.9419H133.705C133.722 25.2235 133.806 25.5819 133.89 25.7952H136.34C136.255 24.9249 136.213 24.046 136.213 23.1757V18.4829ZM133.705 23.2355C133.384 23.7047 132.792 24.0887 131.906 24.0887C130.85 24.0887 130.326 23.4914 130.326 22.5785C130.326 21.3583 131.188 20.9146 133.341 20.9146H133.705V23.2355ZM142.632 25.7952C145.123 25.7952 146.601 24.7286 146.601 22.6808C146.601 21.273 145.757 20.4624 144.346 20.2064C145.486 19.8907 146.204 19.0802 146.204 17.8003C146.204 15.9658 144.996 15.0699 142.674 15.0699H138.24V25.7952H142.632ZM142.378 16.9471C143.29 16.9471 143.797 17.3481 143.797 18.1843C143.797 18.9266 143.248 19.3788 142.294 19.3788H140.689V16.9471H142.378ZM142.421 21.2303C143.502 21.2303 144.067 21.6143 144.067 22.5102C144.067 23.517 143.434 23.9181 142.421 23.9181H140.689V21.2303H142.421ZM148.29 15.0699V25.7952H150.528L154.371 19.1655V25.7952H156.803V15.0699H154.565L150.723 21.6996V15.0699H148.29ZM158.915 15.0699V25.7952H161.423V17.075H165.308V15.0699H158.915ZM174.092 18.4829C174.092 15.8805 172.783 14.8993 170.122 14.8993C168.458 14.8993 167.149 15.4283 166.389 15.8805V17.988C167.065 17.4761 168.543 16.9215 169.827 16.9215C171.034 16.9215 171.583 17.3481 171.583 18.5V19.0972H171.178C167.335 19.0972 165.629 20.3771 165.629 22.5529C165.629 24.7286 166.938 25.9488 168.881 25.9488C170.359 25.9488 170.992 25.4539 171.474 24.9419H171.583C171.6 25.2235 171.685 25.5819 171.769 25.7952H174.218C174.134 24.9249 174.092 24.046 174.092 23.1757V18.4829ZM171.583 23.2355C171.262 23.7047 170.671 24.0887 169.784 24.0887C168.729 24.0887 168.205 23.4914 168.205 22.5785C168.205 21.3583 169.067 20.9146 171.22 20.9146H171.583V23.2355ZM183.593 17.075V15.0699H175.173V17.075H178.129V25.7952H180.637V17.075H183.593ZM188.703 14.8566C185.941 14.8566 184.015 16.8361 184.015 20.4454C184.015 24.029 185.941 26.0085 188.703 26.0085C191.473 26.0085 193.39 24.029 193.39 20.4198C193.39 16.8361 191.473 14.8566 188.703 14.8566ZM188.703 24.0034C187.309 24.0034 186.617 22.9198 186.617 20.4454C186.617 17.9454 187.309 16.8617 188.703 16.8617C190.096 16.8617 190.797 17.9454 190.797 20.4198C190.797 22.9198 190.096 24.0034 188.703 24.0034ZM197.402 15.0699H195.079V28.8925H197.596V24.5409C198.229 25.4965 199.158 26.0085 200.231 26.0085C202.68 26.0085 204.369 24.029 204.369 20.4198C204.369 16.8361 202.722 14.8566 200.358 14.8566C199.175 14.8566 198.204 15.4112 197.528 16.4522L197.402 15.0699ZM199.598 24.0034C198.272 24.0034 197.596 22.9198 197.596 20.4454C197.596 17.9454 198.314 16.8617 199.724 16.8617C201.101 16.8617 201.776 17.9454 201.776 20.4198C201.776 22.9198 201.059 24.0034 199.598 24.0034Z" fill="#303030"/>
<path d="M31 5.99951L6 16.1593L16.9399 20.0659L20.8465 30.9995L31 5.99951Z" fill="url(#paint0_linear_270_1447)"/>
<path d="M31.001 5.99951L16.5508 20.456L20.8475 30.9995L31.001 5.99951Z" fill="#FFCC00"/>
<path d="M16.1598 20.846L20.8465 30.9995L19.2801 17.7194L6 16.1593L16.1598 20.846Z" fill="#ECA704"/>
<rect x="0.5" y="0.5" width="36" height="36" rx="7.5" stroke="#748592" stroke-opacity="0.13"/>
<defs>
<linearGradient id="paint0_linear_270_1447" x1="6.0001" y1="30.999" x2="31.0012" y2="5.99798" gradientUnits="userSpaceOnUse">
<stop stop-color="#FFCC00"/>
<stop offset="1" stop-color="#FFE992"/>
</linearGradient>
</defs>
</svg>
